<?xml version="1.0" encoding="UTF-8"?>
<!DOCTYPE svg PUBLIC "-//W3C//DTD SVG 1.1//EN" "http://www.w3.org/Graphics/SVG/1.1/DTD/svg11.dtd">
<svg version="1.1" xmlns="http://www.w3.org/2000/svg" xmlns:xlink="http://www.w3.org/1999/xlink" x="0" y="0" width="50.001" height="50" viewBox="0, 0, 50.001, 50">
  <g id="Layer_1">
    <path d="M50.001,25 C50.001,38.807 38.808,50 25.001,50 C11.192,50 0,38.807 0,25 C0,11.192 11.192,0 25.001,0 C38.808,0 50.001,11.192 50.001,25" fill="#DDAA5F"/>
    <path d="M50.001,25 C50.001,38.81 38.812,50 25.001,50 C11.19,50 0,38.81 0,25 C0,24.83 0,24.67 0.01,24.5 C0.271,38.08 11.36,49 25.001,49 C38.64,49 49.731,38.08 49.991,24.5 C50.001,24.67 50.001,24.83 50.001,25" fill="#B78D4D"/>
    <path d="M49.99,25.5 C50.002,25.185 49.999,25.333 50.001,25.054 L50.001,24.994 C49.556,10.585 39.189,0.716 25.001,0 C11.19,0 0,11.19 0,25 C0.002,25.333 -0.002,25.167 0.01,25.5 C0.712,11.304 11.012,1.698 25.001,1 C39.202,1.427 49.024,11.525 49.99,25.5 z" fill="#F1F2F2" opacity="0.3"/>
    <path d="M38.498,35.7 L11.503,35.7 L11.503,14.3 L38.498,14.3 z" fill="#34495E"/>
    <path d="M13.003,34.2 L36.998,34.2 L36.998,15.8 L13.003,15.8 z M38.498,37.2 L11.503,37.2 C10.675,37.2 10.003,36.529 10.003,35.7 L10.003,14.3 C10.003,13.471 10.675,12.8 11.503,12.8 L38.498,12.8 C39.326,12.8 39.998,13.471 39.998,14.3 L39.998,35.7 C39.998,36.529 39.326,37.2 38.498,37.2" fill="#E6E7E8"/>
    <g opacity="0.2">
      <path d="M32.519,30.59 C27.696,32.47 22.299,32.47 17.478,30.59 L23.645,18 C24.54,18.179 25.456,18.179 26.351,18 z" fill="#F1F2F2"/>
      <path d="M33.019,31.09 C28.196,32.97 22.799,32.97 17.978,31.09 L24.145,18.5 C25.04,18.679 25.956,18.679 26.851,18.5 L33.019,31.09 z" fill-opacity="0" stroke="#F1F2F2" stroke-width="0.888" stroke-linejoin="round"/>
    </g>
    <path d="M38.498,37.2 L11.498,37.2 C10.678,37.2 9.998,36.53 9.998,35.7 L9.998,36.7 C9.998,37.53 10.678,38.2 11.498,38.2 L38.498,38.2 C39.328,38.2 39.998,37.53 39.998,36.7 L39.998,35.7 C39.998,36.53 39.328,37.2 38.498,37.2" fill="#B78D4D"/>
    <path d="M19.373,11.325 L15.623,11.325 L15.623,12.8 L19.373,12.8 z" fill="#34495E"/>
    <path d="M24.997,29.224 C25.301,29.224 28.575,26.845 28.575,25.095 C28.575,24.072 27.718,23.18 26.658,23.18 C25.946,23.18 25.326,23.568 24.997,24.144 C24.669,23.568 24.049,23.18 23.338,23.18 C22.277,23.18 21.42,24.072 21.42,25.095 C21.42,26.845 24.694,29.224 24.997,29.224" fill="#77E5ED"/>
    <g opacity="0.2">
      <path d="M31.498,18.842 L34.623,18.842" fill="#F1F2F2"/>
      <path d="M31.498,18.842 L34.623,18.842" fill-opacity="0" stroke="#F1F2F2" stroke-width="1" stroke-linecap="round" stroke-linejoin="round"/>
    </g>
    <path d="M36.998,16.789 L13.013,16.789 L13.013,15.789 L36.998,15.789 z" fill="#231F20" opacity="0.5"/>
  </g>
</svg>
