<?xml version="1.0" encoding="UTF-8"?>
<!DOCTYPE svg PUBLIC "-//W3C//DTD SVG 1.1//EN" "http://www.w3.org/Graphics/SVG/1.1/DTD/svg11.dtd">
<svg version="1.1" xmlns="http://www.w3.org/2000/svg" xmlns:xlink="http://www.w3.org/1999/xlink" x="0" y="0" width="50.002" height="49.998" viewBox="0, 0, 50.002, 49.998">
  <g id="Layer_1">
    <path d="M50,25 C50,38.805 38.807,49.998 25,49.998 C11.193,49.998 0.001,38.805 0.001,25 C0.001,11.193 11.193,0 25,0 C38.807,0 50,11.193 50,25" fill="#76CADD"/>
    <path d="M41.672,19.506 C41.672,26.299 37.602,32.145 31.77,34.735 C29.76,35.635 27.541,36.152 25.197,36.178 L24.791,36.178 C22.46,36.152 20.24,35.635 18.23,34.735 C12.397,32.145 8.328,26.299 8.328,19.506 z" fill="#34495E"/>
    <path d="M25,33.007 C27.397,32.917 28.865,31.19 29.093,28.907 L29.093,28.897 C29.019,26.652 27.473,25.201 25.345,24.832 L25.345,24.832 C25.839,25.885 26.005,27.051 26.11,28.199 C26.11,28.802 25.617,29.297 25,29.297 C24.384,29.297 23.89,28.802 23.89,28.199 C23.936,27.034 24.235,25.911 24.655,24.832 L24.654,24.832 C22.422,25.082 21.111,26.754 20.906,28.897 L20.906,28.907 C20.997,31.3 22.718,32.777 25,33.007 z" fill="#231F20"/>
    <path d="M26.743,31.609 C26.105,31.609 25.514,31.795 25,32.093 C24.485,31.795 23.894,31.609 23.256,31.609 C21.33,31.609 19.768,33.171 19.768,35.095 L23.256,35.912 L26.743,35.912 L30.23,35.095 C30.23,33.171 28.67,31.609 26.743,31.609" fill="#E74C3C"/>
    <path d="M50.002,25 C50.002,38.809 38.803,49.998 25.002,49.998 C11.193,49.998 0.003,38.809 0.003,25 C0.003,24.83 0.003,24.67 0.014,24.5 C0.273,38.078 11.363,48.998 25.002,48.998 C38.633,48.998 49.732,38.078 49.992,24.5 C50.002,24.67 50.002,24.83 50.002,25" fill="#79ACBA"/>
    <path d="M49.99,25.5 C50,25.33 50,25.17 50,25 C49.557,10.594 39.197,0.717 25.008,0 L24.992,0 C10.588,0.444 0.716,10.809 0,24.994 L0,25.062 C0.001,25.333 -0.001,25.188 0.01,25.5 C0.271,11.92 11.36,1 25,1 C38.64,1 49.73,11.92 49.99,25.5 z" fill="#F1F2F2" opacity="0.3"/>
    <path d="M16.797,19.484 C16.797,21.752 14.96,23.589 12.693,23.589 C10.425,23.589 8.589,21.752 8.589,19.484" fill="#FFFFFF"/>
    <path d="M24.998,19.484 C24.998,21.752 23.161,23.588 20.894,23.588 C18.627,23.588 16.79,21.752 16.79,19.484" fill="#FFFFFF"/>
    <path d="M33.2,19.484 C33.2,21.752 31.363,23.589 29.096,23.589 C26.829,23.589 24.992,21.752 24.992,19.484" fill="#FFFFFF"/>
    <path d="M41.402,19.484 C41.402,21.752 39.566,23.589 37.298,23.589 C35.032,23.589 33.194,21.752 33.194,19.484" fill="#FFFFFF"/>
    <path d="M25.197,36.178 L24.79,36.178 C22.459,36.153 20.24,35.635 18.23,34.735 C18.994,33.883 20.079,33.354 21.301,33.354 C22.928,33.354 24.321,34.289 25,35.66 C25.074,35.83 25.148,36.004 25.197,36.178" fill="#FFFFFF"/>
    <path d="M31.769,34.734 C29.759,35.634 27.54,36.152 25.197,36.177 L24.79,36.177 C24.839,36.004 24.914,35.83 24.999,35.66 C25.665,34.289 27.059,33.353 28.686,33.353 C29.907,33.353 31.005,33.882 31.769,34.734" fill="#FFFFFF"/>
    <path d="M41.671,20.504 C41.671,27.305 37.601,33.145 31.771,35.734 C29.761,36.635 27.541,37.154 25.201,37.174 L24.791,37.174 C22.461,37.154 20.241,36.635 18.231,35.734 C12.401,33.145 8.331,27.305 8.331,20.504 L8.361,20.504 C8.741,26.875 12.691,32.274 18.231,34.734 C20.241,35.635 22.461,36.154 24.791,36.174 L25.201,36.174 C27.541,36.154 29.761,35.635 31.771,34.734 C37.311,32.274 41.261,26.875 41.641,20.504 z" fill="#79ACBA"/>
  </g>
</svg>
