<?xml version="1.0" encoding="UTF-8"?>
<!DOCTYPE svg PUBLIC "-//W3C//DTD SVG 1.1//EN" "http://www.w3.org/Graphics/SVG/1.1/DTD/svg11.dtd">
<svg version="1.1" xmlns="http://www.w3.org/2000/svg" xmlns:xlink="http://www.w3.org/1999/xlink" x="0" y="0" width="50.001" height="50" viewBox="0, 0, 50.001, 50">
  <g id="Layer_1">
    <path d="M49.999,25 C49.999,38.807 38.806,50 25,50 C11.192,50 0,38.807 0,25 C0,11.193 11.192,0 25,0 C38.806,0 49.999,11.193 49.999,25" fill="#DDAA5F"/>
    <path d="M50.001,25 C50.001,38.811 38.802,50 25.002,50 C11.192,50 0.002,38.811 0.002,25 C0.002,24.83 0.002,24.67 0.013,24.5 C0.272,38.08 11.362,49 25.002,49 C38.632,49 49.731,38.08 49.991,24.5 C50.001,24.67 50.001,24.83 50.001,25" fill="#B78D4D"/>
    <path d="M49.99,25.5 C50.001,25.18 49.998,25.333 50,25.038 L50,24.996 C49.556,10.59 39.193,0.717 25.006,0 L24.994,0 C10.585,0.444 0.716,10.812 0,25 C0,25.17 0,25.33 0.01,25.5 C0.271,11.92 11.36,1 25,1 C38.639,1 49.73,11.92 49.99,25.5 z" fill="#F1F2F2" opacity="0.3"/>
    <path d="M33.924,11.939 L33.924,18.439 L29.674,18.439 L29.674,36.599 L25.004,33.889 L20.324,36.599 L20.324,18.439 L16.074,18.439 L16.074,11.939 z" fill="#FFFFFF"/>
    <path d="M35.307,17.944 C35.307,18.22 35.083,18.444 34.807,18.444 L15.192,18.444 C14.916,18.444 14.692,18.22 14.692,17.944 L14.692,12.44 C14.692,12.164 14.916,11.94 15.192,11.94 L34.807,11.94 C35.083,11.94 35.307,12.164 35.307,12.44 z" fill="#EFC695"/>
    <path d="M20.324,18.439 L20.324,36.599 L16.074,39.059 L16.074,18.439 z" fill="#76CADD"/>
    <path d="M33.924,18.439 L33.924,39.059 L29.674,36.599 L29.674,18.439 z" fill="#76CADD"/>
    <path d="M29.675,19.439 L20.325,19.439 L20.325,18.439 L29.675,18.439 z" fill="#2C3E50" opacity="0.2"/>
    <path d="M20.324,19.439 L16.074,19.439 L16.074,18.439 L20.324,18.439 z" fill="#79ACBA"/>
    <path d="M33.925,19.439 L29.675,19.439 L29.675,18.439 L33.925,18.439 z" fill="#79ACBA"/>
    <path d="M16.074,19.439 L15.194,19.439 C14.914,19.439 14.694,19.219 14.694,18.939 L14.694,17.939 C14.694,18.219 14.914,18.439 15.194,18.439 L16.074,18.439 z" fill="#B78D4D"/>
    <path d="M29.674,36.6 L33.924,39.06 L33.924,40.06 L29.674,37.6 L25.004,34.89 L20.324,37.6 L16.074,40.06 L16.074,39.06 L20.324,36.6 L25.004,33.89 z" fill="#B78D4D"/>
    <path d="M35.304,17.939 L35.304,18.939 C35.304,19.219 35.084,19.439 34.804,19.439 L33.924,19.439 L33.924,18.439 L34.804,18.439 C35.084,18.439 35.304,18.219 35.304,17.939" fill="#B78D4D"/>
  </g>
</svg>
