<?xml version="1.0" encoding="UTF-8"?>
<!DOCTYPE svg PUBLIC "-//W3C//DTD SVG 1.1//EN" "http://www.w3.org/Graphics/SVG/1.1/DTD/svg11.dtd">
<svg version="1.1" xmlns="http://www.w3.org/2000/svg" xmlns:xlink="http://www.w3.org/1999/xlink" x="0" y="0" width="50.001" height="50" viewBox="0, 0, 50.001, 50">
  <g id="Layer_1">
    <path d="M50.001,25 C50.001,38.807 38.808,50 25.001,50 C11.192,50 0,38.807 0,25 C0,11.192 11.192,0 25.001,0 C38.808,0 50.001,11.192 50.001,25" fill="#DDAA5F"/>
    <path d="M34.561,33.079 C34.561,32.747 34.292,32.479 33.961,32.479 L16.041,32.479 C15.709,32.479 15.441,32.747 15.441,33.079 L15.441,39.192 C15.441,39.524 15.709,39.792 16.041,39.792 L33.961,39.792 C34.292,39.792 34.561,39.524 34.561,39.192 z" fill="#E6E7E8"/>
    <path d="M25.001,18.154 C28.026,18.154 30.487,20.615 30.487,23.64 C30.487,26.666 28.026,29.127 25.001,29.127 C21.976,29.127 19.515,26.666 19.515,23.64 C19.515,20.615 21.976,18.154 25.001,18.154" fill="#A7ACB1"/>
    <path d="M50.001,25 C50.001,38.81 38.812,50 25.001,50 C11.19,50 0,38.81 0,25 C0,24.83 0,24.67 0.01,24.5 C0.271,38.08 11.36,49 25.001,49 C38.64,49 49.731,38.08 49.991,24.5 C50.001,24.67 50.001,24.83 50.001,25" fill="#B78D4D"/>
    <path d="M49.99,25.5 C50.002,25.185 49.999,25.333 50.001,25.054 L50.001,24.994 C49.56,10.631 39.219,0.718 25.056,0.003 L24.945,0.003 C10.558,0.454 0.714,10.845 0,25 C0,25.17 0,25.33 0.01,25.5 C0.271,11.92 11.36,1 25.001,1 C38.64,1 49.73,11.92 49.99,25.5 z" fill="#F1F2F2" opacity="0.3"/>
    <path d="M25.001,9.208 C17.03,9.208 10.568,15.67 10.568,23.641 C10.568,31.611 17.03,38.073 25.001,38.073 C32.972,38.073 39.434,31.611 39.434,23.641 C39.434,15.67 32.972,9.208 25.001,9.208 M25.001,12.787 C30.986,12.787 35.855,17.656 35.855,23.641 C35.855,29.625 30.986,34.494 25.001,34.494 C19.016,34.494 14.147,29.625 14.147,23.641 C14.147,17.656 19.016,12.787 25.001,12.787" fill="#FFFFFF"/>
    <path d="M25.001,12.19 C18.677,12.19 13.55,17.316 13.55,23.64 C13.55,29.964 18.677,35.091 25.001,35.091 C31.325,35.091 36.452,29.964 36.452,23.64 C36.452,17.316 31.325,12.19 25.001,12.19 M25.001,18.154 C28.026,18.154 30.487,20.615 30.487,23.64 C30.487,26.666 28.026,29.127 25.001,29.127 C21.976,29.127 19.515,26.666 19.515,23.64 C19.515,20.615 21.976,18.154 25.001,18.154" fill="#E6E7E8"/>
    <path d="M22.869,28.729 L28.133,28.729" fill-opacity="0" stroke="#EAC696" stroke-width="2" stroke-linecap="round"/>
    <path d="M27.181,26.973 C27.181,28.177 26.205,29.153 25.001,29.153 C23.797,29.153 22.821,28.177 22.821,26.973 C22.821,25.769 23.797,24.793 25.001,24.793 C26.205,24.793 27.181,25.769 27.181,26.973" fill="#8B5E3C"/>
    <path d="M29.497,29.393 L29.497,39.593 C29.497,39.703 29.407,39.793 29.297,39.793 L20.707,39.793 C20.597,39.793 20.507,39.703 20.507,39.593 L20.507,29.393 C20.777,29.243 21.087,29.153 21.427,29.153 L28.577,29.153 C28.907,29.153 29.217,29.243 29.497,29.393" fill="#75C1AE"/>
    <path d="M15.44,34.436 C12.58,31.896 10.73,28.246 10.58,24.156 C10.57,24.316 10.57,24.476 10.57,24.636 C10.57,28.936 12.46,32.786 15.44,35.436 z M33.96,39.796 L16.04,39.796 C15.71,39.796 15.44,39.526 15.44,39.196 L15.44,40.196 C15.44,40.526 15.71,40.796 16.04,40.796 L33.96,40.796 C34.29,40.796 34.56,40.526 34.56,40.196 L34.56,39.196 C34.56,39.526 34.29,39.796 33.96,39.796 M39.42,24.156 C39.27,28.246 37.42,31.896 34.56,34.436 L34.56,35.436 C37.54,32.786 39.43,28.936 39.43,24.636 C39.43,24.476 39.43,24.316 39.42,24.156" fill="#B78D4D"/>
    <path d="M30.487,31.063 C30.487,31.783 30.087,32.413 29.497,32.723 C29.217,32.893 28.907,32.973 28.577,32.973 L21.427,32.973 C21.087,32.973 20.777,32.883 20.507,32.733 C19.917,32.413 19.517,31.783 19.517,31.063 C19.517,30.533 19.727,30.063 20.077,29.713 C20.197,29.593 20.347,29.483 20.507,29.393 C20.777,29.243 21.087,29.153 21.427,29.153 L28.577,29.153 C28.907,29.153 29.217,29.243 29.497,29.393 C30.087,29.713 30.487,30.343 30.487,31.063" fill="#FFFFFF"/>
    <path d="M29.498,33.933 L29.498,32.483 L20.508,32.483 L20.508,33.933 L29.498,33.933 z" fill="#231F20" opacity="0.5"/>
  </g>
</svg>
