<?xml version="1.0" encoding="UTF-8"?>
<!DOCTYPE svg PUBLIC "-//W3C//DTD SVG 1.1//EN" "http://www.w3.org/Graphics/SVG/1.1/DTD/svg11.dtd">
<svg version="1.1" xmlns="http://www.w3.org/2000/svg" xmlns:xlink="http://www.w3.org/1999/xlink" x="0" y="0" width="50.004" height="49.999" viewBox="0, 0, 50.004, 49.999">
  <g id="Layer_1">
    <path d="M50,25 C50,38.806 38.807,49.999 25,49.999 C11.192,49.999 0,38.806 0,25 C0,11.193 11.192,0 25,0 C38.807,0 50,11.193 50,25" fill="#AF7AC4"/>
    <path d="M21.699,36.051 L16.41,36.051 L16.41,35.051 L21.699,35.051 z" fill="#906698"/>
    <path d="M28.301,41.562 L28.301,42.562 C28.301,44.382 26.821,45.863 25,45.863 C23.18,45.863 21.699,44.382 21.699,42.562 L21.699,41.562 C21.699,43.382 23.18,44.863 25,44.863 C26.821,44.863 28.301,43.382 28.301,41.562" fill="#906698"/>
    <path d="M33.59,36.051 L28.301,36.051 L28.301,35.051 L33.59,35.051 z" fill="#906698"/>
    <path d="M30.801,12.483 L30.801,13.483 L28.41,13.483 C27.93,14.124 27.291,14.624 26.541,14.914 L26.53,14.914 C26.051,15.114 25.541,15.213 25,15.213 C24.461,15.213 23.949,15.114 23.471,14.914 L23.461,14.914 C22.711,14.624 22.071,14.124 21.59,13.483 L19.199,13.483 L19.199,12.483 L21.59,12.483 C22.369,13.523 23.6,14.213 25,14.213 C26.401,14.213 27.631,13.523 28.41,12.483 z" fill="#906698"/>
    <path d="M50.004,25 C50.004,38.81 38.805,49.999 25.004,49.999 C11.194,49.999 0.004,38.81 0.004,25 C0.004,24.83 0.004,24.67 0.014,24.5 C0.275,38.079 11.364,48.999 25.004,48.999 C38.635,48.999 49.734,38.079 49.994,24.5 C50.004,24.67 50.004,24.83 50.004,25" fill="#906698"/>
    <path d="M30.803,10.207 C30.803,7.002 28.205,4.405 25,4.405 C21.797,4.405 19.199,7.002 19.199,10.207 L19.199,12.478 L30.803,12.478 z" fill="#8B5E3C"/>
    <path d="M21.697,41.56 C21.697,43.386 23.176,44.865 25,44.865 C26.824,44.865 28.304,43.386 28.304,41.56 L28.304,32.702 L21.697,32.702 z" fill="#EAC696"/>
    <path d="M16.405,26.801 L16.405,35.05 L33.595,35.05 L33.595,26.168" fill="#75C1AE"/>
    <path d="M33.596,26.455 C33.596,31.202 29.746,35.05 25,35.05 C20.254,35.05 16.406,31.202 16.406,26.455 C16.406,21.709 20.254,17.861 25,17.861 C29.746,17.861 33.596,21.709 33.596,26.455" fill="#75C1AE"/>
    <path d="M31.18,20.902 C31.18,24.314 28.412,27.081 25,27.081 C21.588,27.081 18.821,24.314 18.821,20.902 C18.821,17.489 21.588,14.723 25,14.723 C28.412,14.723 31.18,17.489 31.18,20.902" fill="#75C1AE"/>
    <path d="M32.158,26.455 C32.158,30.408 28.953,33.612 25,33.612 C21.047,33.612 17.843,30.408 17.843,26.455 C17.843,22.503 21.047,19.298 25,19.298 C28.953,19.298 32.158,22.503 32.158,26.455" fill="#FFFFFF"/>
    <path d="M29.252,9.955 C29.252,12.305 27.35,14.208 25,14.208 C22.65,14.208 20.748,12.305 20.748,9.955 C20.748,7.606 22.65,5.702 25,5.702 C27.35,5.702 29.252,7.606 29.252,9.955" fill="#EAC696"/>
    <path d="M25,31.394 C25.434,31.394 30.107,27.999 30.107,25.502 C30.107,24.041 28.883,22.767 27.369,22.767 C26.354,22.767 25.469,23.32 25,24.143 C24.531,23.32 23.646,22.767 22.631,22.767 C21.117,22.767 19.893,24.041 19.893,25.502 C19.893,27.999 24.566,31.394 25,31.394" fill="#E74C3C"/>
    <path d="M21.697,41.56 C21.697,43.386 23.176,44.865 25,44.865 C26.824,44.865 28.304,43.386 28.304,41.56 z" fill="#8B5E3C"/>
    <path d="M29.629,8.15 L20.367,8.15 C21.084,6.294 22.887,4.982 24.998,4.982 C27.109,4.982 28.912,6.294 29.629,8.15" fill="#8B5E3C"/>
    <path d="M49.99,25.5 C50,25.33 50,25.17 50,25 C49.557,10.596 39.198,0.717 25.01,0.001 L24.99,0.001 C10.583,0.445 0.716,10.815 0,25 C0,25.17 0,25.33 0.01,25.5 C0.271,11.92 11.361,1 25,1 C38.639,1 49.73,11.92 49.99,25.5 z" fill="#F1F2F2" opacity="0.3"/>
    <path d="M28.309,36.052 L28.309,35.052 L21.699,35.052 L21.699,36.052 L28.309,36.052 z" fill="#231F20"/>
  </g>
</svg>
