<?xml version="1.0" encoding="UTF-8"?>
<!DOCTYPE svg PUBLIC "-//W3C//DTD SVG 1.1//EN" "http://www.w3.org/Graphics/SVG/1.1/DTD/svg11.dtd">
<svg version="1.1" xmlns="http://www.w3.org/2000/svg" xmlns:xlink="http://www.w3.org/1999/xlink" x="0" y="0" width="50.002" height="50" viewBox="0, 0, 50.002, 50">
  <g id="Layer_1">
    <path d="M50.002,25 C50.002,38.807 38.809,50 25.002,50 C11.194,50 0.002,38.807 0.002,25 C0.002,11.193 11.194,0 25.002,0 C38.809,0 50.002,11.193 50.002,25" fill="#34495E"/>
    <path d="M50,25 C50,38.809 38.81,50 25,50 C11.189,50 0,38.809 0,25 C0,24.83 0,24.67 0.01,24.5 C0.27,38.08 11.359,49 25,49 C38.64,49 49.729,38.08 49.989,24.5 C50,24.67 50,24.83 50,25" fill="#253749"/>
    <path d="M49.992,25.5 C50.003,25.18 50,25.333 50.002,25.039 L50.002,24.996 C49.558,10.586 39.193,0.717 25.004,0 L25,0 C10.589,0.444 0.718,10.809 0.002,25 C0.002,25.17 0.002,25.33 0.012,25.5 C0.273,11.92 11.362,1 25.002,1 C38.642,1 49.732,11.92 49.992,25.5 z" fill="#F1F2F2" opacity="0.3"/>
    <path d="M26.275,9.145 L24.535,10.054 C24.535,10.044 24.545,10.035 24.555,10.035 z" fill="#253749"/>
    <path d="M24.805,38.784 L24.165,38.984 C24.155,39.004 23.655,39.124 23.555,39.144 C23.805,38.954 24.105,38.824 24.435,38.784 C24.555,38.774 24.685,38.774 24.805,38.784" fill="#253749"/>
    <path d="M24.895,5.614 L22.985,6.294 C22.885,6.334 22.825,6.444 22.865,6.553 L22.835,6.553 C22.725,6.574 22.625,6.504 22.605,6.394 L22.495,5.744 C22.475,5.634 22.555,5.524 22.665,5.504 C22.705,5.544 22.765,5.564 22.835,5.553 L24.775,5.234 C24.815,5.263 24.845,5.303 24.855,5.354 z" fill="#253749"/>
    <path d="M25.465,7.204 L23.645,8.154 C23.585,8.174 23.555,8.234 23.555,8.294 L23.365,8.364 C23.265,8.404 23.145,8.344 23.105,8.244 L22.865,7.554 C22.825,7.444 22.885,7.334 22.985,7.294 L23.115,7.254 C23.155,7.354 23.265,7.404 23.365,7.364 L25.275,6.694 z" fill="#253749"/>
    <path d="M26.275,9.145 L24.535,10.054 L24.205,10.224 C24.105,10.285 23.985,10.245 23.935,10.145 L23.565,9.424 C23.515,9.334 23.545,9.205 23.645,9.155 L23.875,9.035 L23.935,9.145 C23.985,9.245 24.105,9.285 24.205,9.224 L26.035,8.264 L26.355,8.874 C26.405,8.974 26.375,9.094 26.275,9.145" fill="#253749"/>
    <path d="M27.365,11.024 L25.135,12.173 C25.045,12.223 24.925,12.183 24.865,12.084 L24.465,11.303 C24.415,11.204 24.455,11.084 24.555,11.034 L24.775,10.914 L24.865,11.084 C24.925,11.183 25.045,11.223 25.135,11.173 L27.135,10.144 L27.455,10.753 C27.505,10.843 27.465,10.963 27.365,11.024" fill="#253749"/>
    <path d="M28.565,13.074 C28.605,13.174 28.555,13.294 28.455,13.334 L25.955,14.314 C25.855,14.354 25.735,14.303 25.695,14.204 L25.345,13.314 C25.305,13.204 25.355,13.094 25.465,13.053 L25.615,12.994 L25.695,13.204 C25.735,13.303 25.855,13.354 25.955,13.314 L28.295,12.394 z" fill="#253749"/>
    <path d="M29.415,15.924 C29.445,16.034 29.375,16.145 29.265,16.164 L26.765,16.684 L26.515,16.684 C26.465,16.684 26.415,16.704 26.385,16.735 C26.315,16.724 26.255,16.664 26.235,16.584 L26.025,15.584 C26.005,15.474 26.075,15.364 26.185,15.344 L26.235,15.584 C26.255,15.695 26.365,15.764 26.475,15.744 L29.265,15.164 z" fill="#253749"/>
    <path d="M29.745,17.984 L29.745,18.984 C29.745,19.093 29.655,19.183 29.545,19.183 L26.825,19.183 L26.335,19.044 C26.315,19.024 26.315,19.004 26.315,18.984 L26.315,17.984 C26.315,18.093 26.405,18.183 26.515,18.183 L29.545,18.183 C29.655,18.183 29.745,18.093 29.745,17.984" fill="#253749"/>
    <path d="M29.545,21.145 L29.405,21.674 L29.255,22.205 C29.225,22.294 29.155,22.344 29.065,22.355 C29.045,22.355 29.015,22.344 28.995,22.344 L27.355,21.884 L25.925,21.485 C25.835,21.464 25.725,21.355 25.745,21.264 C25.725,21.264 25.775,21.044 25.775,21.025 L25.895,20.594 L25.925,20.485 L27.355,20.884 L28.995,21.344 C29.015,21.344 29.045,21.355 29.065,21.355 C29.155,21.344 29.225,21.294 29.255,21.205 L29.345,20.884 L29.405,20.905 C29.515,20.934 29.575,21.044 29.545,21.145" fill="#253749"/>
    <path d="M28.665,24.254 L28.465,24.764 L28.265,25.275 C28.235,25.364 28.145,25.414 28.055,25.404 C28.035,25.404 28.005,25.395 27.985,25.384 L26.305,24.724 L24.865,24.164 C24.795,24.134 24.635,24.014 24.665,23.944 C24.635,23.924 24.675,23.734 24.685,23.704 L24.855,23.264 L24.895,23.174 L26.305,23.724 L27.985,24.384 C28.005,24.395 28.035,24.404 28.055,24.404 C28.145,24.414 28.235,24.364 28.265,24.275 L28.395,23.934 L28.555,23.994 C28.655,24.034 28.705,24.154 28.665,24.254" fill="#253749"/>
    <path d="M27.485,27.474 L27.275,27.974 L27.055,28.485 C27.015,28.575 26.925,28.624 26.835,28.605 C26.815,28.605 26.775,28.584 26.765,28.584 L25.025,27.844 L23.525,27.214 C23.475,27.195 23.265,27.054 23.295,27.004 C23.245,26.985 23.265,26.804 23.285,26.754 L23.475,26.315 L23.515,26.214 L23.525,26.214 L25.025,26.844 L26.765,27.584 C26.775,27.584 26.815,27.605 26.835,27.605 C26.925,27.624 27.015,27.575 27.055,27.485 L27.205,27.145 L27.375,27.214 C27.475,27.254 27.525,27.374 27.485,27.474" fill="#253749"/>
    <path d="M26.315,30.574 L26.115,31.084 L25.915,31.604 C25.885,31.694 25.775,31.744 25.685,31.723 C25.675,31.723 25.625,31.704 25.615,31.694 L23.775,30.973 L22.195,30.364 C22.155,30.344 21.915,30.223 21.915,30.183 C21.845,30.154 21.835,29.994 21.865,29.933 L22.045,29.454 L22.105,29.314 C22.145,29.344 22.185,29.354 22.195,29.364 L23.775,29.973 L25.615,30.694 C25.625,30.704 25.675,30.723 25.685,30.723 C25.775,30.744 25.885,30.694 25.915,30.604 L26.045,30.254 L26.205,30.314 C26.305,30.354 26.355,30.473 26.315,30.574" fill="#253749"/>
    <path d="M25.465,33.254 L25.165,34.315 C25.155,34.334 25.155,34.344 25.125,34.364 L25.125,34.234 C25.125,34.124 25.035,34.034 24.925,34.034 L23.405,34.034 L22.875,33.884 L21.165,33.414 C21.155,33.404 20.825,33.304 20.825,33.284 C20.745,33.264 20.695,33.124 20.725,33.034 L20.865,32.534 L20.915,32.334 L20.925,32.334 C21.025,32.364 21.155,32.404 21.165,32.414 L22.875,32.884 L24.865,33.444 C24.875,33.444 24.935,33.454 24.935,33.454 C25.035,33.474 25.135,33.414 25.165,33.315 L25.255,32.994 L25.325,33.014 C25.425,33.034 25.495,33.154 25.465,33.254" fill="#253749"/>
    <path d="M25.125,35.334 L25.125,36.274 C25.095,36.194 24.995,36.145 24.915,36.164 L22.985,36.534 L20.465,36.534 C20.355,36.534 20.265,36.444 20.265,36.334 L20.265,35.334 C20.265,35.444 20.355,35.534 20.465,35.534 L24.925,35.534 C25.035,35.534 25.125,35.444 25.125,35.334" fill="#253749"/>
    <path d="M25.585,38.364 C25.605,38.454 25.535,38.564 25.445,38.584 L24.805,38.784 L24.165,38.984 C24.155,39.004 23.655,39.124 23.555,39.144 L23.535,39.144 L21.605,39.513 C21.515,39.534 21.405,39.473 21.385,39.384 L21.245,38.914 L20.975,38.444 C20.955,38.433 20.935,38.334 20.945,38.314 C20.915,38.223 20.985,38.114 21.075,38.093 L21.275,38.034 L21.385,38.384 C21.405,38.473 21.515,38.534 21.605,38.513 L23.535,38.144 C23.585,38.144 24.155,38.004 24.165,37.984 L25.245,37.644 L25.285,37.763 L25.545,38.223 C25.565,38.234 25.595,38.343 25.585,38.364" fill="#253749"/>
    <path d="M28.455,45.424 C28.415,46.054 28.315,46.454 28.305,46.474 C28.255,46.674 28.075,46.815 27.875,46.815 L27.865,46.815 C27.655,46.815 27.475,46.664 27.435,46.454 C27.425,46.454 27.355,46.105 27.165,45.634 C26.965,45.105 26.595,44.525 26.225,44.094 C25.835,43.664 25.365,43.434 25.175,43.404 L25.145,43.395 L24.885,43.424 C24.395,43.485 23.905,43.355 23.525,43.054 C23.135,42.744 22.895,42.315 22.835,41.824 C22.805,41.584 22.825,41.344 22.895,41.114 C22.995,41.485 23.215,41.804 23.525,42.054 C23.905,42.355 24.395,42.485 24.885,42.424 L25.145,42.395 L25.175,42.404 C25.365,42.434 25.835,42.664 26.225,43.094 C26.595,43.525 26.965,44.105 27.165,44.634 C27.355,45.105 27.425,45.454 27.435,45.454 C27.475,45.664 27.655,45.815 27.865,45.815 L27.875,45.815 C28.075,45.815 28.255,45.674 28.305,45.474 C28.315,45.454 28.405,45.105 28.445,44.534 C28.475,44.844 28.475,45.145 28.455,45.424" fill="#253749"/>
    <path d="M24.958,5.008 C24.976,5.116 24.901,5.219 24.793,5.237 L22.832,5.558 C22.723,5.575 22.62,5.5 22.602,5.392 L22.496,4.739 C22.478,4.63 22.553,4.526 22.662,4.508 L24.621,4.189 C24.73,4.171 24.834,4.244 24.852,4.353 z" fill="#EAC696"/>
    <path d="M25.02,5.572 C25.124,5.535 25.239,5.589 25.276,5.693 L25.521,6.387 C25.558,6.491 25.503,6.604 25.4,6.642 L23.365,7.364 C23.261,7.401 23.145,7.345 23.109,7.242 L22.863,6.55 C22.827,6.446 22.882,6.33 22.986,6.293 z" fill="#EAC696"/>
    <path d="M25.715,7.077 C25.813,7.025 25.934,7.062 25.985,7.16 L26.359,7.878 C26.409,7.975 26.372,8.096 26.275,8.147 L24.207,9.227 C24.109,9.279 23.986,9.241 23.936,9.143 L23.563,8.428 C23.512,8.33 23.549,8.207 23.648,8.156 z" fill="#EAC696"/>
    <path d="M26.777,8.883 C26.875,8.831 26.996,8.87 27.047,8.968 L27.451,9.75 C27.502,9.848 27.463,9.968 27.365,10.02 L25.14,11.171 C25.042,11.222 24.921,11.184 24.87,11.085 L24.465,10.303 C24.415,10.206 24.452,10.083 24.552,10.032 z" fill="#EAC696"/>
    <path d="M27.956,11.073 C28.058,11.032 28.175,11.083 28.215,11.186 L28.562,12.074 C28.602,12.177 28.553,12.292 28.45,12.334 L25.957,13.312 C25.854,13.352 25.737,13.302 25.696,13.199 L25.349,12.311 C25.309,12.209 25.359,12.091 25.463,12.051 z" fill="#EAC696"/>
    <path d="M28.976,13.768 C29.084,13.745 29.19,13.814 29.212,13.922 L29.42,14.928 C29.442,15.036 29.372,15.141 29.263,15.164 L26.471,15.741 C26.361,15.763 26.256,15.693 26.234,15.585 L26.027,14.58 C26.005,14.472 26.074,14.364 26.182,14.343 z" fill="#EAC696"/>
    <path d="M29.743,17.984 C29.743,18.093 29.654,18.183 29.543,18.184 L26.518,18.184 C26.407,18.184 26.317,18.094 26.317,17.984 L26.318,16.884 C26.318,16.775 26.407,16.683 26.518,16.684 L29.544,16.685 C29.654,16.684 29.743,16.774 29.743,16.884 z" fill="#EAC696"/>
    <path d="M25.745,20.265 C25.727,20.26 25.773,20.041 25.778,20.024 L25.897,19.595 L26.018,19.164 C26.04,19.086 26.108,19.031 26.185,19.023 C26.211,19.018 26.255,19.024 26.281,19.031 L27.79,19.451 L29.409,19.902 C29.516,19.931 29.577,20.041 29.548,20.147 L29.4,20.677 L29.253,21.207 C29.229,21.291 29.152,21.349 29.069,21.351 C29.049,21.354 29.016,21.349 28.996,21.343 L27.35,20.885 L25.925,20.489 C25.836,20.464 25.721,20.354 25.745,20.265" fill="#EAC696"/>
    <path d="M24.666,22.942 C24.632,22.928 24.674,22.736 24.688,22.702 L24.858,22.266 L25.029,21.833 C25.061,21.751 25.143,21.703 25.226,21.71 C25.246,21.708 25.302,21.724 25.323,21.732 L26.884,22.342 L28.552,22.996 C28.655,23.035 28.705,23.151 28.665,23.254 L28.465,23.765 L28.265,24.278 C28.231,24.364 28.142,24.413 28.055,24.4 C28.039,24.401 28.001,24.389 27.984,24.383 L26.309,23.728 L24.865,23.164 C24.796,23.136 24.639,23.011 24.666,22.942" fill="#EAC696"/>
    <path d="M23.291,26.004 C23.241,25.983 23.266,25.809 23.287,25.759 L23.477,25.31 L23.666,24.86 C23.702,24.775 23.794,24.728 23.882,24.746 C23.897,24.744 23.964,24.769 23.98,24.775 L25.626,25.471 L27.377,26.211 C27.479,26.253 27.527,26.371 27.484,26.473 L27.27,26.979 L27.057,27.485 C27.019,27.575 26.92,27.622 26.83,27.6 C26.817,27.6 26.774,27.584 26.763,27.579 L25.021,26.843 L23.526,26.212 C23.476,26.191 23.27,26.055 23.291,26.004" fill="#EAC696"/>
    <path d="M21.911,29.18 C21.842,29.154 21.837,28.998 21.864,28.93 L22.049,28.456 L22.235,27.983 C22.27,27.891 22.37,27.841 22.462,27.865 C22.473,27.864 22.552,27.892 22.562,27.896 L24.332,28.587 L26.205,29.318 C26.307,29.359 26.358,29.475 26.318,29.577 L26.119,30.089 L25.918,30.602 C25.882,30.697 25.779,30.746 25.683,30.72 C25.675,30.72 25.625,30.702 25.616,30.699 L23.771,29.978 L22.193,29.363 C22.159,29.349 21.898,29.214 21.911,29.18" fill="#EAC696"/>
    <path d="M20.829,32.284 C20.741,32.26 20.7,32.127 20.725,32.038 L20.866,31.529 L21.008,31.018 C21.036,30.918 21.138,30.857 21.237,30.879 C21.243,30.878 21.337,30.902 21.343,30.904 L23.279,31.441 L25.323,32.01 C25.43,32.038 25.492,32.149 25.462,32.256 L25.315,32.785 L25.168,33.315 C25.14,33.417 25.036,33.478 24.935,33.456 C24.931,33.456 24.871,33.44 24.867,33.439 L22.871,32.885 L21.169,32.413 C21.151,32.408 20.824,32.302 20.829,32.284" fill="#EAC696"/>
    <path d="M25.124,35.33 C25.124,35.44 25.034,35.53 24.924,35.53 L22.692,35.53 L20.461,35.53 C20.351,35.53 20.261,35.44 20.261,35.33 L20.261,34.78 L20.261,34.23 C20.261,34.12 20.351,34.03 20.461,34.03 L22.692,34.03 L24.924,34.03 C25.034,34.03 25.124,34.12 25.124,34.23 L25.124,34.78 z" fill="#EAC696"/>
    <path d="M21.24,37.913 L20.974,37.448 C20.958,37.438 20.931,37.329 20.942,37.313 C20.919,37.225 20.985,37.115 21.074,37.094 L22.362,36.688 C22.37,36.673 22.972,36.524 22.989,36.534 L24.919,36.165 C25.008,36.142 25.115,36.207 25.136,36.296 L25.283,36.763 L25.548,37.228 C25.564,37.238 25.591,37.348 25.581,37.363 C25.603,37.452 25.536,37.562 25.447,37.584 L24.16,37.988 C24.151,38.004 23.55,38.152 23.534,38.142 L21.603,38.513 C21.514,38.535 21.407,38.47 21.386,38.381 z" fill="#EAC696"/>
    <path d="M25.174,42.408 C25.369,42.429 25.836,42.664 26.22,43.097 C26.598,43.521 26.962,44.108 27.169,44.631 C27.356,45.1 27.43,45.452 27.43,45.455 C27.473,45.66 27.652,45.809 27.862,45.813 C27.865,45.814 27.868,45.814 27.871,45.814 C28.077,45.814 28.257,45.675 28.308,45.473 C28.312,45.457 28.411,45.057 28.453,44.428 C28.502,43.679 28.404,42.811 28.184,42.044 C27.974,41.33 27.553,40.332 26.77,39.651 C26.622,39.504 26.445,39.39 26.303,39.3 L26.168,39.214 C25.934,39.092 25.662,39 25.491,38.951 L25.239,38.867 C24.983,38.781 24.705,38.752 24.438,38.785 C23.433,38.905 22.714,39.821 22.834,40.825 C22.893,41.312 23.137,41.747 23.523,42.051 C23.908,42.352 24.392,42.488 24.882,42.428 L25.142,42.397 z" fill="#EAC696"/>
  </g>
</svg>
