<?xml version="1.0" encoding="UTF-8"?>
<!DOCTYPE svg PUBLIC "-//W3C//DTD SVG 1.1//EN" "http://www.w3.org/Graphics/SVG/1.1/DTD/svg11.dtd">
<svg version="1.1" xmlns="http://www.w3.org/2000/svg" xmlns:xlink="http://www.w3.org/1999/xlink" x="0" y="0" width="50.002" height="50" viewBox="0, 0, 50.002, 50">
  <g id="Layer_1">
    <path d="M50.002,25 C50.002,38.807 38.809,50 25.002,50 C11.193,50 0,38.807 0,25 C0,11.192 11.193,0 25.002,0 C38.809,0 50.002,11.192 50.002,25" fill="#75C1AE"/>
    <path d="M50.002,25 C50.002,38.81 38.813,50 25.002,50 C11.191,50 0,38.81 0,25 C0,24.83 0,24.67 0.01,24.5 C0.272,38.08 11.361,49 25.002,49 C38.641,49 49.732,38.08 49.992,24.5 C50.002,24.67 50.002,24.83 50.002,25" fill="#61A191"/>
    <path d="M49.99,25.5 C50.003,25.195 50,25.333 50.002,25.083 L50.002,24.99 C49.557,10.583 39.187,0.716 25.002,0 C10.598,0.443 0.716,10.802 0.001,24.99 L0.001,25.104 C0.002,25.333 -0,25.201 0.01,25.5 C0.712,11.304 11.013,1.698 25.002,1 C39.203,1.427 49.024,11.525 49.99,25.5 z" fill="#F1F2F2" opacity="0.3"/>
    <path d="M21.7,41.776 C21.7,43.602 23.179,45.081 25.003,45.081 C26.827,45.081 28.307,43.602 28.307,41.776 L28.307,32.918 L21.7,32.918 z" fill="#EAC696"/>
    <path d="M32.474,26.672 C32.474,30.797 29.128,34.142 25.003,34.142 C20.878,34.142 17.534,30.797 17.534,26.672 C17.534,22.547 20.878,19.203 25.003,19.203 C29.128,19.203 32.474,22.547 32.474,26.672" fill="#EAC696"/>
    <path d="M30.242,21.119 C30.242,24.012 27.895,26.357 25.003,26.357 C22.109,26.357 19.763,24.012 19.763,21.119 C19.763,18.224 22.109,15.88 25.003,15.88 C27.895,15.88 30.242,18.224 30.242,21.119" fill="#EAC696"/>
    <path d="M29.255,10.172 C29.255,12.522 27.353,14.424 25.003,14.424 C22.653,14.424 20.751,12.522 20.751,10.172 C20.751,7.822 22.653,5.918 25.003,5.918 C27.353,5.918 29.255,7.822 29.255,10.172" fill="#EAC696"/>
    <path d="M38.503,20.924 L11.503,20.924 C10.399,20.924 9.503,20.028 9.503,18.924 C9.503,17.819 10.399,16.924 11.503,16.924 L38.503,16.924 C39.607,16.924 40.503,17.819 40.503,18.924 C40.503,20.028 39.607,20.924 38.503,20.924" fill="#EAC696"/>
    <path d="M22.939,12.02 C22.939,10.88 23.863,9.955 25.003,9.955 C26.144,9.955 27.068,10.88 27.068,12.02 z" fill="#8B5E3C"/>
    <path d="M35.82,33.259 L14.182,33.259 L14.182,16.106 L35.82,16.106 z" fill="#34495E"/>
    <path d="M29.256,11.17 C29.256,13.52 27.357,15.42 25.006,15.42 C22.656,15.42 20.746,13.52 20.746,11.17 C20.746,11 20.756,10.84 20.777,10.67 C21.027,12.779 22.826,14.42 25.006,14.42 C27.187,14.42 28.986,12.779 29.227,10.67 C29.246,10.84 29.256,11 29.256,11.17" fill="#61A191"/>
    <path d="M40.437,19.42 C40.216,20.29 39.437,20.92 38.506,20.92 L36.317,20.92 L36.317,21.92 L38.506,21.92 C39.607,21.92 40.506,21.029 40.506,19.92 C40.506,19.75 40.487,19.58 40.437,19.42 M21.697,33.76 L14.187,33.76 C13.907,33.76 13.687,33.54 13.687,33.26 L13.687,34.26 C13.687,34.54 13.907,34.76 14.187,34.76 L21.697,34.76 z M25.006,45.08 C23.176,45.08 21.697,43.6 21.697,41.78 L21.697,42.78 C21.697,44.6 23.176,46.08 25.006,46.08 C26.827,46.08 28.307,44.6 28.307,42.78 L28.307,41.78 C28.307,43.6 26.827,45.08 25.006,45.08 M35.817,33.76 L28.307,33.76 L28.307,34.76 L35.817,34.76 C36.097,34.76 36.317,34.54 36.317,34.26 L36.317,33.26 C36.317,33.54 36.097,33.76 35.817,33.76 M11.506,20.92 C10.577,20.92 9.796,20.29 9.577,19.42 C9.527,19.58 9.506,19.75 9.506,19.92 C9.506,21.029 10.397,21.92 11.506,21.92 L13.687,21.92 L13.687,20.92 z" fill="#61A191"/>
    <path d="M25.01,30.376 C24.734,30.376 24.51,30.152 24.51,29.876 L24.51,23.292 C24.51,23.173 24.552,23.058 24.63,22.968 L26.486,20.795 C26.665,20.584 26.983,20.56 27.19,20.739 C27.401,20.918 27.425,21.233 27.245,21.443 L25.51,23.477 L25.51,29.876 C25.51,30.152 25.286,30.376 25.01,30.376" fill="#77E5ED"/>
    <path d="M26.732,33.759 C26.456,33.759 26.232,33.535 26.232,33.259 L26.232,30.876 C26.232,30.601 26.007,30.376 25.732,30.376 L24.275,30.376 C24,30.376 23.775,30.601 23.775,30.876 L23.775,33.259 C23.775,33.535 23.551,33.759 23.275,33.759 C22.999,33.759 22.775,33.535 22.775,33.259 L22.775,30.876 C22.775,30.049 23.448,29.376 24.275,29.376 L25.732,29.376 C26.559,29.376 27.232,30.049 27.232,30.876 L27.232,33.259 C27.232,33.535 27.008,33.759 26.732,33.759" fill="#77E5ED"/>
    <path d="M23.281,19.92 C23.005,19.92 22.781,19.696 22.781,19.42 L22.781,17.865 C22.781,17.621 22.957,17.413 23.198,17.372 L24.636,17.13 L24.636,16.106 C24.636,15.829 24.86,15.606 25.136,15.606 C25.413,15.606 25.636,15.829 25.636,16.106 L25.636,17.553 C25.636,17.797 25.461,18.005 25.219,18.046 L23.781,18.288 L23.781,19.42 C23.781,19.696 23.557,19.92 23.281,19.92" fill="#77E5ED"/>
    <path d="M28.698,20.516 C28.52,20.516 28.348,20.421 28.259,20.253 C28.127,20.011 28.218,19.707 28.461,19.577 L30.481,18.485 C30.553,18.445 30.635,18.424 30.719,18.424 L35.819,18.424 C36.095,18.424 36.319,18.648 36.319,18.924 C36.319,19.201 36.095,19.424 35.819,19.424 L30.844,19.424 L28.935,20.455 C28.86,20.496 28.779,20.516 28.698,20.516" fill="#77E5ED"/>
    <path d="M24.312,20.516 C24.231,20.516 24.15,20.496 24.075,20.455 L22.166,19.424 L14.182,19.424 C13.906,19.424 13.682,19.201 13.682,18.924 C13.682,18.648 13.906,18.424 14.182,18.424 L22.291,18.424 C22.375,18.424 22.457,18.445 22.529,18.485 L24.549,19.577 C24.792,19.707 24.883,20.011 24.751,20.253 C24.662,20.421 24.49,20.516 24.312,20.516" fill="#77E5ED"/>
    <path d="M14.682,32.759 L35.32,32.759 L35.32,16.606 L14.682,16.606 z M35.82,33.759 L14.182,33.759 C13.906,33.759 13.682,33.535 13.682,33.259 L13.682,16.106 C13.682,15.829 13.906,15.606 14.182,15.606 L35.82,15.606 C36.096,15.606 36.32,15.829 36.32,16.106 L36.32,33.259 C36.32,33.535 36.096,33.759 35.82,33.759" fill="#E6E7E8"/>
    <path d="M26.567,23.4 C26.816,23.4 29.501,21.45 29.501,20.015 C29.501,19.176 28.797,18.445 27.927,18.445 C27.344,18.445 26.837,18.762 26.567,19.234 C26.297,18.762 25.79,18.445 25.207,18.445 C24.337,18.445 23.633,19.176 23.633,20.015 C23.633,21.45 26.318,23.4 26.567,23.4" fill="#77E5ED"/>
    <path d="M28.307,34.759 L28.307,33.759 L21.697,33.759 L21.697,34.759 L28.307,34.759 z" fill="#231F20"/>
    <path d="M35.282,17.591 L14.706,17.591 L14.706,16.591 L35.282,16.591 z" fill="#231F20" opacity="0.5"/>
  </g>
</svg>
