<?xml version="1.0" encoding="UTF-8"?>
<!DOCTYPE svg PUBLIC "-//W3C//DTD SVG 1.1//EN" "http://www.w3.org/Graphics/SVG/1.1/DTD/svg11.dtd">
<svg version="1.1" xmlns="http://www.w3.org/2000/svg" xmlns:xlink="http://www.w3.org/1999/xlink" x="0" y="0" width="50.002" height="50" viewBox="0, 0, 50.002, 50">
  <g id="Layer_1">
    <path d="M50.002,25 C50.002,38.807 38.809,50 25.002,50 C11.193,50 0,38.807 0,25 C0,11.192 11.193,0 25.002,0 C38.809,0 50.002,11.192 50.002,25" fill="#75C1AE"/>
    <path d="M50.002,25 C50.002,38.81 38.813,50 25.002,50 C11.191,50 0,38.81 0,25 C0,24.83 0,24.67 0.01,24.5 C0.272,38.08 11.361,49 25.002,49 C38.641,49 49.732,38.08 49.992,24.5 C50.002,24.67 50.002,24.83 50.002,25" fill="#61A191"/>
    <path d="M49.99,25.5 C50.002,25.33 50.002,25.17 50.002,25 C50.002,11.19 38.811,0 25.002,0 C10.595,0.443 0.716,10.804 0,24.994 L0,25.063 C0.002,25.333 -0.001,25.188 0.01,25.5 C0.271,11.92 11.361,1 25.002,1 C38.641,1 49.73,11.92 49.99,25.5 z" fill="#F1F2F2" opacity="0.3"/>
    <path d="M38.509,35.7 L11.514,35.7 L11.514,14.3 L38.509,14.3 z" fill="#34495E"/>
    <path d="M38.509,37.2 L11.509,37.2 C10.689,37.2 10.009,36.53 10.009,35.7 L10.009,36.7 C10.009,37.53 10.689,38.2 11.509,38.2 L38.509,38.2 C39.339,38.2 40.009,37.53 40.009,36.7 L40.009,35.7 C40.009,36.53 39.339,37.2 38.509,37.2" fill="#61A191"/>
    <path d="M19.384,11.325 L15.634,11.325 L15.634,12.8 L19.384,12.8 z" fill="#34495E"/>
    <g opacity="0.2">
      <path d="M31.509,18.842 L34.634,18.842" fill="#F1F2F2"/>
      <path d="M31.509,18.842 L34.634,18.842" fill-opacity="0" stroke="#F1F2F2" stroke-width="1" stroke-linecap="round" stroke-linejoin="round"/>
    </g>
    <path d="M24.794,31.009 C24.493,31.009 24.249,30.765 24.249,30.463 L24.249,23.279 C24.249,23.15 24.295,23.023 24.38,22.925 L26.405,20.554 C26.601,20.324 26.947,20.298 27.173,20.493 C27.403,20.689 27.43,21.032 27.234,21.262 L25.34,23.48 L25.34,30.463 C25.34,30.765 25.096,31.009 24.794,31.009" fill="#77E5ED"/>
    <path d="M26.674,34.7 C26.373,34.7 26.129,34.456 26.129,34.153 L26.129,31.554 C26.129,31.254 25.883,31.009 25.583,31.009 L23.993,31.009 C23.692,31.009 23.447,31.254 23.447,31.554 L23.447,34.153 C23.447,34.456 23.203,34.7 22.902,34.7 C22.6,34.7 22.356,34.456 22.356,34.153 L22.356,31.554 C22.356,30.651 23.091,29.917 23.993,29.917 L25.583,29.917 C26.486,29.917 27.22,30.651 27.22,31.554 L27.22,34.153 C27.22,34.456 26.975,34.7 26.674,34.7" fill="#77E5ED"/>
    <path d="M22.908,19.599 C22.607,19.599 22.362,19.356 22.362,19.054 L22.362,17.358 C22.362,17.091 22.554,16.865 22.818,16.82 L24.387,16.556 L24.387,15.438 C24.387,15.136 24.632,14.892 24.933,14.892 C25.234,14.892 25.478,15.136 25.478,15.438 L25.478,17.017 C25.478,17.283 25.286,17.509 25.023,17.555 L23.454,17.819 L23.454,19.054 C23.454,19.356 23.21,19.599 22.908,19.599" fill="#77E5ED"/>
    <path d="M28.819,20.249 C28.625,20.249 28.437,20.145 28.34,19.963 C28.195,19.698 28.295,19.367 28.56,19.225 L30.764,18.033 C30.843,17.989 30.933,17.967 31.023,17.967 L36.589,17.967 C36.891,17.967 37.134,18.212 37.134,18.513 C37.134,18.813 36.891,19.058 36.589,19.058 L31.161,19.058 L29.077,20.183 C28.996,20.228 28.907,20.249 28.819,20.249" fill="#77E5ED"/>
    <path d="M24.032,20.249 C23.944,20.249 23.855,20.228 23.773,20.183 L21.69,19.058 L12.979,19.058 C12.678,19.058 12.433,18.813 12.433,18.513 C12.433,18.212 12.678,17.967 12.979,17.967 L21.828,17.967 C21.918,17.967 22.008,17.989 22.087,18.033 L24.291,19.225 C24.557,19.367 24.656,19.698 24.512,19.963 C24.414,20.145 24.226,20.249 24.032,20.249" fill="#77E5ED"/>
    <path d="M26.494,23.397 C26.765,23.397 29.695,21.268 29.695,19.704 C29.695,18.788 28.928,17.99 27.978,17.99 C27.342,17.99 26.788,18.336 26.494,18.851 C26.2,18.336 25.646,17.99 25.01,17.99 C24.06,17.99 23.293,18.788 23.293,19.704 C23.293,21.268 26.222,23.397 26.494,23.397" fill="#77E5ED"/>
    <path d="M37.009,16.789 L37.009,15.789 L13.024,15.789 L13.024,16.789 L37.009,16.789 z" fill="#231F20" opacity="0.5"/>
    <path d="M13.014,34.2 L37.009,34.2 L37.009,15.8 L13.014,15.8 z M38.509,37.2 L11.514,37.2 C10.685,37.2 10.014,36.529 10.014,35.7 L10.014,14.3 C10.014,13.471 10.685,12.8 11.514,12.8 L38.509,12.8 C39.337,12.8 40.009,13.471 40.009,14.3 L40.009,35.7 C40.009,36.529 39.337,37.2 38.509,37.2" fill="#E6E7E8"/>
  </g>
</svg>
