<?xml version="1.0" encoding="UTF-8"?>
<!DOCTYPE svg PUBLIC "-//W3C//DTD SVG 1.1//EN" "http://www.w3.org/Graphics/SVG/1.1/DTD/svg11.dtd">
<svg version="1.1" xmlns="http://www.w3.org/2000/svg" xmlns:xlink="http://www.w3.org/1999/xlink" x="0" y="0" width="50.001" height="50" viewBox="0, 0, 50.001, 50">
  <g id="Layer_1">
    <path d="M50.001,25 C50.001,38.807 38.808,50 25.001,50 C11.193,50 0.001,38.807 0.001,25 C0.001,11.193 11.193,0 25.001,0 C38.808,0 50.001,11.193 50.001,25" fill="#75C1AE"/>
    <path d="M50,25 C50,38.811 38.811,50 25,50 C11.19,50 0,38.811 0,25 C0,24.83 0,24.67 0.011,24.5 C0.271,38.08 11.36,49 25,49 C38.641,49 49.73,38.08 49.99,24.5 C50,24.67 50,24.83 50,25" fill="#61A191"/>
    <path d="M25.005,39.801 C26.391,39.801 41.345,28.938 41.345,20.951 C41.345,16.276 37.425,12.201 32.585,12.201 C29.335,12.201 26.505,13.971 25.005,16.601 C23.505,13.971 20.675,12.201 17.425,12.201 C12.585,12.201 8.665,16.276 8.665,20.951 C8.665,28.938 23.62,39.801 25.005,39.801" fill="#E74C3C"/>
    <path d="M41.341,21.951 C41.341,29.941 26.391,40.801 25,40.801 C23.62,40.801 8.66,29.941 8.66,21.951 C8.66,21.78 8.67,21.61 8.681,21.43 C9.25,29.361 23.651,39.801 25,39.801 C26.361,39.801 40.761,29.361 41.32,21.43 C41.33,21.61 41.341,21.78 41.341,21.951" fill="#61A191"/>
    <path d="M49.99,25.5 C50.001,25.186 49.998,25.333 50,25.058 L50,24.994 C49.555,10.585 39.188,0.716 25,0 C11.19,0 0,11.191 0,25 C0.002,25.333 -0.002,25.167 0.01,25.5 C0.712,11.304 11.011,1.698 25,1 C39.201,1.427 49.024,11.524 49.99,25.5 z" fill="#F1F2F2" opacity="0.3"/>
  </g>
</svg>
