<?xml version="1.0" encoding="UTF-8"?>
<!DOCTYPE svg PUBLIC "-//W3C//DTD SVG 1.1//EN" "http://www.w3.org/Graphics/SVG/1.1/DTD/svg11.dtd">
<svg version="1.1" xmlns="http://www.w3.org/2000/svg" xmlns:xlink="http://www.w3.org/1999/xlink" x="0" y="0" width="50.004" height="50" viewBox="0, 0, 50.004, 50">
  <g id="Layer_1">
    <path d="M50.004,25 C50.004,38.807 38.811,50 25.004,50 C11.196,50 0.004,38.807 0.004,25 C0.004,11.193 11.196,0 25.004,0 C38.811,0 50.004,11.193 50.004,25" fill="#AF7AC4"/>
    <path d="M50,25 C50,38.811 38.811,50 25,50 C11.2,50 0,38.811 0,25 C0,24.83 0,24.67 0.01,24.5 C0.271,38.08 11.37,49 25,49 C38.64,49 49.73,38.08 49.99,24.5 C50,24.67 50,24.83 50,25" fill="#906698"/>
    <path d="M49.99,25.5 C50.001,25.18 49.998,25.333 50,25.038 L50,24.996 C49.556,10.59 39.193,0.717 25.006,0 L24.994,0 C10.585,0.444 0.716,10.812 0,25 C0,25.17 0,25.33 0.01,25.5 C0.271,11.92 11.36,1 25,1 C38.64,1 49.73,11.92 49.99,25.5 z" fill="#F1F2F2" opacity="0.3"/>
    <path d="M23.263,25.465 L25.565,24.392 L31.735,37.623 L30.105,40.138 z" fill="#E74C3C"/>
    <path d="M39.56,35.732 L36.57,35.362 L32.56,26.762 L32.419,26.462 L30.4,22.132 L32.719,21.062 L34.099,24.022 L34.469,24.812 z" fill="#E74C3C"/>
    <path d="M30.403,22.135 L36.573,35.366 L33.448,34.982 L31.734,37.623 L25.564,24.392 z" fill="#FFFFFF"/>
    <path d="M26.744,25.465 L24.442,24.392 L18.272,37.623 L19.902,40.138 z" fill="#E74C3C"/>
    <path d="M19.599,22.133 L17.579,26.452 L17.579,26.463 L17.44,26.753 L17.44,26.763 L13.429,35.362 L10.45,35.733 L15.539,24.813 L15.91,24.032 L17.289,21.063 z" fill="#E74C3C"/>
    <path d="M19.604,22.135 L13.434,35.366 L16.559,34.982 L18.273,37.623 L24.443,24.392 z" fill="#FFFFFF"/>
    <path d="M25,7.307 L27.963,10.028 L31.96,9.569 L32.756,13.512 L36.262,15.487 L34.585,19.146 L36.262,22.805 L32.755,24.78 L31.96,28.723 L27.963,28.264 L25,30.985 L22.036,28.264 L18.039,28.723 L17.245,24.78 L13.737,22.805 L15.415,19.146 L13.737,15.487 L17.243,13.512 L18.039,9.569 L22.036,10.028 z" fill="#DDAA5F"/>
    <path d="M32.284,19.145 C32.284,23.168 29.023,26.429 25,26.429 C20.976,26.429 17.715,23.168 17.715,19.145 C17.715,15.122 20.976,11.861 25,11.861 C29.023,11.861 32.284,15.122 32.284,19.145" fill="#EFC695"/>
    <path d="M17.249,24.782 L17.579,26.452 L17.579,26.463 L17.439,26.753 L17.249,25.782 L15.539,24.812 L15.909,24.032 z" fill="#BE3D2F"/>
    <path d="M24.419,30.452 L24.099,31.152 L22.129,29.343 L22.459,28.642 z" fill="#BE3D2F"/>
    <path d="M27.549,28.643 L27.879,29.343 L25.909,31.143 L25.579,30.443 z" fill="#BE3D2F"/>
    <path d="M34.469,24.812 L32.759,25.782 L32.56,26.762 L32.419,26.462 L32.759,24.782 L34.099,24.022 z" fill="#BE3D2F"/>
    <path d="M18.043,29.722 L22.039,29.263 L22.129,29.343 L22.459,28.643 L22.039,28.263 L18.039,28.723 L17.579,26.463 L17.579,26.463 L17.44,26.752 L17.44,26.765 L18.039,29.722 L18.043,29.722 z" fill="#2C3E50" opacity="0.2"/>
    <path d="M31.959,29.722 L32.56,26.763 L32.419,26.463 L32.419,26.463 L31.959,28.723 L27.959,28.263 L27.549,28.642 L27.549,28.643 L27.879,29.343 L27.959,29.263 L31.955,29.722 L31.959,29.722 z" fill="#2C3E50" opacity="0.2"/>
    <path d="M15.19,19.643 L13.74,16.483 L14.099,16.273 L15.419,19.143 z" fill="#906698"/>
    <path d="M15.539,24.822 L13.739,23.802 L14.099,23.012 L15.909,24.032 L15.539,24.812 z" fill="#906698"/>
    <path d="M34.469,24.812 L34.099,24.022 L35.9,23.002 L36.259,23.802 z" fill="#906698"/>
    <path d="M34.819,19.643 L34.589,19.143 L35.899,16.283 L36.258,16.483 z" fill="#906698"/>
    <path d="M39.56,36.732 L36.57,36.362 L33.45,35.982 L31.74,38.622 L30.11,41.142 L25.589,31.442 L24.999,31.982 L24.419,31.452 L19.9,41.142 L18.27,38.622 L16.56,35.982 L13.429,36.362 L10.45,36.732 L10.94,35.672 L13.429,35.362 L16.56,34.982 L18.27,37.622 L19.9,40.142 L24.419,30.452 L24.999,30.982 L25.589,30.442 L30.11,40.142 L31.74,37.622 L33.45,34.982 L36.57,35.362 L39.07,35.672 z" fill="#906698"/>
  </g>
</svg>
