<?xml version="1.0" encoding="UTF-8"?>
<!DOCTYPE svg PUBLIC "-//W3C//DTD SVG 1.1//EN" "http://www.w3.org/Graphics/SVG/1.1/DTD/svg11.dtd">
<svg version="1.1" xmlns="http://www.w3.org/2000/svg" xmlns:xlink="http://www.w3.org/1999/xlink" x="0" y="0" width="50.002" height="50" viewBox="0, 0, 50.002, 50">
  <g id="Layer_1">
    <path d="M50,25 C50,38.807 38.807,50 25,50 C11.193,50 0.001,38.807 0.001,25 C0.001,11.193 11.193,0 25,0 C38.807,0 50,11.193 50,25" fill="#E74C3C"/>
    <path d="M50.002,25 C50.002,38.811 38.803,50 25.002,50 C11.193,50 0.003,38.811 0.003,25 C0.003,24.83 0.003,24.67 0.014,24.5 C0.273,38.08 11.363,49 25.002,49 C38.633,49 49.732,38.08 49.992,24.5 C50.002,24.67 50.002,24.83 50.002,25" fill="#BE3D2F"/>
    <path d="M49.99,25.5 C50.001,25.186 49.998,25.333 50,25.058 L50,24.994 C49.556,10.584 39.189,0.716 25,0 C11.19,0 0,11.19 0,25 C0.002,25.333 -0.002,25.167 0.01,25.5 C0.712,11.304 11.011,1.698 25,1 C39.201,1.427 49.024,11.524 49.99,25.5 z" fill="#F1F2F2" opacity="0.3"/>
    <path d="M32.993,26.367 L34.624,26.367 C35.613,26.367 36.418,25.562 36.418,24.573 L36.418,17.07 C36.418,16.081 35.613,15.276 34.624,15.276 L24.675,15.276 L24.675,9.248 L24.675,7.61 L24.675,7.365 C24.675,7.254 24.585,7.164 24.474,7.164 L22.591,7.164 C22.48,7.164 22.39,7.254 22.39,7.365 L22.39,7.61 L22.39,9.248 L22.39,15.765 C22.39,16.755 23.196,17.559 24.185,17.559 L34.135,17.559 L34.135,24.084 L33.482,24.084 L33.482,20.007 C33.482,19.017 32.677,18.212 31.688,18.212 L30.057,18.212 C29.068,18.212 28.263,19.017 28.263,20.007 L28.263,24.084 L27.61,24.084 L27.61,20.007 C27.61,19.017 26.806,18.212 25.816,18.212 L24.185,18.212 C23.196,18.212 22.39,19.017 22.39,20.007 L22.39,27.51 C22.39,28.499 23.196,29.304 24.185,29.304 L25.327,29.304 L25.327,30.445 C25.327,31.433 26.132,32.238 27.121,32.238 L28.752,32.238 C29.741,32.238 30.546,31.433 30.546,30.445 L30.546,29.304 L34.135,29.304 L34.135,29.955 L32.993,29.955 C32.003,29.955 31.199,30.76 31.199,31.748 L31.199,33.379 C31.199,34.369 32.003,35.174 32.993,35.174 L34.135,35.174 L34.135,35.826 L30.546,35.826 L30.546,34.685 C30.546,33.695 29.741,32.89 28.752,32.89 L27.121,32.89 C26.132,32.89 25.327,33.695 25.327,34.685 L25.327,35.826 L24.675,35.826 L24.675,31.748 C24.675,30.76 23.87,29.955 22.881,29.955 L21.249,29.955 C20.26,29.955 19.456,30.76 19.456,31.748 L19.456,35.826 L15.867,35.826 L15.867,35.174 L17.009,35.174 C17.998,35.174 18.803,34.369 18.803,33.379 L18.803,31.748 C18.803,30.76 17.998,29.955 17.009,29.955 L15.867,29.955 L15.867,29.304 L19.944,29.304 C20.933,29.304 21.739,28.499 21.739,27.51 L21.739,25.878 C21.739,24.888 20.933,24.084 19.944,24.084 L15.867,24.084 L15.867,23.431 L19.944,23.431 C20.933,23.431 21.739,22.627 21.739,21.638 L21.739,20.007 C21.739,19.017 20.933,18.212 19.944,18.212 L15.867,18.212 L15.867,17.559 L18.827,17.559 L20.597,17.559 L20.71,17.559 C20.821,17.559 20.91,17.471 20.91,17.359 L20.91,15.476 C20.91,15.365 20.821,15.276 20.71,15.276 L20.597,15.276 L18.827,15.276 L15.378,15.276 C14.389,15.276 13.584,16.081 13.584,17.07 L13.584,18.701 C13.584,19.69 14.389,20.496 15.378,20.496 L19.456,20.496 L19.456,21.148 L15.378,21.148 C14.389,21.148 13.584,21.953 13.584,22.942 L13.584,24.573 C13.584,25.562 14.389,26.367 15.378,26.367 L19.456,26.367 L19.456,27.019 L15.378,27.019 C14.389,27.019 13.584,27.824 13.584,28.813 L13.584,30.445 C13.584,31.433 14.389,32.238 15.378,32.238 L16.519,32.238 L16.519,32.89 L15.378,32.89 C14.389,32.89 13.584,33.695 13.584,34.685 L13.584,36.316 C13.584,37.305 14.389,38.109 15.378,38.109 L19.944,38.109 C20.933,38.109 21.739,37.305 21.739,36.316 L21.739,32.238 L22.39,32.238 L22.39,36.316 C22.39,37.305 23.196,38.109 24.185,38.109 L25.816,38.109 C26.806,38.109 27.61,37.305 27.61,36.316 L27.61,35.174 L28.263,35.174 L28.263,36.316 C28.263,37.305 29.068,38.109 30.057,38.109 L34.624,38.109 C35.613,38.109 36.418,37.305 36.418,36.316 L36.418,34.685 C36.418,33.695 35.613,32.89 34.624,32.89 L33.482,32.89 L33.482,32.238 L34.624,32.238 C35.613,32.238 36.418,31.433 36.418,30.445 L36.418,28.813 C36.418,27.824 35.613,27.019 34.624,27.019 L30.057,27.019 C29.068,27.019 28.263,27.824 28.263,28.813 L28.263,29.955 L27.61,29.955 L27.61,28.813 C27.61,27.824 26.806,27.019 25.816,27.019 L24.675,27.019 L24.675,20.496 L25.327,20.496 L25.327,24.573 C25.327,25.562 26.132,26.367 27.121,26.367 L28.752,26.367 C29.741,26.367 30.546,25.562 30.546,24.573 L30.546,20.496 L31.199,20.496 L31.199,24.573 C31.199,25.562 32.003,26.367 32.993,26.367" fill="#F9CFCD"/>
    <path d="M13.583,31.445 L13.583,30.445 C13.583,31.435 14.393,32.234 15.373,32.234 L16.523,32.234 L16.523,32.894 L15.373,32.894 C15.113,32.894 14.853,32.955 14.633,33.064 C14.013,32.785 13.583,32.166 13.583,31.445" fill="#BE3D2F"/>
    <path d="M17.013,35.176 C17.993,35.176 18.803,34.365 18.803,33.375 L18.803,34.375 C18.803,34.965 18.513,35.496 18.063,35.826 L15.863,35.826 L15.863,35.176 z" fill="#BE3D2F"/>
    <path d="M13.583,19.705 L13.583,18.705 C13.583,19.695 14.393,20.495 15.373,20.495 L19.453,20.495 L19.453,21.145 L15.373,21.145 C15.103,21.145 14.853,21.205 14.623,21.325 C14.013,21.045 13.583,20.426 13.583,19.705" fill="#BE3D2F"/>
    <path d="M13.583,25.575 L13.583,24.575 C13.583,25.565 14.393,26.365 15.373,26.365 L19.453,26.365 L19.453,27.015 L15.373,27.015 C15.103,27.015 14.853,27.075 14.623,27.195 C14.013,26.916 13.583,26.295 13.583,25.575" fill="#BE3D2F"/>
    <path d="M19.943,18.215 L15.863,18.215 L15.863,17.555 L20.713,17.555 C20.823,17.555 20.913,17.465 20.913,17.356 L20.913,18.356 C20.913,18.405 20.893,18.445 20.863,18.475 C20.593,18.305 20.283,18.215 19.943,18.215" fill="#BE3D2F"/>
    <path d="M19.943,23.435 C20.933,23.435 21.743,22.624 21.743,21.634 L21.743,22.634 C21.743,23.355 21.313,23.974 20.703,24.265 C20.473,24.145 20.213,24.085 19.943,24.085 L15.863,24.085 L15.863,23.435 z" fill="#BE3D2F"/>
    <path d="M21.743,27.506 L21.743,28.506 C21.743,29.125 21.433,29.666 20.953,29.985 C20.953,29.985 20.953,29.995 20.943,29.995 C20.683,30.026 20.453,30.125 20.243,30.276 C20.143,30.295 20.043,30.305 19.943,30.305 L18.063,30.305 C17.773,30.086 17.403,29.955 17.013,29.955 L15.863,29.955 L15.863,29.305 L19.943,29.305 C20.933,29.305 21.743,28.495 21.743,27.506" fill="#BE3D2F"/>
    <path d="M21.743,36.314 L21.743,37.314 C21.743,38.304 20.933,39.105 19.943,39.105 L15.373,39.105 C14.393,39.105 13.583,38.304 13.583,37.314 L13.583,36.314 C13.583,37.304 14.393,38.105 15.373,38.105 L19.943,38.105 C20.933,38.105 21.743,37.304 21.743,36.314" fill="#BE3D2F"/>
    <path d="M22.393,33.235 L21.743,33.235 L21.743,32.235 L22.393,32.235 z" fill="#BE3D2F"/>
    <path d="M25.323,21.496 L24.673,21.496 L24.673,20.496 L25.323,20.496 z" fill="#BE3D2F"/>
    <path d="M25.323,29.305 L25.323,30.305 L24.183,30.305 C24.083,30.305 23.983,30.295 23.893,30.276 C23.683,30.125 23.443,30.026 23.173,29.986 C22.703,29.666 22.393,29.116 22.393,28.506 L22.393,27.506 C22.393,28.495 23.193,29.305 24.183,29.305 z" fill="#BE3D2F"/>
    <path d="M27.613,36.314 L27.613,37.314 C27.613,38.304 26.803,39.105 25.813,39.105 L24.183,39.105 C23.193,39.105 22.393,38.304 22.393,37.314 L22.393,36.314 C22.393,37.304 23.193,38.105 24.183,38.105 L25.813,38.105 C26.803,38.105 27.613,37.304 27.613,36.314" fill="#BE3D2F"/>
    <path d="M30.543,24.575 L30.543,25.575 C30.543,26.185 30.233,26.735 29.763,27.045 C29.493,27.086 29.253,27.185 29.043,27.336 C28.953,27.355 28.853,27.365 28.753,27.365 L27.123,27.365 C27.023,27.365 26.923,27.355 26.823,27.336 C26.613,27.185 26.383,27.086 26.123,27.054 C26.113,27.054 26.113,27.045 26.113,27.045 C25.633,26.735 25.323,26.195 25.323,25.575 L25.323,24.575 C25.323,25.565 26.133,26.365 27.123,26.365 L28.753,26.365 C29.743,26.365 30.543,25.565 30.543,24.575" fill="#BE3D2F"/>
    <path d="M30.543,30.445 L30.543,31.445 C30.543,32.166 30.113,32.785 29.503,33.064 C29.273,32.955 29.023,32.894 28.753,32.894 L27.123,32.894 C26.853,32.894 26.603,32.955 26.373,33.064 C25.753,32.785 25.323,32.166 25.323,31.445 L25.323,30.445 C25.323,31.435 26.133,32.234 27.123,32.234 L28.753,32.234 C29.743,32.234 30.543,31.435 30.543,30.445" fill="#BE3D2F"/>
    <path d="M30.543,20.496 L31.203,20.496 L31.203,21.496 L30.543,21.496 z" fill="#BE3D2F"/>
    <path d="M34.133,17.555 L34.133,18.555 L32.733,18.555 C32.443,18.336 32.083,18.215 31.693,18.215 L30.053,18.215 C29.663,18.215 29.303,18.336 29.013,18.555 L26.853,18.555 C26.563,18.336 26.203,18.215 25.813,18.215 L24.183,18.215 C23.913,18.215 23.663,18.276 23.433,18.385 C22.823,18.106 22.393,17.486 22.393,16.766 L22.393,15.766 C22.393,16.756 23.193,17.555 24.183,17.555 z" fill="#BE3D2F"/>
    <path d="M34.133,29.955 L32.993,29.955 C32.603,29.955 32.233,30.086 31.943,30.305 L30.543,30.305 L30.543,29.305 L34.133,29.305 z" fill="#BE3D2F"/>
    <path d="M32.993,35.176 L34.133,35.176 L34.133,35.826 L31.943,35.826 C31.493,35.506 31.203,34.975 31.203,34.375 L31.203,33.375 C31.203,34.365 32.003,35.176 32.993,35.176" fill="#BE3D2F"/>
    <path d="M36.413,24.575 L36.413,25.575 C36.413,26.295 35.993,26.916 35.383,27.195 C35.153,27.075 34.893,27.015 34.623,27.015 L31.943,27.015 C31.493,26.695 31.203,26.176 31.203,25.575 L31.203,24.575 C31.203,25.565 32.003,26.365 32.993,26.365 L34.623,26.365 C35.613,26.365 36.413,25.565 36.413,24.575" fill="#BE3D2F"/>
    <path d="M36.413,30.445 L36.413,31.445 C36.413,32.166 35.983,32.785 35.373,33.064 C35.143,32.955 34.893,32.894 34.623,32.894 L33.483,32.894 L33.483,32.234 L34.623,32.234 C35.613,32.234 36.413,31.435 36.413,30.445" fill="#BE3D2F"/>
    <path d="M36.413,36.314 L36.413,37.314 C36.413,38.304 35.613,39.105 34.623,39.105 L30.053,39.105 C29.063,39.105 28.263,38.304 28.263,37.314 L28.263,36.314 C28.263,37.304 29.063,38.105 30.053,38.105 L34.623,38.105 C35.613,38.105 36.413,37.304 36.413,36.314" fill="#BE3D2F"/>
  </g>
</svg>
