<?xml version="1.0" encoding="UTF-8"?>
<!DOCTYPE svg PUBLIC "-//W3C//DTD SVG 1.1//EN" "http://www.w3.org/Graphics/SVG/1.1/DTD/svg11.dtd">
<svg version="1.1" xmlns="http://www.w3.org/2000/svg" xmlns:xlink="http://www.w3.org/1999/xlink" x="0" y="0" width="50.004" height="50" viewBox="0, 0, 50.004, 50">
  <g id="Layer_1">
    <path d="M50,25 C50,38.807 38.807,50 25,50 C11.192,50 0,38.807 0,25 C0,11.193 11.192,0 25,0 C38.807,0 50,11.193 50,25" fill="#75C1AE"/>
    <path d="M50.004,25 C50.004,38.811 38.805,50 25.004,50 C11.194,50 0.004,38.811 0.004,25 C0.004,24.83 0.004,24.67 0.014,24.5 C0.275,38.08 11.364,49 25.004,49 C38.635,49 49.734,38.08 49.994,24.5 C50.004,24.67 50.004,24.83 50.004,25" fill="#61A191"/>
    <path d="M49.99,25.5 C50.001,25.186 49.998,25.333 50,25.058 L50,24.994 C49.556,10.591 39.193,0.717 25.008,0 L24.992,0 C10.584,0.445 0.716,10.813 0,25 C0,25.17 0,25.33 0.01,25.5 C0.271,11.92 11.361,1 25,1 C38.639,1 49.73,11.92 49.99,25.5 z" fill="#F1F2F2" opacity="0.3"/>
    <path d="M29.821,12.711 C29.821,15.471 27.586,17.707 24.825,17.707 C22.065,17.707 19.83,15.471 19.83,12.711 C19.83,9.951 22.065,7.714 24.825,7.714 C27.586,7.714 29.821,9.951 29.821,12.711" fill="#EAC696"/>
    <path d="M34.846,22.58 L27.495,19.152 C27.385,19.101 27.273,19.064 27.159,19.035 C26.446,18.717 25.658,18.537 24.825,18.537 C23.994,18.537 23.205,18.717 22.492,19.035 C22.379,19.064 22.266,19.101 22.156,19.152 L14.805,22.58 C13.804,23.047 13.37,24.236 13.837,25.236 C14.071,25.738 14.485,26.096 14.966,26.271 C15.447,26.447 15.995,26.437 16.495,26.205 L19.126,24.978 C19.237,25.889 19.557,26.734 20.041,27.463 L17.62,31.408 C17.227,32.051 17.228,32.859 17.622,33.502 L20.622,38.383 C20.999,38.998 21.656,39.336 22.327,39.336 C22.685,39.336 23.046,39.24 23.373,39.039 C24.314,38.461 24.608,37.228 24.03,36.287 L21.672,32.453 L23.29,29.814 C23.78,29.951 24.293,30.029 24.825,30.029 C25.359,30.029 25.871,29.951 26.361,29.814 L27.979,32.453 L25.622,36.287 C25.043,37.228 25.337,38.461 26.279,39.039 C26.605,39.24 26.967,39.336 27.324,39.336 C27.995,39.336 28.652,38.998 29.03,38.383 L32.03,33.502 C32.424,32.859 32.424,32.051 32.031,31.408 L29.611,27.463 C30.095,26.734 30.414,25.889 30.525,24.978 L33.156,26.205 C33.656,26.437 34.204,26.447 34.685,26.271 C35.166,26.096 35.58,25.738 35.814,25.236 C36.281,24.236 35.847,23.047 34.846,22.58" fill="#EAC696"/>
    <path d="M30.987,24.283 C30.987,27.687 28.23,30.445 24.825,30.445 C21.421,30.445 18.664,27.687 18.664,24.283 z" fill="#FFFFFF"/>
    <path d="M29.824,13.715 C29.824,16.165 28.064,18.195 25.744,18.615 L25.734,18.615 C25.444,18.565 25.135,18.535 24.824,18.535 C24.514,18.535 24.204,18.565 23.914,18.615 L23.904,18.615 C21.584,18.195 19.834,16.165 19.834,13.715 C19.834,13.545 19.845,13.385 19.864,13.225 C20.114,15.745 22.234,17.705 24.824,17.705 C27.414,17.705 29.545,15.745 29.795,13.225 C29.814,13.385 29.824,13.545 29.824,13.715" fill="#61A191"/>
    <path d="M18.734,26.164 L16.494,27.205 C15.994,27.435 15.444,27.445 14.964,27.275 C14.484,27.096 14.074,26.734 13.834,26.234 C13.634,25.795 13.604,25.324 13.724,24.894 C13.744,25.016 13.784,25.125 13.834,25.234 C14.074,25.734 14.484,26.096 14.964,26.275 C15.444,26.445 15.994,26.435 16.494,26.205 L18.734,25.164 C18.874,26.154 19.255,27.064 19.804,27.846 L19.494,28.355 C19.114,27.695 18.844,26.955 18.734,26.164" fill="#61A191"/>
    <path d="M24.255,37.855 C24.465,38.685 24.135,39.574 23.374,40.035 C23.045,40.234 22.685,40.335 22.324,40.335 C21.654,40.335 20.994,39.994 20.624,39.384 L17.624,34.505 C17.334,34.035 17.255,33.474 17.395,32.955 C17.435,33.144 17.515,33.334 17.624,33.505 L20.624,38.384 C20.994,38.994 21.654,39.335 22.324,39.335 C22.685,39.335 23.045,39.234 23.374,39.035 C23.824,38.765 24.124,38.324 24.255,37.855" fill="#61A191"/>
    <path d="M26.584,31.186 C26.034,31.356 25.435,31.446 24.824,31.446 C24.215,31.446 23.624,31.356 23.064,31.186 L21.984,32.956 L21.675,32.456 L23.064,30.186 C23.624,30.356 24.215,30.446 24.824,30.446 C25.435,30.446 26.034,30.356 26.584,30.186 L27.975,32.456 L27.664,32.956 z" fill="#61A191"/>
    <path d="M32.255,32.936 C32.395,33.465 32.324,34.026 32.025,34.506 L29.025,39.385 C28.654,39.995 27.994,40.336 27.324,40.336 C26.965,40.336 26.605,40.235 26.275,40.036 C25.515,39.575 25.185,38.686 25.395,37.856 C25.525,38.325 25.824,38.766 26.275,39.036 C26.605,39.235 26.965,39.336 27.324,39.336 C27.994,39.336 28.654,38.995 29.025,38.385 L32.025,33.506 C32.135,33.325 32.215,33.135 32.255,32.936" fill="#61A191"/>
    <path d="M35.814,26.234 C35.584,26.734 35.164,27.095 34.684,27.275 C34.204,27.445 33.654,27.435 33.154,27.205 L30.914,26.164 C30.804,26.955 30.544,27.695 30.154,28.355 L29.844,27.845 C30.404,27.064 30.774,26.154 30.914,25.164 L33.154,26.205 C33.654,26.435 34.204,26.445 34.684,26.275 C35.164,26.095 35.584,25.734 35.814,25.234 C35.864,25.125 35.914,25.004 35.934,24.884 C36.054,25.314 36.024,25.795 35.814,26.234" fill="#61A191"/>
    <path d="M27.124,31.064 C28.435,30.625 29.575,29.804 30.405,28.753 L29.845,27.845 C29.065,28.955 27.925,29.794 26.584,30.185 L27.124,31.064 z M22.525,31.064 L23.065,30.185 C21.735,29.794 20.595,28.955 19.805,27.855 L19.244,28.765 C20.084,29.814 21.225,30.625 22.525,31.064 z" fill="#231F20" opacity="0.5"/>
    <path d="M22.324,39.336 C22.685,39.336 23.045,39.234 23.374,39.035 C24.314,38.465 24.604,37.224 24.024,36.285 L21.675,32.455 L22.524,31.064 L23.064,30.185 C21.711,29.826 20.685,28.893 19.805,27.855 L19.805,27.855 L19.244,28.765 L17.624,31.404 C17.225,32.055 17.225,32.865 17.624,33.506 L20.624,38.385 C20.994,38.994 21.654,39.336 22.324,39.336 z" fill="#231F20" opacity="0.5"/>
    <path d="M32.024,33.506 L29.024,38.385 C28.654,38.994 27.994,39.336 27.324,39.336 C26.964,39.336 26.604,39.235 26.274,39.035 C25.334,38.465 25.045,37.225 25.624,36.285 L27.974,32.455 L27.124,31.065 L26.584,30.186 C27.924,29.795 29.064,28.955 29.844,27.846 L30.404,28.754 L32.034,31.404 C32.424,32.055 32.424,32.865 32.024,33.506" fill="#231F20" opacity="0.5"/>
  </g>
</svg>
