<?xml version="1.0" encoding="UTF-8"?>
<!DOCTYPE svg PUBLIC "-//W3C//DTD SVG 1.1//EN" "http://www.w3.org/Graphics/SVG/1.1/DTD/svg11.dtd">
<svg version="1.1" xmlns="http://www.w3.org/2000/svg" xmlns:xlink="http://www.w3.org/1999/xlink" x="0" y="0" width="50.004" height="50" viewBox="0, 0, 50.004, 50">
  <g id="Layer_1">
    <path d="M50.004,25 C50.004,38.807 38.811,50 25.004,50 C11.196,50 0.004,38.807 0.004,25 C0.004,11.193 11.196,0 25.004,0 C38.811,0 50.004,11.193 50.004,25" fill="#AF7AC4"/>
    <path d="M50,25 C50,38.811 38.811,50 25,50 C11.2,50 0,38.811 0,25 C0,24.83 0,24.67 0.01,24.5 C0.271,38.08 11.37,49 25,49 C38.64,49 49.73,38.08 49.99,24.5 C50,24.67 50,24.83 50,25" fill="#906698"/>
    <path d="M30.018,8.994 C28.213,8.994 27.962,12.008 27.962,13.455 L27.962,13.744 C27.962,14.221 27.682,14.609 27.34,14.609 C26.997,14.609 26.718,14.221 26.718,13.744 L26.718,11.473 C26.718,11.232 26.524,11.039 26.285,11.039 L23.724,11.039 C23.485,11.039 23.29,11.232 23.29,11.473 L23.29,13.744 C23.29,14.221 23.011,14.609 22.668,14.609 C22.327,14.609 22.046,14.221 22.046,13.744 L22.046,13.455 C22.046,12.008 21.795,8.994 19.991,8.994 C14.077,8.994 9.638,17.238 9.638,34.49 C9.638,41.633 22.046,36.144 22.046,30.81 L22.046,20.453 L22.046,18.613 C22.046,18.139 22.436,17.748 22.913,17.748 L27.096,17.748 C27.573,17.748 27.962,18.139 27.962,18.613 L27.962,20.453 L27.962,30.81 C27.962,36.144 40.371,41.633 40.371,34.49 C40.371,17.238 35.931,8.994 30.018,8.994" fill="#F9CFCD"/>
    <path d="M23.724,10.633 L26.285,10.633 C26.524,10.633 26.718,10.44 26.718,10.201 L26.718,9.307 C26.718,9.069 26.524,8.875 26.285,8.875 L23.724,8.875 C23.485,8.875 23.29,9.069 23.29,9.307 L23.29,10.201 C23.29,10.44 23.485,10.633 23.724,10.633" fill="#F9CFCD"/>
    <path d="M23.724,8.469 L26.285,8.469 C26.524,8.469 26.718,8.276 26.718,8.035 L26.718,7.143 C26.718,6.905 26.524,6.711 26.285,6.711 L23.724,6.711 C23.485,6.711 23.29,6.905 23.29,7.143 L23.29,8.035 C23.29,8.276 23.485,8.469 23.724,8.469" fill="#F9CFCD"/>
    <path d="M22.043,30.814 L22.043,31.814 C22.043,37.142 9.634,42.632 9.634,35.494 C9.634,35.193 9.634,34.904 9.644,34.613 C9.773,41.574 22.043,36.113 22.043,30.814" fill="#906698"/>
    <path d="M27.963,19.613 C27.963,19.133 27.573,18.754 27.094,18.754 L22.913,18.754 C22.434,18.754 22.043,19.133 22.043,19.613 L22.043,18.613 C22.043,18.133 22.434,17.754 22.913,17.754 L27.094,17.754 C27.573,17.754 27.963,18.133 27.963,18.613 z" fill="#906698"/>
    <path d="M40.373,35.494 C40.373,42.633 27.963,37.142 27.963,31.814 L27.963,30.814 C27.963,36.113 40.233,41.574 40.363,34.613 C40.373,34.904 40.373,35.193 40.373,35.494" fill="#906698"/>
    <path d="M26.713,10.303 L26.713,11.203 C26.713,11.254 26.703,11.293 26.693,11.334 C26.634,11.164 26.474,11.043 26.283,11.043 L23.724,11.043 C23.533,11.043 23.373,11.164 23.314,11.334 C23.304,11.293 23.293,11.254 23.293,11.203 L23.293,10.303 C23.293,10.283 23.293,10.264 23.304,10.254 C23.323,10.473 23.503,10.633 23.724,10.633 L26.283,10.633 C26.503,10.633 26.684,10.473 26.703,10.254 C26.713,10.264 26.713,10.283 26.713,10.303" fill="#906698"/>
    <path d="M26.713,8.143 L26.713,9.034 C26.713,9.084 26.703,9.133 26.693,9.174 C26.644,8.995 26.474,8.873 26.283,8.873 L23.724,8.873 C23.533,8.873 23.363,8.995 23.314,9.174 C23.304,9.133 23.293,9.084 23.293,9.034 L23.293,8.143 C23.293,8.123 23.293,8.104 23.304,8.094 C23.323,8.303 23.503,8.473 23.724,8.473 L26.283,8.473 C26.503,8.473 26.684,8.303 26.703,8.094 C26.713,8.104 26.713,8.123 26.713,8.143" fill="#906698"/>
    <path d="M49.99,25.5 C50.001,25.186 49.998,25.333 50,25.058 L50,24.994 C49.556,10.593 39.194,0.717 25.01,0.001 L24.99,0.001 C10.583,0.445 0.716,10.815 0,25 C0,25.17 0,25.33 0.01,25.5 C0.271,11.92 11.36,1 25,1 C38.64,1 49.73,11.92 49.99,25.5 z" fill="#F1F2F2" opacity="0.3"/>
  </g>
</svg>
