<?xml version="1.0" encoding="UTF-8"?>
<!DOCTYPE svg PUBLIC "-//W3C//DTD SVG 1.1//EN" "http://www.w3.org/Graphics/SVG/1.1/DTD/svg11.dtd">
<svg version="1.1" xmlns="http://www.w3.org/2000/svg" xmlns:xlink="http://www.w3.org/1999/xlink" x="0" y="0" width="50.001" height="50" viewBox="0, 0, 50.001, 50">
  <g id="Layer_1">
    <path d="M50.001,25 C50.001,38.807 38.808,50 25.001,50 C11.192,50 0,38.807 0,25 C0,11.191 11.192,0 25.001,0 C38.808,0 50.001,11.191 50.001,25" fill="#DDAA5F"/>
    <path d="M34.566,38.902 C34.816,39.392 34.57,39.793 34.021,39.793 L15.983,39.793 C15.434,39.793 15.188,39.392 15.438,38.902 L18.529,32.849 C18.779,32.359 19.434,31.959 19.983,31.959 L30.021,31.959 C30.57,31.959 31.225,32.359 31.475,32.849 z" fill="#E6E7E8"/>
    <path d="M25,18.153 C28.025,18.153 30.486,20.615 30.486,23.639 C30.486,26.665 28.025,29.127 25,29.127 C21.976,29.127 19.514,26.665 19.514,23.639 C19.514,20.615 21.976,18.153 25,18.153" fill="#ABAFB4"/>
    <path d="M50.001,25 C50.001,38.809 38.812,50 25.001,50 C11.19,50 0,38.809 0,25 C0,24.83 0,24.67 0.01,24.5 C0.271,38.08 11.36,49 25.001,49 C38.64,49 49.731,38.08 49.991,24.5 C50.001,24.67 50.001,24.83 50.001,25" fill="#B78D4D"/>
    <path d="M49.99,25.5 C50.001,25.33 50.001,25.17 50.001,25 C50.001,11.189 38.811,0 25.001,0 C10.592,0.443 0.716,10.805 0,24.996 L0,25.042 C0.002,25.333 -0.001,25.181 0.01,25.5 C0.271,11.92 11.36,1 25.001,1 C38.64,1 49.73,11.92 49.99,25.5 z" fill="#F1F2F2" opacity="0.3"/>
    <path d="M25,9.207 C17.029,9.207 10.568,15.669 10.568,23.64 C10.568,31.611 17.029,38.072 25,38.072 C32.972,38.072 39.433,31.611 39.433,23.64 C39.433,15.669 32.972,9.207 25,9.207 M25,12.785 C30.986,12.785 35.854,17.654 35.854,23.64 C35.854,29.625 30.986,34.494 25,34.494 C19.015,34.494 14.146,29.625 14.146,23.64 C14.146,17.654 19.015,12.785 25,12.785" fill="#FFFFFF"/>
    <path d="M25,12.189 C18.677,12.189 13.55,17.316 13.55,23.639 C13.55,29.963 18.677,35.089 25,35.089 C31.324,35.089 36.451,29.963 36.451,23.639 C36.451,17.316 31.324,12.189 25,12.189 M25,18.153 C28.025,18.153 30.486,20.615 30.486,23.639 C30.486,26.665 28.025,29.126 25,29.126 C21.976,29.126 19.514,26.665 19.514,23.639 C19.514,20.615 21.976,18.153 25,18.153" fill="#E6E7E8"/>
    <path d="M22.869,28.728 L28.133,28.728" fill-opacity="0" stroke="#EAC696" stroke-width="2" stroke-linecap="round"/>
    <path d="M27.181,26.973 C27.181,28.176 26.205,29.153 25.001,29.153 C23.797,29.153 22.821,28.176 22.821,26.973 C22.821,25.768 23.797,24.792 25.001,24.792 C26.205,24.792 27.181,25.768 27.181,26.973" fill="#8B5E3C"/>
    <path d="M29.498,29.393 L29.498,39.592 C29.498,39.703 29.408,39.793 29.298,39.793 L20.708,39.793 C20.598,39.793 20.508,39.703 20.508,39.592 L20.508,29.393 C20.778,29.243 21.088,29.153 21.428,29.153 L28.578,29.153 C28.908,29.153 29.218,29.243 29.498,29.393" fill="#75C1AE"/>
    <path d="M30.487,31.062 C30.487,31.782 30.087,32.412 29.497,32.722 C29.217,32.893 28.907,32.972 28.577,32.972 L21.427,32.972 C21.087,32.972 20.777,32.882 20.507,32.732 C19.917,32.412 19.517,31.782 19.517,31.062 C19.517,30.532 19.727,30.062 20.077,29.712 C20.197,29.591 20.347,29.483 20.507,29.392 C20.777,29.243 21.087,29.153 21.427,29.153 L28.577,29.153 C28.907,29.153 29.217,29.243 29.497,29.392 C30.087,29.712 30.487,30.341 30.487,31.062" fill="#FFFFFF"/>
    <path d="M10.579,24.101 C10.569,24.281 10.569,24.461 10.569,24.641 C10.569,29.511 12.989,33.821 16.699,36.421 L17.079,35.691 C13.279,33.191 10.729,28.951 10.579,24.101 M34.569,39.901 L34.449,39.671 C34.339,39.751 34.199,39.79 34.019,39.79 L15.979,39.79 C15.809,39.79 15.669,39.751 15.559,39.671 L15.439,39.901 C15.189,40.391 15.439,40.79 15.979,40.79 L34.019,40.79 C34.569,40.79 34.819,40.391 34.569,39.901 M39.419,24.101 C39.269,28.951 36.729,33.191 32.929,35.691 L33.309,36.421 C37.019,33.821 39.429,29.511 39.429,24.641 C39.429,24.461 39.429,24.281 39.419,24.101" fill="#B78D4D"/>
  </g>
</svg>
