<?xml version="1.0" encoding="UTF-8"?>
<!DOCTYPE svg PUBLIC "-//W3C//DTD SVG 1.1//EN" "http://www.w3.org/Graphics/SVG/1.1/DTD/svg11.dtd">
<svg version="1.1" xmlns="http://www.w3.org/2000/svg" xmlns:xlink="http://www.w3.org/1999/xlink" x="0" y="0" width="50.001" height="50" viewBox="0, 0, 50.001, 50">
  <g id="Layer_1">
    <path d="M50.001,25 C50.001,38.807 38.808,50 25.001,50 C11.192,50 0,38.807 0,25 C0,11.191 11.192,0 25.001,0 C38.808,0 50.001,11.191 50.001,25" fill="#DDAA5F"/>
    <path d="M50.001,25 C50.001,38.809 38.812,50 25.001,50 C11.19,50 0,38.809 0,25 C0,24.83 0,24.67 0.01,24.5 C0.271,38.08 11.36,49 25.001,49 C38.64,49 49.731,38.08 49.991,24.5 C50.001,24.67 50.001,24.83 50.001,25" fill="#B78D4D"/>
    <path d="M49.99,25.5 C50.001,25.33 50.001,25.17 50.001,25 C49.558,10.596 39.199,0.717 25.011,0 L24.991,0 C10.586,0.445 0.716,10.811 0,24.996 L0,25.042 C0.002,25.333 -0.001,25.181 0.01,25.5 C0.271,11.92 11.36,1 25.001,1 C38.64,1 49.73,11.92 49.99,25.5 z" fill="#F1F2F2" opacity="0.3"/>
    <path d="M38.498,35.699 L11.503,35.699 L11.503,14.299 L38.498,14.299 z" fill="#34495E"/>
    <path d="M25.665,31.649 C25.451,31.649 25.26,31.512 25.191,31.309 L21.824,21.383 L19.97,26.667 C19.899,26.866 19.71,27.001 19.498,27.001 L11.503,27.001 L11.503,26.001 L19.144,26.001 L21.36,19.684 C21.43,19.485 21.619,19.35 21.832,19.35 L21.833,19.35 C22.047,19.352 22.236,19.487 22.305,19.69 L25.634,29.501 L27.352,23.725 C27.414,23.52 27.599,23.376 27.813,23.368 C28.042,23.35 28.223,23.491 28.299,23.69 L29.176,26.001 L37.832,26.001 L37.832,27.001 L28.832,27.001 C28.624,27.001 28.438,26.872 28.364,26.678 L27.889,25.426 L26.144,31.292 C26.082,31.501 25.892,31.645 25.674,31.649 z" fill="#77E5ED"/>
    <path d="M31.248,19.199 L34.915,19.199" fill-opacity="0" stroke="#77E5ED" stroke-width="1" stroke-linecap="round" stroke-linejoin="round"/>
    <path d="M13.003,34.2 L36.998,34.2 L36.998,15.8 L13.003,15.8 z M38.498,37.2 L11.503,37.2 C10.674,37.2 10.003,36.528 10.003,35.7 L10.003,14.299 C10.003,13.471 10.674,12.799 11.503,12.799 L38.498,12.799 C39.326,12.799 39.998,13.471 39.998,14.299 L39.998,35.7 C39.998,36.528 39.326,37.2 38.498,37.2" fill="#E6E7E8"/>
    <path d="M38.498,37.199 L11.498,37.199 C10.678,37.199 9.998,36.529 9.998,35.699 L9.998,36.699 C9.998,37.529 10.678,38.199 11.498,38.199 L38.498,38.199 C39.328,38.199 39.998,37.529 39.998,36.699 L39.998,35.699 C39.998,36.529 39.328,37.199 38.498,37.199" fill="#B78D4D"/>
    <path d="M19.373,11.324 L15.623,11.324 L15.623,12.799 L19.373,12.799 z" fill="#34495E"/>
    <path d="M36.993,16.825 L13.008,16.825 L13.008,15.825 L36.993,15.825 z" fill="#231F20" opacity="0.5"/>
  </g>
</svg>
