<?xml version="1.0" encoding="UTF-8"?>
<!DOCTYPE svg PUBLIC "-//W3C//DTD SVG 1.1//EN" "http://www.w3.org/Graphics/SVG/1.1/DTD/svg11.dtd">
<svg version="1.1" xmlns="http://www.w3.org/2000/svg" xmlns:xlink="http://www.w3.org/1999/xlink" x="0" y="0" width="50.001" height="50" viewBox="0, 0, 50.001, 50">
  <g id="Layer_1">
    <path d="M50.001,25 C50.001,38.807 38.808,50 25.001,50 C11.192,50 0,38.807 0,25 C0,11.191 11.192,0 25.001,0 C38.808,0 50.001,11.191 50.001,25" fill="#AF7AC4"/>
    <path d="M50.001,25 C50.001,38.809 38.812,50 25.001,50 C11.19,50 0,38.809 0,25 C0,24.83 0,24.67 0.01,24.5 C0.271,38.08 11.36,49 25.001,49 C38.64,49 49.731,38.08 49.991,24.5 C50.001,24.67 50.001,24.83 50.001,25" fill="#906698"/>
    <path d="M49.99,25.5 C50.002,25.185 49.999,25.333 50.001,25.054 L50.001,24.994 C49.557,10.591 39.194,0.717 25.009,0 L24.993,0 C10.584,0.445 0.716,10.812 0,25 C0,25.17 0,25.33 0.01,25.5 C0.271,11.92 11.36,1 25.001,1 C38.64,1 49.73,11.92 49.99,25.5 z" fill="#F1F2F2" opacity="0.3"/>
    <path d="M19.426,22.633 C19.426,21.905 18.837,21.317 18.111,21.317 C17.383,21.317 16.795,21.905 16.795,22.633 L16.795,24.845 C16.795,25.572 17.383,26.16 18.111,26.16 C18.837,26.16 19.426,25.572 19.426,24.845 z" fill="#EAC696"/>
    <path d="M11.556,25.338 C10.797,25.338 10.183,25.952 10.183,26.711 C10.183,27.18 10.418,27.593 10.778,27.84 C10.418,28.088 10.183,28.501 10.183,28.971 C10.183,29.44 10.418,29.852 10.778,30.1 C10.418,30.348 10.183,30.762 10.183,31.231 C10.183,31.699 10.418,32.111 10.778,32.359 C10.418,32.608 10.183,33.022 10.183,33.49 C10.183,34.248 10.797,34.863 11.556,34.863 L14.646,34.863 L14.646,25.338 z" fill="#EAC696"/>
    <path d="M36.878,19.207 L36.878,29.617 C36.878,32.797 34.308,35.367 31.128,35.367 L15.328,35.367 C14.778,35.367 14.328,34.916 14.328,34.367 L14.328,25.836 C14.328,25.287 14.778,24.836 15.328,24.836 L26.348,24.836 L26.348,19.207 C26.348,18.656 26.798,18.207 27.348,18.207 L35.878,18.207 C36.428,18.207 36.878,18.656 36.878,19.207" fill="#FFFFFF"/>
    <path d="M35.406,15.246 C35.959,15.246 36.406,15.693 36.406,16.246 L36.406,18.705 C36.406,19.258 35.959,19.705 35.406,19.705 L27.881,19.705 C27.328,19.705 26.881,19.258 26.881,18.705 L26.881,16.246 C26.881,15.693 27.328,15.246 27.881,15.246 z" fill="#EAC696"/>
    <path d="M10.328,32.855 C10.238,32.666 10.178,32.457 10.178,32.226 C10.178,32.046 10.208,31.886 10.267,31.726 C10.378,31.986 10.557,32.207 10.778,32.355 C10.588,32.486 10.438,32.656 10.328,32.855" fill="#906698"/>
    <path d="M10.328,30.596 C10.238,30.407 10.178,30.198 10.178,29.967 C10.178,29.787 10.208,29.627 10.267,29.467 C10.378,29.727 10.557,29.948 10.778,30.096 C10.588,30.227 10.438,30.397 10.328,30.596" fill="#906698"/>
    <path d="M10.328,28.336 C10.238,28.147 10.178,27.937 10.178,27.707 C10.178,27.537 10.208,27.367 10.278,27.217 C10.378,27.477 10.557,27.687 10.778,27.836 C10.588,27.967 10.438,28.137 10.328,28.336" fill="#906698"/>
    <path d="M36.878,29.617 L36.878,30.617 C36.878,33.797 34.308,36.367 31.128,36.367 L15.328,36.367 C14.958,36.367 14.658,36.156 14.479,35.867 L11.558,35.867 C10.798,35.867 10.178,35.246 10.178,34.486 C10.178,34.306 10.218,34.137 10.268,33.976 C10.468,34.496 10.968,34.867 11.558,34.867 L14.479,34.867 C14.658,35.156 14.958,35.367 15.328,35.367 L31.128,35.367 C34.308,35.367 36.878,32.797 36.878,29.617" fill="#906698"/>
    <path d="M14.646,34.863 L13.395,34.863 L13.395,25.338 L14.646,25.338 z" fill="#231F20"/>
    <path d="M35.408,19.707 C36.005,19.686 36.3,19.239 36.408,18.71 L36.408,17.71 C36.386,18.307 35.938,18.599 35.408,18.707 L27.878,18.707 C27.28,18.686 26.986,18.238 26.878,17.707 L26.878,17.707 L26.878,18.707 C26.878,19.256 27.328,19.707 27.878,19.707 L35.408,19.707 z" fill="#231F20"/>
  </g>
</svg>
