<?xml version="1.0" encoding="UTF-8"?>
<!DOCTYPE svg PUBLIC "-//W3C//DTD SVG 1.1//EN" "http://www.w3.org/Graphics/SVG/1.1/DTD/svg11.dtd">
<svg version="1.1" xmlns="http://www.w3.org/2000/svg" xmlns:xlink="http://www.w3.org/1999/xlink" x="0" y="0" width="50.001" height="50" viewBox="0, 0, 50.001, 50">
  <g id="Layer_1">
    <path d="M49.999,25 C49.999,38.807 38.806,50 25,50 C11.192,50 0,38.807 0,25 C0,11.193 11.192,0 25,0 C38.806,0 49.999,11.193 49.999,25" fill="#DDAA5F"/>
    <path d="M50.001,25 C50.001,38.811 38.802,50 25.002,50 C11.192,50 0.002,38.811 0.002,25 C0.002,24.83 0.002,24.67 0.013,24.5 C0.272,38.08 11.362,49 25.002,49 C38.632,49 49.731,38.08 49.991,24.5 C50.001,24.67 50.001,24.83 50.001,25" fill="#B78D4D"/>
    <path d="M42.239,20.31 C42.239,24.241 34.029,29.191 31.26,29.831 C29.779,30.17 28.279,30.571 26.8,31 C26.739,31.02 26.679,31.031 26.63,31.04 C25.849,31.161 26.099,30.31 26.099,30.31 L29.739,18 C29.92,17.401 30.33,17.321 30.54,17.321 C30.62,17.321 30.67,17.331 30.67,17.331 C31.96,17.54 33.37,17.68 35.069,17.68 C38.2,17.68 42.239,18.34 42.239,20.31" fill="#A03D35"/>
    <path d="M28.729,17.88 L25.109,30.12 C24.719,31.441 23.929,31.84 23.739,31.91 C23.709,31.93 23.7,31.93 23.7,31.93 C18.269,33.611 13.54,35.32 11.45,35.32 C9.929,35.32 7.759,31.21 7.759,24.68 C7.759,16.96 15.04,15.68 18.479,15.68 C23.04,15.68 25.7,16.32 28.309,16.88 C28.359,16.89 28.419,16.901 28.469,16.91 C28.479,16.91 28.489,16.92 28.489,16.92 C28.669,16.981 28.929,17.2 28.719,17.87 z" fill="#A03D35"/>
    <path d="M28.72,18.87 L28.73,18.88 L25.11,31.12 C24.72,32.44 23.93,32.84 23.74,32.91 C23.71,32.93 23.7,32.93 23.7,32.93 C18.27,34.611 13.54,36.32 11.45,36.32 C9.93,36.32 7.76,32.21 7.76,25.68 C7.76,25.55 7.76,25.43 7.77,25.309 C7.9,31.47 9.98,35.32 11.45,35.32 C13.54,35.32 18.27,33.611 23.7,31.93 C23.7,31.93 23.71,31.93 23.74,31.91 C23.93,31.84 24.72,31.44 25.11,30.12 L28.68,18.05 C28.79,18.19 28.86,18.43 28.72,18.87" fill="#B78D4D"/>
    <path d="M42.239,21.31 C42.239,25.241 34.029,30.191 31.26,30.831 C29.779,31.17 28.279,31.571 26.8,32 C26.739,32.02 26.679,32.031 26.63,32.04 C25.849,32.161 26.099,31.31 26.099,31.31 L26.2,30.96 C26.279,31.031 26.42,31.071 26.63,31.04 C26.679,31.031 26.739,31.02 26.8,31 C28.279,30.571 29.779,30.17 31.26,29.831 C33.889,29.22 41.429,24.731 42.179,20.911 C42.219,21.04 42.239,21.17 42.239,21.31" fill="#B78D4D"/>
    <path d="M49.99,25.5 C50.001,25.186 49.998,25.333 50,25.058 L50,24.994 C49.556,10.584 39.189,0.716 25,0 C11.19,0 0,11.19 0,25 C0.002,25.333 -0.002,25.167 0.01,25.5 C0.712,11.304 11.011,1.698 25,1 C39.201,1.427 49.024,11.524 49.99,25.5 z" fill="#F1F2F2" opacity="0.3"/>
  </g>
</svg>
