<?xml version="1.0" encoding="UTF-8"?>
<!DOCTYPE svg PUBLIC "-//W3C//DTD SVG 1.1//EN" "http://www.w3.org/Graphics/SVG/1.1/DTD/svg11.dtd">
<svg version="1.1" xmlns="http://www.w3.org/2000/svg" xmlns:xlink="http://www.w3.org/1999/xlink" x="0" y="0" width="50.002" height="49.999" viewBox="0, 0, 50.002, 49.999">
  <g id="Layer_1">
    <path d="M0.002,25 C0.002,38.806 11.195,49.999 25.002,49.999 C38.809,49.999 50.001,38.806 50.001,25 C50.001,11.193 38.809,0 25.002,0 C11.195,0 0.002,11.193 0.002,25" fill="#76CADD"/>
    <path d="M0,25 C0,38.81 11.199,49.999 25,49.999 C38.809,49.999 49.999,38.81 49.999,25 C49.999,24.83 49.999,24.67 49.988,24.5 C49.729,38.079 38.639,48.999 25,48.999 C11.369,48.999 0.27,38.079 0.01,24.5 C0,24.67 0,24.83 0,25" fill="#79ACBA"/>
    <path d="M49.992,25.5 C50.004,25.167 50,25.333 50.002,25 C50.002,11.19 38.812,0 25.002,0 C10.593,0.443 0.718,10.805 0.002,24.996 L0.002,25.042 C0.004,25.333 0.001,25.181 0.012,25.5 C0.713,11.304 11.014,1.698 25.002,1 C39.204,1.427 49.025,11.524 49.992,25.5 z" fill="#F1F2F2" opacity="0.3"/>
    <path d="M24.137,36.409 L24.137,42.539 C24.137,42.784 24.33,42.985 24.583,42.985 L25.923,42.985 C26.169,42.985 26.369,42.784 26.369,42.539 L26.369,36.409 z" fill="#EAC696"/>
    <path d="M32.068,20.354 L33.303,22.214 C33.51,22.073 38.243,18.88 38.823,13.451 C38.852,13.205 38.868,12.958 38.876,12.707 L38.876,12.699 C38.831,12.498 38.644,12.349 38.436,12.349 L37.067,12.349 C36.866,12.349 36.688,12.49 36.643,12.676 C36.643,12.781 36.635,12.884 36.621,12.981 C36.263,17.527 32.113,20.324 32.068,20.354" fill="#EAC696"/>
    <path d="M18.428,20.354 L17.193,22.214 C16.986,22.073 12.253,18.88 11.673,13.451 C11.644,13.205 11.628,12.958 11.62,12.707 L11.62,12.699 C11.665,12.498 11.852,12.349 12.06,12.349 L13.429,12.349 C13.63,12.349 13.808,12.49 13.853,12.676 C13.853,12.781 13.861,12.884 13.875,12.981 C14.233,17.527 18.383,20.324 18.428,20.354" fill="#EAC696"/>
    <path d="M25.252,37.837 C27.299,37.837 35.419,29.933 35.419,24.456 C35.419,18.98 30.867,17.265 25.252,17.265 L25.253,17.265 C19.637,17.265 15.086,18.98 15.086,24.456 C15.086,29.933 23.206,37.837 25.253,37.837" fill="#E74C3C"/>
    <path d="M25.255,37.837 C29.462,36.575 32.908,31.249 34.717,27.548 L15.782,27.548 C17.179,30.557 21.717,37.238 25.251,37.837 L25.255,37.837 z" fill="#EAC696" opacity="0.5"/>
    <path d="M24.139,37.442 L24.139,42.542 C24.139,42.782 24.328,42.982 24.578,42.982 L25.918,42.982 C26.168,42.982 26.368,42.782 26.368,42.542 L26.368,37.442 C25.909,37.702 25.529,37.842 25.248,37.842 C24.979,37.842 24.599,37.702 24.139,37.442" fill="#EAC696"/>
    <path d="M25.248,38.842 C25.529,38.842 25.909,38.702 26.368,38.432 L26.368,37.443 L26.367,37.443 C25.589,37.812 25.967,37.693 25.248,37.842 C24.539,37.692 24.913,37.81 24.139,37.443 L24.139,37.443 L24.139,38.442 C24.599,38.702 24.979,38.842 25.248,38.842 z" fill="#231F20" opacity="0.5"/>
    <path d="M25.253,17.265 L25.253,17.265 L25.252,17.265 z" fill="#79ACBA"/>
    <path d="M25.252,37.837 L25.253,37.837 z" fill="#79ACBA"/>
    <path d="M34.658,21.112 C34.778,21.333 34.888,21.572 34.978,21.812 C36.469,20.362 38.469,17.852 38.818,14.452 C38.848,14.202 38.868,13.962 38.878,13.702 C38.868,13.642 38.838,13.592 38.808,13.551 C38.398,17.152 36.158,19.742 34.658,21.112 M26.368,37.442 L26.368,38.432 C29.328,36.762 35.418,30.202 35.418,25.452 C35.418,25.272 35.408,25.092 35.398,24.913 C35.038,29.612 29.238,35.812 26.368,37.442 M24.138,42.542 L24.138,43.542 C24.138,43.782 24.328,43.982 24.578,43.982 L25.918,43.982 C26.168,43.982 26.368,43.782 26.368,43.542 L26.368,42.542 C26.368,42.782 26.168,42.982 25.918,42.982 L24.578,42.982 C24.328,42.982 24.138,42.782 24.138,42.542 M15.088,25.452 C15.088,30.202 21.168,36.762 24.138,38.432 L24.138,37.442 C21.259,35.812 15.469,29.612 15.108,24.913 C15.098,25.092 15.088,25.272 15.088,25.452 M11.618,13.702 C11.628,13.962 11.648,14.202 11.668,14.452 C12.038,17.862 14.038,20.382 15.528,21.833 C15.618,21.583 15.719,21.342 15.838,21.122 C14.338,19.753 12.108,17.152 11.688,13.551 C11.658,13.592 11.628,13.642 11.618,13.702" fill="#79ACBA"/>
    <path d="M25.253,18.265 L25.253,18.265 L25.252,18.265 z" fill="#79ACBA"/>
    <path d="M25.252,38.837 L25.253,38.837 z" fill="#79ACBA"/>
  </g>
</svg>
