<?xml version="1.0" encoding="UTF-8"?>
<!DOCTYPE svg PUBLIC "-//W3C//DTD SVG 1.1//EN" "http://www.w3.org/Graphics/SVG/1.1/DTD/svg11.dtd">
<svg version="1.1" xmlns="http://www.w3.org/2000/svg" xmlns:xlink="http://www.w3.org/1999/xlink" x="0" y="0" width="50.001" height="50" viewBox="0, 0, 50.001, 50">
  <g id="Layer_1">
    <path d="M49.999,25 C49.999,38.807 38.806,50 25,50 C11.192,50 0,38.807 0,25 C0,11.193 11.192,0 25,0 C38.806,0 49.999,11.193 49.999,25" fill="#DDAA5F"/>
    <path d="M29.067,17.398 C29.067,17.508 28.978,17.598 28.867,17.598 L26.955,17.598 C26.844,17.598 26.754,17.508 26.754,17.398 L26.754,12.104 C26.754,11.994 26.844,11.904 26.955,11.904 L28.867,11.904 C28.978,11.904 29.067,11.994 29.067,12.104 z" fill="#54B0C6"/>
    <path d="M32.578,17.85 C32.578,17.96 32.489,18.05 32.378,18.05 L30.466,18.05 C30.355,18.05 30.265,17.96 30.265,17.85 L30.265,12.556 C30.265,12.446 30.355,12.356 30.466,12.356 L32.378,12.356 C32.489,12.356 32.578,12.446 32.578,12.556 z" fill="#E74C3C"/>
    <path d="M50.001,25 C50.001,38.811 38.802,50 25.002,50 C11.192,50 0.002,38.811 0.002,25 C0.002,24.83 0.002,24.67 0.013,24.5 C0.272,38.08 11.362,49 25.002,49 C38.632,49 49.731,38.08 49.991,24.5 C50.001,24.67 50.001,24.83 50.001,25" fill="#B78D4D"/>
    <path d="M42.239,20.31 C42.239,24.241 34.029,29.191 31.26,29.831 C29.779,30.17 28.279,30.571 26.8,31 C26.739,31.02 26.679,31.031 26.63,31.04 C25.849,31.161 26.099,30.31 26.099,30.31 L29.739,18 C29.92,17.401 30.33,17.321 30.54,17.321 C30.62,17.321 30.67,17.331 30.67,17.331 C31.96,17.54 33.37,17.68 35.069,17.68 C38.2,17.68 42.239,18.34 42.239,20.31" fill="#A03D35"/>
    <path d="M28.729,17.88 L25.109,30.12 C24.719,31.441 23.929,31.84 23.739,31.91 C23.709,31.93 23.7,31.93 23.7,31.93 C18.269,33.611 13.54,35.32 11.45,35.32 C9.929,35.32 7.759,31.21 7.759,24.68 C7.759,16.96 15.04,15.68 18.479,15.68 C23.04,15.68 25.7,16.32 28.309,16.88 C28.359,16.89 28.419,16.901 28.469,16.91 C28.479,16.91 28.489,16.92 28.489,16.92 C28.669,16.981 28.929,17.2 28.719,17.87 z" fill="#A03D35"/>
    <path d="M28.72,18.87 L28.73,18.88 L25.11,31.12 C24.72,32.44 23.93,32.84 23.74,32.91 C23.71,32.93 23.7,32.93 23.7,32.93 C18.27,34.611 13.54,36.32 11.45,36.32 C9.93,36.32 7.76,32.21 7.76,25.68 C7.76,25.55 7.76,25.43 7.77,25.309 C7.9,31.47 9.98,35.32 11.45,35.32 C13.54,35.32 18.27,33.611 23.7,31.93 C23.7,31.93 23.71,31.93 23.74,31.91 C23.93,31.84 24.72,31.44 25.11,30.12 L28.68,18.05 C28.79,18.19 28.86,18.43 28.72,18.87" fill="#B78D4D"/>
    <path d="M42.239,21.31 C42.239,25.241 34.029,30.191 31.26,30.831 C29.779,31.17 28.279,31.571 26.8,32 C26.739,32.02 26.679,32.031 26.63,32.04 C25.849,32.161 26.099,31.31 26.099,31.31 L26.2,30.96 C26.279,31.031 26.42,31.071 26.63,31.04 C26.679,31.031 26.739,31.02 26.8,31 C28.279,30.571 29.779,30.17 31.26,29.831 C33.889,29.22 41.429,24.731 42.179,20.911 C42.219,21.04 42.239,21.17 42.239,21.31" fill="#B78D4D"/>
    <path d="M49.99,25.5 C50,25.33 50,25.17 50,25 C49.557,10.589 39.194,0.717 25.002,0 L24.998,0 C10.59,0.444 0.716,10.807 0,24.996 L0,25.042 C0.002,25.333 -0.001,25.181 0.01,25.5 C0.271,11.92 11.36,1 25,1 C38.639,1 49.73,11.92 49.99,25.5 z" fill="#F1F2F2" opacity="0.3"/>
    <path d="M30.561,17.312 C30.351,17.312 29.941,17.392 29.761,17.992 L26.121,30.302 C26.121,30.302 25.871,31.152 26.651,31.032 L23.761,31.902 C23.951,31.832 24.741,31.432 25.131,30.112 L28.751,17.872 L28.741,17.862 C28.951,17.192 28.691,16.972 28.511,16.912 z" fill="#EFC695"/>
  </g>
</svg>
