<?xml version="1.0" encoding="UTF-8"?>
<!DOCTYPE svg PUBLIC "-//W3C//DTD SVG 1.1//EN" "http://www.w3.org/Graphics/SVG/1.1/DTD/svg11.dtd">
<svg version="1.1" xmlns="http://www.w3.org/2000/svg" xmlns:xlink="http://www.w3.org/1999/xlink" x="0" y="0" width="50.002" height="50" viewBox="0, 0, 50.002, 50">
  <g id="Layer_1">
    <path d="M50.002,25 C50.002,38.807 38.809,50 25.002,50 C11.193,50 0,38.807 0,25 C0,11.192 11.193,0 25.002,0 C38.809,0 50.002,11.192 50.002,25" fill="#E74C3C"/>
    <path d="M50.002,25 C50.002,38.81 38.813,50 25.002,50 C11.191,50 0,38.81 0,25 C0,24.83 0,24.67 0.01,24.5 C0.272,38.08 11.361,49 25.002,49 C38.641,49 49.732,38.08 49.992,24.5 C50.002,24.67 50.002,24.83 50.002,25" fill="#BE3D2F"/>
    <path d="M49.99,25.5 C50.003,25.183 50,25.333 50.002,25.05 L50.002,24.994 C49.561,10.631 39.219,0.718 25.058,0.003 L24.947,0.003 C10.559,0.454 0.714,10.845 0,25 C0,25.17 0,25.33 0.01,25.5 C0.271,11.92 11.361,1 25.002,1 C38.641,1 49.73,11.92 49.99,25.5 z" fill="#F1F2F2" opacity="0.3"/>
    <path d="M21.7,41.776 C21.7,43.602 23.179,45.081 25.003,45.081 C26.827,45.081 28.307,43.602 28.307,41.776 L28.307,32.917 L21.7,32.917 z" fill="#EAC696"/>
    <path d="M32.474,26.671 C32.474,30.797 29.128,34.141 25.003,34.141 C20.878,34.141 17.534,30.797 17.534,26.671 C17.534,22.546 20.878,19.202 25.003,19.202 C29.128,19.202 32.474,22.546 32.474,26.671" fill="#EAC696"/>
    <path d="M30.242,21.119 C30.242,24.012 27.895,26.358 25.003,26.358 C22.109,26.358 19.763,24.012 19.763,21.119 C19.763,18.225 22.109,15.88 25.003,15.88 C27.895,15.88 30.242,18.225 30.242,21.119" fill="#EAC696"/>
    <path d="M29.255,10.171 C29.255,12.521 27.353,14.424 25.003,14.424 C22.653,14.424 20.751,12.521 20.751,10.171 C20.751,7.822 22.653,5.918 25.003,5.918 C27.353,5.918 29.255,7.822 29.255,10.171" fill="#EAC696"/>
    <path d="M38.503,20.923 L11.503,20.923 C10.399,20.923 9.503,20.027 9.503,18.923 C9.503,17.819 10.399,16.923 11.503,16.923 L38.503,16.923 C39.607,16.923 40.503,17.819 40.503,18.923 C40.503,20.027 39.607,20.923 38.503,20.923" fill="#EAC696"/>
    <path d="M22.939,12.02 C22.939,10.88 23.863,9.955 25.003,9.955 C26.144,9.955 27.068,10.88 27.068,12.02 z" fill="#8B5E3C"/>
    <path d="M35.82,33.259 L14.182,33.259 L14.182,16.106 L35.82,16.106 z" fill="#34495E"/>
    <path d="M14.682,32.759 L35.32,32.759 L35.32,16.606 L14.682,16.606 z M35.82,33.759 L14.182,33.759 C13.906,33.759 13.682,33.535 13.682,33.259 L13.682,16.106 C13.682,15.829 13.906,15.606 14.182,15.606 L35.82,15.606 C36.096,15.606 36.32,15.829 36.32,16.106 L36.32,33.259 C36.32,33.535 36.096,33.759 35.82,33.759" fill="#E6E7E8"/>
    <path d="M24.998,30.907 C24.172,30.907 23.498,30.395 23.498,29.759 C23.498,29.333 23.951,28.989 23.951,28.989 C24.115,28.865 24.34,28.902 24.449,29.078 C24.449,29.078 24.736,29.534 24.998,29.534 C25.264,29.534 25.553,29.078 25.553,29.078 C25.66,28.902 25.885,28.865 26.045,28.989 C26.045,28.989 26.502,29.333 26.502,29.759 C26.502,30.395 25.828,30.907 24.998,30.907 M27.883,26.673 C25.953,26.673 26.215,28.345 24.998,28.345 C23.783,28.345 24.049,26.673 22.119,26.673 C20.902,26.673 20.578,27.847 20.578,28.532 C20.578,28.786 20.641,29.063 20.746,29.351 C20.812,29.336 20.881,29.333 20.947,29.333 C21.482,29.333 21.949,29.691 22.088,30.208 C22.172,30.515 22.129,30.832 21.973,31.109 C21.957,31.136 21.943,31.161 21.92,31.184 C22.484,31.805 23.102,32.25 23.498,32.25 C24.332,32.25 24.287,31.348 24.998,31.348 C25.713,31.348 25.664,32.25 26.502,32.25 C26.842,32.25 27.344,31.921 27.842,31.431 C27.732,31.344 27.639,31.237 27.564,31.109 C27.408,30.832 27.363,30.515 27.445,30.208 C27.584,29.691 28.055,29.333 28.59,29.333 C28.693,29.333 28.795,29.344 28.896,29.373 C29.002,29.4 29.102,29.445 29.191,29.497 C29.338,29.16 29.424,28.827 29.424,28.532 C29.424,27.847 29.098,26.673 27.883,26.673" fill="#77E5ED"/>
    <path d="M20.748,19.423 L15.684,19.423 C15.407,19.423 15.184,19.199 15.184,18.923 C15.184,18.647 15.407,18.423 15.684,18.423 L20.748,18.423 C21.024,18.423 21.248,18.647 21.248,18.923 C21.248,19.199 21.024,19.423 20.748,19.423" fill="#77E5ED"/>
    <path d="M34.318,19.423 L29.252,19.423 C28.975,19.423 28.752,19.199 28.752,18.923 C28.752,18.647 28.975,18.423 29.252,18.423 L34.318,18.423 C34.594,18.423 34.818,18.647 34.818,18.923 C34.818,19.199 34.594,19.423 34.318,19.423" fill="#77E5ED"/>
    <path d="M25,27.681 C24.724,27.681 24.5,27.457 24.5,27.181 L24.5,24.682 C24.5,24.406 24.724,24.182 25,24.182 C25.276,24.182 25.5,24.406 25.5,24.682 L25.5,27.181 C25.5,27.457 25.276,27.681 25,27.681" fill="#77E5ED"/>
    <path d="M27.632,24.042 L25.661,24.042 C25.385,24.042 25.161,23.818 25.161,23.542 C25.161,23.266 25.385,23.042 25.661,23.042 L27.632,23.042 C27.908,23.042 28.132,23.266 28.132,23.542 C28.132,23.818 27.908,24.042 27.632,24.042" fill="#77E5ED"/>
    <path d="M28.203,22.5 L25.661,22.5 C25.385,22.5 25.161,22.276 25.161,22 C25.161,21.724 25.385,21.5 25.661,21.5 L28.203,21.5 C28.479,21.5 28.703,21.724 28.703,22 C28.703,22.276 28.479,22.5 28.203,22.5" fill="#77E5ED"/>
    <path d="M27.994,20.958 L25.661,20.958 C25.385,20.958 25.161,20.734 25.161,20.458 C25.161,20.182 25.385,19.958 25.661,19.958 L27.994,19.958 C28.27,19.958 28.494,20.182 28.494,20.458 C28.494,20.734 28.27,20.958 27.994,20.958" fill="#77E5ED"/>
    <path d="M27.632,19.416 L25.661,19.416 C25.385,19.416 25.161,19.192 25.161,18.916 C25.161,18.64 25.385,18.416 25.661,18.416 L27.632,18.416 C27.908,18.416 28.132,18.64 28.132,18.916 C28.132,19.192 27.908,19.416 27.632,19.416" fill="#77E5ED"/>
    <path d="M24.34,24.042 L22.369,24.042 C22.093,24.042 21.869,23.818 21.869,23.542 C21.869,23.266 22.093,23.042 22.369,23.042 L24.34,23.042 C24.616,23.042 24.84,23.266 24.84,23.542 C24.84,23.818 24.616,24.042 24.34,24.042" fill="#77E5ED"/>
    <path d="M24.34,22.5 L21.798,22.5 C21.522,22.5 21.298,22.276 21.298,22 C21.298,21.724 21.522,21.5 21.798,21.5 L24.34,21.5 C24.616,21.5 24.84,21.724 24.84,22 C24.84,22.276 24.616,22.5 24.34,22.5" fill="#77E5ED"/>
    <path d="M24.34,20.958 L22.007,20.958 C21.731,20.958 21.507,20.734 21.507,20.458 C21.507,20.182 21.731,19.958 22.007,19.958 L24.34,19.958 C24.616,19.958 24.84,20.182 24.84,20.458 C24.84,20.734 24.616,20.958 24.34,20.958" fill="#77E5ED"/>
    <path d="M24.34,19.416 L22.369,19.416 C22.093,19.416 21.869,19.192 21.869,18.916 C21.869,18.64 22.093,18.416 22.369,18.416 L24.34,18.416 C24.616,18.416 24.84,18.64 24.84,18.916 C24.84,19.192 24.616,19.416 24.34,19.416" fill="#77E5ED"/>
    <path d="M29.256,11.17 C29.256,13.52 27.357,15.42 25.006,15.42 C22.656,15.42 20.746,13.52 20.746,11.17 C20.746,11 20.756,10.84 20.777,10.67 C21.027,12.78 22.826,14.42 25.006,14.42 C27.187,14.42 28.986,12.78 29.227,10.67 C29.246,10.84 29.256,11 29.256,11.17" fill="#BE3D2F"/>
    <path d="M40.437,19.42 C40.216,20.29 39.437,20.92 38.506,20.92 L36.317,20.92 L36.317,21.92 L38.506,21.92 C39.607,21.92 40.506,21.03 40.506,19.92 C40.506,19.75 40.487,19.58 40.437,19.42 M21.697,33.76 L14.187,33.76 C13.907,33.76 13.687,33.54 13.687,33.26 L13.687,34.26 C13.687,34.54 13.907,34.76 14.187,34.76 L21.697,34.76 z M25.006,45.08 C23.176,45.08 21.697,43.6 21.697,41.78 L21.697,42.78 C21.697,44.6 23.176,46.08 25.006,46.08 C26.827,46.08 28.307,44.6 28.307,42.78 L28.307,41.78 C28.307,43.6 26.827,45.08 25.006,45.08 M35.817,33.76 L28.307,33.76 L28.307,34.76 L35.817,34.76 C36.097,34.76 36.317,34.54 36.317,34.26 L36.317,33.26 C36.317,33.54 36.097,33.76 35.817,33.76 M11.506,20.92 C10.577,20.92 9.796,20.29 9.577,19.42 C9.527,19.58 9.506,19.75 9.506,19.92 C9.506,21.03 10.397,21.92 11.506,21.92 L13.687,21.92 L13.687,20.92 z" fill="#BE3D2F"/>
    <path d="M28.307,34.76 L28.307,33.763 L21.697,33.763 L21.697,34.76 L28.307,34.76 z" fill="#231F20"/>
    <path d="M35.288,17.593 L35.288,16.598 L14.712,16.598 L14.712,17.593 L35.288,17.593 z" fill="#231F20" opacity="0.5"/>
  </g>
</svg>
