<?xml version="1.0" encoding="UTF-8"?>
<!DOCTYPE svg PUBLIC "-//W3C//DTD SVG 1.1//EN" "http://www.w3.org/Graphics/SVG/1.1/DTD/svg11.dtd">
<svg version="1.1" xmlns="http://www.w3.org/2000/svg" xmlns:xlink="http://www.w3.org/1999/xlink" x="0" y="0" width="50.001" height="49.999" viewBox="0, 0, 50.001, 49.999">
  <g id="Layer_1">
    <path d="M50.001,25 C50.001,38.806 38.808,49.999 25.001,49.999 C11.192,49.999 0,38.806 0,25 C0,11.191 11.192,0 25.001,0 C38.808,0 50.001,11.191 50.001,25" fill="#76CADD"/>
    <path d="M50.001,25 C50.001,38.81 38.812,49.999 25.001,49.999 C11.19,49.999 0,38.81 0,25 C0,24.83 0,24.67 0.01,24.5 C0.271,38.079 11.36,48.999 25.001,48.999 C38.64,48.999 49.731,38.079 49.991,24.5 C50.001,24.67 50.001,24.83 50.001,25" fill="#79ACBA"/>
    <path d="M49.99,25.499 C50.002,25.185 49.999,25.333 50.001,25.054 L50.001,24.994 C49.557,10.591 39.194,0.717 25.009,0 L24.993,0 C10.584,0.445 0.716,10.812 0,25 C0,25.17 0,25.33 0.01,25.499 C0.271,11.92 11.36,1 25.001,1 C38.64,1 49.73,11.92 49.99,25.499 z" fill="#F1F2F2" opacity="0.3"/>
    <path d="M41.807,25.505 C38.147,30.868 31.987,34.394 25.003,34.394 C18.019,34.394 11.849,30.868 8.189,25.505 C11.849,20.129 18.019,16.604 25.003,16.604 C31.987,16.604 38.147,20.129 41.807,25.505" fill="#FFFFFF"/>
    <path d="M32.443,25.499 C32.443,29.61 29.113,32.95 25.003,32.95 C20.883,32.95 17.553,29.61 17.553,25.499 C17.553,21.391 20.883,18.051 25.003,18.051 C26.393,18.051 27.693,18.43 28.803,19.1 L28.723,19.1 C27.273,19.1 26.093,20.26 26.053,21.699 L26.053,21.779 C26.053,23.25 27.243,24.449 28.723,24.449 L28.793,24.449 C30.243,24.41 31.403,23.23 31.403,21.779 L31.403,21.709 C32.063,22.82 32.443,24.109 32.443,25.499" fill="#C49A6C"/>
    <path d="M28.943,25.499 C28.943,27.679 27.183,29.45 25.003,29.45 C22.823,29.45 21.053,27.679 21.053,25.499 C21.053,23.32 22.823,21.551 25.003,21.551 C25.373,21.551 25.723,21.6 26.053,21.699 L26.053,21.779 C26.053,23.25 27.243,24.449 28.723,24.449 L28.793,24.449 C28.893,24.779 28.943,25.141 28.943,25.499" fill="#34495E"/>
    <path d="M41.803,26.499 C38.143,31.87 31.983,35.39 25.003,35.39 C18.023,35.39 11.853,31.87 8.193,26.499 C8.313,26.329 8.423,26.159 8.563,25.999 C12.243,31.089 18.243,34.39 25.003,34.39 C31.763,34.39 37.753,31.089 41.433,25.999 C41.573,26.159 41.683,26.329 41.803,26.499" fill="#79ACBA"/>
  </g>
</svg>
