<?xml version="1.0" encoding="UTF-8"?>
<!DOCTYPE svg PUBLIC "-//W3C//DTD SVG 1.1//EN" "http://www.w3.org/Graphics/SVG/1.1/DTD/svg11.dtd">
<svg version="1.1" xmlns="http://www.w3.org/2000/svg" xmlns:xlink="http://www.w3.org/1999/xlink" x="0" y="0" width="50.002" height="50" viewBox="0, 0, 50.002, 50">
  <g id="Layer_1">
    <path d="M50.002,25 C50.002,38.807 38.81,50 25.002,50 C11.195,50 0.002,38.807 0.002,25 C0.002,11.193 11.195,0 25.002,0 C38.81,0 50.002,11.193 50.002,25" fill="#34495E"/>
    <path d="M50,25 C50,38.809 38.811,50 25,50 C11.19,50 0,38.809 0,25 C0,24.83 0,24.67 0.01,24.5 C0.271,38.08 11.36,49 25,49 C38.64,49 49.73,38.08 49.99,24.5 C50,24.67 50,24.83 50,25" fill="#253749"/>
    <path d="M49.992,25.5 C50.004,25.167 50,25.333 50.002,25 C50.002,11.189 38.813,0 25.002,0 C10.593,0.443 0.718,10.805 0.002,24.996 L0.002,25.042 C0.004,25.333 0.001,25.181 0.012,25.5 C0.714,11.304 11.013,1.698 25.002,1 C39.203,1.427 49.026,11.524 49.992,25.5 z" fill="#F1F2F2" opacity="0.3"/>
    <path d="M27.4,18.531 L24.709,25.921 L14.152,22.08 L16.843,14.68 C17.902,11.77 21.131,10.264 24.043,11.323 C26.962,12.39 28.467,15.611 27.4,18.531" fill="#E74C3C"/>
    <path d="M14.148,22.076 L11.459,29.469 C10.396,32.384 11.902,35.614 14.817,36.676 C17.734,37.736 20.964,36.231 22.026,33.314 L24.715,25.923 z" fill="#FFFFFF"/>
    <path d="M22.61,31.687 L23.157,30.181 C23.148,30.127 23.139,30.072 23.129,30.017 C23.094,29.716 23.075,29.415 23.075,29.105 C23.075,29.013 23.075,28.931 23.084,28.849 C23.084,28.63 23.102,28.412 23.129,28.193 C23.349,26.231 24.297,24.488 25.684,23.238 L26.022,22.318 L26.022,22.318 C23.835,23.616 22.643,25.744 22.217,28.193 C22.19,28.412 22.172,28.63 22.172,28.849 C22.163,28.931 22.163,29.013 22.163,29.105 C22.163,29.415 22.181,29.716 22.217,30.017 C22.245,30.237 22.281,30.455 22.327,30.674 C22.39,31.02 22.483,31.358 22.61,31.687 z" fill="#231F20"/>
    <path d="M23.13,30.018 C23.14,30.073 23.149,30.127 23.157,30.182 L22.61,31.688 C22.483,31.359 22.391,31.021 22.327,30.675 C22.281,30.455 22.245,30.238 22.218,30.018 C22.182,29.717 22.163,29.415 22.163,29.106 C22.163,29.014 22.163,28.932 22.173,28.85 C22.173,28.631 22.191,28.413 22.218,28.194 C22.327,27.171 22.647,26.204 23.112,25.337 L23.888,25.621 C23.495,26.414 23.231,27.281 23.13,28.194 C23.103,28.413 23.085,28.631 23.085,28.85 C23.075,28.932 23.075,29.014 23.075,29.106 C23.075,29.415 23.094,29.717 23.13,30.018" fill="#E6E7E8"/>
    <path d="M26.022,22.317 L25.684,23.238 C24.946,23.904 24.325,24.716 23.887,25.62 L23.112,25.337 C23.795,24.087 24.799,23.038 26.022,22.317" fill="#BE3D2F"/>
    <path d="M11.689,33.85 C11.042,32.527 10.914,30.957 11.461,29.47 C10.923,30.967 11.051,32.537 11.689,33.85" fill="#FFFFFF"/>
    <path d="M11.689,33.858 C11.881,34.233 12.109,34.588 12.365,34.917 C12.091,34.588 11.873,34.233 11.689,33.858" fill="#FFFFFF"/>
    <path d="M24.718,25.921 L22.027,33.311 C21.817,33.887 21.525,34.406 21.169,34.854 C21.516,34.406 21.807,33.887 22.017,33.311 L24.709,25.921 z" fill="#FFFFFF"/>
    <path d="M38.887,29.106 C38.887,29.416 38.869,29.717 38.832,30.017 C38.805,30.238 38.778,30.456 38.723,30.675 C38.002,34.296 34.809,37.015 30.977,37.015 C27.155,37.015 23.961,34.296 23.241,30.675 C23.195,30.456 23.158,30.238 23.13,30.017 C23.094,29.717 23.075,29.416 23.075,29.106 C23.075,29.014 23.075,28.932 23.085,28.85 C23.085,28.631 23.103,28.413 23.13,28.194 C23.577,24.252 26.926,21.196 30.977,21.196 C35.036,21.196 38.386,24.252 38.832,28.194 C38.86,28.413 38.878,28.631 38.878,28.85 C38.887,28.932 38.887,29.014 38.887,29.106" fill="#FFFFFF"/>
    <path d="M38.887,29.106 C38.887,29.416 38.869,29.717 38.832,30.017 L23.13,30.017 L23.13,28.194 L38.832,28.194 C38.86,28.413 38.878,28.631 38.878,28.85 C38.887,28.932 38.887,29.014 38.887,29.106" fill="#D1D3D4"/>
    <path d="M38.887,29.105 C38.887,29.415 38.869,29.716 38.832,30.017 L23.13,30.017 C23.094,29.716 23.075,29.415 23.075,29.105 C23.075,29.013 23.075,28.931 23.085,28.849 L38.878,28.849 C38.887,28.931 38.887,29.013 38.887,29.105" fill="#E6E7E8"/>
    <path d="M26.21,22.81 C26.03,22.94 25.86,23.081 25.69,23.23 L25.88,22.701 L26.02,22.32 L27.4,18.53 C27.57,18.06 27.67,17.59 27.71,17.121 C27.79,17.911 27.69,18.73 27.4,19.53 z" fill="#253749"/>
    <path d="M38.89,30.109 C38.89,30.42 38.87,30.719 38.83,31.019 C38.8,31.24 38.78,31.46 38.72,31.679 C38,35.299 34.81,38.019 30.98,38.019 C27.15,38.019 23.96,35.299 23.24,31.679 C23.21,31.519 23.18,31.359 23.16,31.2 L22.48,33.08 L22.03,34.309 C21.93,34.569 21.81,34.819 21.69,35.049 C21.66,35.099 21.64,35.139 21.61,35.189 C20.28,37.519 17.42,38.62 14.82,37.679 C13.81,37.309 12.97,36.679 12.35,35.889 C12.35,35.899 12.36,35.91 12.36,35.92 C12.35,35.899 12.34,35.88 12.32,35.859 C12.24,35.75 12.16,35.639 12.08,35.529 C12.03,35.46 11.99,35.389 11.94,35.319 C11.88,35.219 11.83,35.12 11.78,35.019 C11.76,34.979 11.73,34.939 11.72,34.899 C11.71,34.88 11.7,34.87 11.69,34.849 C11.62,34.7 11.56,34.559 11.5,34.41 C11.49,34.38 11.48,34.359 11.47,34.33 C11.42,34.2 11.38,34.08 11.35,33.95 C11.33,33.899 11.31,33.839 11.3,33.79 C11.27,33.689 11.25,33.58 11.23,33.479 C11.22,33.399 11.2,33.319 11.18,33.24 C11.17,33.16 11.17,33.08 11.16,32.99 C11.15,32.889 11.13,32.79 11.13,32.689 C11.12,32.62 11.13,32.54 11.12,32.469 L11.12,32.139 C11.13,32.049 11.14,31.979 11.15,31.889 C11.15,31.92 11.16,31.96 11.16,31.99 C11.17,32.08 11.17,32.16 11.18,32.24 C11.2,32.319 11.22,32.399 11.23,32.479 C11.25,32.58 11.27,32.689 11.3,32.79 C11.31,32.839 11.33,32.899 11.35,32.95 C11.38,33.08 11.42,33.2 11.47,33.33 C11.48,33.359 11.49,33.38 11.5,33.41 C11.56,33.559 11.62,33.7 11.69,33.849 C11.7,33.87 11.71,33.88 11.72,33.899 C11.73,33.939 11.76,33.979 11.78,34.019 C11.83,34.12 11.88,34.219 11.94,34.319 C11.99,34.389 12.03,34.46 12.08,34.529 C12.16,34.639 12.24,34.75 12.32,34.859 C12.34,34.88 12.35,34.899 12.36,34.92 C12.36,34.91 12.35,34.899 12.35,34.889 C12.97,35.679 13.81,36.309 14.82,36.679 C17.42,37.62 20.28,36.519 21.61,34.189 C21.64,34.139 21.66,34.099 21.69,34.049 C21.81,33.819 21.93,33.569 22.03,33.309 L22.48,32.08 L23.16,30.2 C23.18,30.359 23.21,30.519 23.24,30.679 C23.96,34.299 27.15,37.019 30.98,37.019 C34.81,37.019 38,34.299 38.72,30.679 C38.78,30.46 38.8,30.24 38.83,30.019 C38.85,29.87 38.87,29.719 38.87,29.569 C38.88,29.66 38.88,29.759 38.88,29.849 C38.89,29.929 38.89,30.009 38.89,30.109" fill="#253749"/>
  </g>
</svg>
