<?xml version="1.0" encoding="UTF-8"?>
<!DOCTYPE svg PUBLIC "-//W3C//DTD SVG 1.1//EN" "http://www.w3.org/Graphics/SVG/1.1/DTD/svg11.dtd">
<svg version="1.1" xmlns="http://www.w3.org/2000/svg" xmlns:xlink="http://www.w3.org/1999/xlink" x="0" y="0" width="50.001" height="50" viewBox="0, 0, 50.001, 50">
  <g id="Layer_1">
    <path d="M50.001,25 C50.001,38.807 38.808,50 25.001,50 C11.192,50 0,38.807 0,25 C0,11.191 11.192,0 25.001,0 C38.808,0 50.001,11.191 50.001,25" fill="#E74C3C"/>
    <path d="M50.001,25 C50.001,38.809 38.812,50 25.001,50 C11.19,50 0,38.809 0,25 C0,24.83 0,24.67 0.01,24.5 C0.271,38.08 11.36,49 25.001,49 C38.64,49 49.731,38.08 49.991,24.5 C50.001,24.67 50.001,24.83 50.001,25" fill="#BE3D2F"/>
    <path d="M49.99,25.5 C50.003,25.167 49.999,25.333 50.001,25 C50.001,11.189 38.811,0 25.001,0 C10.592,0.443 0.716,10.805 0,24.996 L0,25.042 C0.002,25.333 -0.001,25.181 0.01,25.5 C0.713,11.304 11.012,1.698 25.001,1 C39.202,1.427 49.024,11.525 49.99,25.5 z" fill="#F1F2F2" opacity="0.3"/>
    <path d="M35.15,18.359 C35.716,17.841 36.077,17.103 36.077,16.275 C36.077,15.451 35.718,14.714 35.155,14.197 C35.834,13.574 36.198,12.634 36.04,11.656 C35.791,10.113 34.336,9.062 32.791,9.312 C31.972,9.445 31.3,9.921 30.879,10.566 C30.277,10.088 29.489,9.845 28.67,9.978 C27.851,10.111 27.179,10.588 26.758,11.232 C26.155,10.754 25.367,10.513 24.548,10.646 C24.05,10.726 23.612,10.941 23.244,11.234 C22.824,10.589 22.151,10.111 21.331,9.978 C20.512,9.847 19.724,10.088 19.122,10.566 C18.701,9.921 18.029,9.445 17.21,9.312 C15.666,9.062 14.211,10.113 13.961,11.656 C13.803,12.632 14.167,13.572 14.846,14.195 C14.283,14.714 13.924,15.451 13.924,16.275 C13.924,17.103 14.285,17.841 14.851,18.359 C14.285,18.877 13.924,19.615 13.924,20.441 C13.924,21.269 14.285,22.007 14.851,22.525 C14.285,23.043 13.924,23.781 13.924,24.609 C13.924,25.435 14.285,26.173 14.851,26.691 C14.285,27.209 13.924,27.947 13.924,28.775 C13.924,30.339 15.192,31.607 16.757,31.607 C16.768,31.607 16.779,31.605 16.79,31.605 C17.172,32.656 17.932,33.857 19.423,33.857 C19.7,33.857 19.923,33.634 19.923,33.357 C19.923,33.082 19.7,32.857 19.423,32.857 C18.573,32.857 18.072,32.132 17.784,31.408 C18.839,30.996 19.59,29.976 19.59,28.775 C19.59,27.947 19.229,27.209 18.663,26.691 C19.229,26.173 19.59,25.435 19.59,24.609 C19.59,23.781 19.229,23.043 18.663,22.525 C19.229,22.007 19.59,21.269 19.59,20.441 C19.59,19.615 19.229,18.877 18.663,18.359 C19.229,17.841 19.59,17.103 19.59,16.275 C19.59,15.884 19.51,15.509 19.366,15.171 C19.68,15.369 20.037,15.509 20.426,15.572 C21.243,15.705 22.03,15.464 22.632,14.988 C23.226,15.896 24.313,16.423 25.453,16.238 C26.272,16.105 26.944,15.629 27.365,14.984 C27.967,15.464 28.755,15.705 29.574,15.572 C29.964,15.509 30.321,15.369 30.635,15.17 C30.491,15.509 30.411,15.882 30.411,16.275 C30.411,17.103 30.772,17.841 31.337,18.359 C30.772,18.877 30.411,19.615 30.411,20.441 C30.411,21.269 30.772,22.007 31.337,22.525 C30.772,23.043 30.411,23.781 30.411,24.609 C30.411,25.435 30.772,26.173 31.337,26.691 C30.772,27.209 30.411,27.947 30.411,28.775 C30.411,29.603 30.772,30.339 31.337,30.859 C31.239,30.949 31.151,31.047 31.067,31.148 C30.547,30.519 29.77,30.109 28.89,30.109 C28.135,30.109 27.453,30.408 26.945,30.89 C26.437,30.408 25.755,30.109 25,30.109 C23.436,30.109 22.167,31.377 22.167,32.941 C22.167,33.379 22.275,33.787 22.452,34.158 C22.39,34.382 22.346,34.613 22.346,34.857 C22.346,35.291 22.46,35.693 22.644,36.054 C22.574,36.283 22.525,36.521 22.525,36.773 C22.525,37.203 22.645,37.601 22.837,37.953 C22.757,38.185 22.705,38.431 22.705,38.691 C22.705,39.115 22.828,39.509 23.029,39.849 C22.939,40.086 22.884,40.339 22.884,40.607 C22.884,41.775 23.832,42.724 25,42.724 C26.169,42.724 27.116,41.775 27.116,40.607 C27.116,40.339 27.061,40.086 26.971,39.849 C27.172,39.509 27.296,39.115 27.296,38.691 C27.296,38.431 27.243,38.185 27.163,37.953 C27.356,37.601 27.475,37.203 27.475,36.773 C27.475,36.521 27.426,36.283 27.356,36.054 C27.455,35.861 27.536,35.658 27.585,35.441 C27.977,35.646 28.417,35.773 28.89,35.773 C29.77,35.773 30.547,35.363 31.067,34.734 C31.587,35.363 32.363,35.773 33.244,35.773 C34.808,35.773 36.077,34.505 36.077,32.941 C36.077,32.113 35.716,31.377 35.15,30.859 C35.716,30.339 36.077,29.603 36.077,28.775 C36.077,27.947 35.716,27.209 35.15,26.691 C35.716,26.173 36.077,25.435 36.077,24.609 C36.077,23.781 35.716,23.043 35.15,22.525 C35.716,22.007 36.077,21.269 36.077,20.441 C36.077,19.615 35.716,18.877 35.15,18.359" fill="#EAC696"/>
    <path d="M13.978,25.106 C14.088,25.735 14.408,26.286 14.848,26.696 C14.688,26.846 14.538,27.016 14.418,27.196 C14.108,26.745 13.928,26.196 13.928,25.606 C13.928,25.436 13.948,25.266 13.978,25.106" fill="#BE3D2F"/>
    <path d="M14.848,22.525 C14.688,22.675 14.548,22.845 14.418,23.025 C14.108,22.574 13.928,22.035 13.928,21.445 C13.928,21.275 13.948,21.105 13.978,20.945 C14.088,21.564 14.408,22.115 14.848,22.525" fill="#BE3D2F"/>
    <path d="M14.848,18.356 C14.688,18.506 14.538,18.676 14.418,18.866 C14.108,18.417 13.928,17.866 13.928,17.276 C13.928,17.096 13.948,16.926 13.978,16.756 C14.078,17.385 14.398,17.946 14.848,18.356" fill="#BE3D2F"/>
    <path d="M14.418,14.705 C14.018,14.125 13.838,13.404 13.958,12.654 C13.958,12.635 13.968,12.615 13.968,12.596 C14.078,13.225 14.398,13.785 14.848,14.195 C14.678,14.346 14.538,14.516 14.418,14.705" fill="#BE3D2F"/>
    <path d="M19.928,34.355 C19.928,34.634 19.698,34.855 19.428,34.855 C17.928,34.855 17.168,33.654 16.788,32.605 L16.758,32.605 C15.188,32.605 13.928,31.335 13.928,29.775 C13.928,29.605 13.938,29.445 13.978,29.285 C14.218,30.605 15.368,31.605 16.758,31.605 L16.788,31.605 C17.168,32.654 17.928,33.855 19.428,33.855 C19.698,33.855 19.928,34.084 19.928,34.355" fill="#BE3D2F"/>
    <path d="M18.218,32.195 C18.038,31.955 17.898,31.685 17.788,31.404 C18.678,31.054 19.358,30.265 19.538,29.295 C19.578,29.445 19.588,29.615 19.588,29.775 C19.588,30.804 19.038,31.695 18.218,32.195" fill="#BE3D2F"/>
    <path d="M19.098,27.195 C18.978,27.015 18.828,26.845 18.668,26.695 C19.108,26.285 19.428,25.734 19.538,25.105 C19.568,25.265 19.588,25.435 19.588,25.605 C19.588,26.195 19.408,26.744 19.098,27.195" fill="#BE3D2F"/>
    <path d="M19.098,23.025 C18.968,22.845 18.828,22.675 18.668,22.525 C19.108,22.115 19.428,21.564 19.538,20.945 C19.568,21.105 19.588,21.275 19.588,21.445 C19.588,22.035 19.408,22.574 19.098,23.025" fill="#BE3D2F"/>
    <path d="M19.588,17.275 C19.588,17.865 19.408,18.416 19.098,18.865 C18.978,18.675 18.828,18.505 18.668,18.355 C19.118,17.945 19.438,17.394 19.538,16.765 C19.568,16.935 19.588,17.105 19.588,17.275" fill="#BE3D2F"/>
    <path d="M22.348,34.936 C22.238,34.625 22.168,34.295 22.168,33.946 C22.168,33.766 22.188,33.584 22.218,33.424 C22.258,33.686 22.338,33.926 22.448,34.155 C22.388,34.385 22.348,34.616 22.348,34.856 z" fill="#BE3D2F"/>
    <path d="M22.528,36.795 C22.408,36.504 22.348,36.195 22.348,35.856 C22.348,35.686 22.368,35.525 22.408,35.365 C22.448,35.615 22.538,35.846 22.648,36.055 C22.578,36.285 22.528,36.525 22.528,36.775 z" fill="#BE3D2F"/>
    <path d="M22.708,38.686 C22.598,38.405 22.528,38.096 22.528,37.776 C22.528,37.616 22.548,37.456 22.588,37.295 C22.638,37.526 22.728,37.754 22.838,37.956 C22.758,38.186 22.708,38.426 22.708,38.686" fill="#BE3D2F"/>
    <path d="M22.888,40.564 C22.768,40.294 22.708,40.003 22.708,39.695 C22.708,39.525 22.728,39.355 22.768,39.195 C22.818,39.425 22.908,39.644 23.028,39.855 C22.938,40.074 22.898,40.314 22.888,40.564" fill="#BE3D2F"/>
    <path d="M27.048,41.125 C27.098,41.275 27.118,41.445 27.118,41.605 C27.118,42.775 26.168,43.725 24.998,43.725 C23.828,43.725 22.888,42.775 22.888,41.605 C22.888,41.445 22.908,41.275 22.948,41.125 C23.178,42.045 24.008,42.725 24.998,42.725 C25.988,42.725 26.818,42.045 27.048,41.125" fill="#BE3D2F"/>
    <path d="M27.228,39.205 C27.268,39.355 27.298,39.525 27.298,39.695 C27.298,40.004 27.228,40.295 27.118,40.564 C27.108,40.314 27.058,40.074 26.968,39.855 C27.088,39.654 27.178,39.435 27.228,39.205" fill="#BE3D2F"/>
    <path d="M27.418,37.295 C27.458,37.455 27.478,37.615 27.478,37.775 C27.478,38.096 27.408,38.404 27.298,38.686 C27.298,38.426 27.238,38.186 27.168,37.955 C27.278,37.754 27.368,37.525 27.418,37.295" fill="#BE3D2F"/>
    <path d="M22.628,15.984 C22.028,16.464 21.248,16.705 20.428,16.574 C20.128,16.525 19.848,16.425 19.588,16.295 L19.588,16.275 C19.588,15.884 19.508,15.515 19.368,15.175 C19.678,15.365 20.038,15.505 20.428,15.574 C21.248,15.705 22.028,15.464 22.628,14.984 C23.228,15.894 24.308,16.425 25.448,16.234 C26.268,16.105 26.948,15.625 27.368,14.984 C27.968,15.464 28.758,15.705 29.578,15.574 C29.968,15.505 30.318,15.365 30.638,15.175 C30.488,15.505 30.408,15.884 30.408,16.275 L30.408,16.295 C30.158,16.425 29.878,16.525 29.578,16.574 C28.758,16.705 27.968,16.464 27.368,15.984 C26.948,16.625 26.268,17.105 25.448,17.234 C24.308,17.425 23.228,16.894 22.628,15.984" fill="#BE3D2F"/>
    <path d="M31.338,26.695 C31.168,26.845 31.028,27.015 30.898,27.195 C30.588,26.744 30.408,26.195 30.408,25.605 C30.408,25.435 30.428,25.265 30.458,25.105 C30.568,25.734 30.888,26.285 31.338,26.695" fill="#BE3D2F"/>
    <path d="M31.338,22.525 C31.178,22.675 31.028,22.845 30.908,23.025 C30.588,22.574 30.408,22.035 30.408,21.445 C30.408,21.275 30.428,21.105 30.458,20.945 C30.568,21.564 30.888,22.115 31.338,22.525" fill="#BE3D2F"/>
    <path d="M31.338,18.356 C31.168,18.506 31.028,18.676 30.898,18.866 C30.588,18.417 30.408,17.866 30.408,17.276 C30.408,17.106 30.428,16.926 30.458,16.766 C30.558,17.395 30.888,17.946 31.338,18.356" fill="#BE3D2F"/>
    <path d="M31.338,30.856 C31.238,30.946 31.148,31.045 31.068,31.145 C30.918,30.965 30.738,30.795 30.548,30.667 L30.548,30.655 C30.458,30.376 30.408,30.086 30.408,29.776 C30.408,29.606 30.428,29.436 30.458,29.276 C30.568,29.905 30.888,30.456 31.338,30.856" fill="#BE3D2F"/>
    <path d="M36.028,33.455 C36.068,33.615 36.078,33.775 36.078,33.945 C36.078,35.504 34.808,36.775 33.248,36.775 C32.368,36.775 31.588,36.365 31.068,35.734 C30.548,36.365 29.768,36.775 28.888,36.775 C28.418,36.775 27.978,36.644 27.588,36.445 C27.558,36.555 27.528,36.664 27.478,36.775 C27.478,36.525 27.428,36.285 27.358,36.055 C27.458,35.865 27.538,35.654 27.588,35.445 C27.978,35.644 28.418,35.775 28.888,35.775 C29.768,35.775 30.548,35.365 31.068,34.734 C31.588,35.365 32.368,35.775 33.248,35.775 C34.638,35.775 35.788,34.775 36.028,33.455" fill="#BE3D2F"/>
    <path d="M36.028,29.275 C36.058,29.435 36.078,29.605 36.078,29.775 C36.078,30.365 35.898,30.916 35.588,31.365 C35.458,31.175 35.318,31.005 35.148,30.855 C35.598,30.455 35.918,29.904 36.028,29.275" fill="#BE3D2F"/>
    <path d="M36.028,25.106 C36.058,25.266 36.078,25.436 36.078,25.606 C36.078,26.196 35.898,26.745 35.588,27.196 C35.458,27.016 35.318,26.846 35.148,26.696 C35.598,26.286 35.918,25.735 36.028,25.106" fill="#BE3D2F"/>
    <path d="M36.028,20.945 C36.058,21.105 36.078,21.275 36.078,21.445 C36.078,22.035 35.898,22.574 35.578,23.025 C35.458,22.845 35.308,22.675 35.148,22.525 C35.598,22.115 35.918,21.564 36.028,20.945" fill="#BE3D2F"/>
    <path d="M35.588,18.865 C35.458,18.676 35.318,18.506 35.148,18.355 C35.608,17.945 35.928,17.385 36.028,16.756 C36.058,16.926 36.078,17.095 36.078,17.275 C36.078,17.865 35.898,18.416 35.588,18.865" fill="#BE3D2F"/>
    <path d="M35.588,14.695 C35.458,14.515 35.318,14.345 35.158,14.195 C35.608,13.785 35.918,13.234 36.028,12.615 C36.038,12.625 36.038,12.644 36.038,12.654 C36.158,13.394 35.978,14.115 35.588,14.695" fill="#BE3D2F"/>
    <path d="M25.001,40.379 C24.725,40.379 24.501,40.156 24.501,39.879 L24.501,33.455 C24.501,33.18 24.724,32.957 24.999,32.955 L32.624,32.926 L32.624,12.889 C25.251,15.912 19.444,13.875 17.429,12.945 L17.429,29.275 C17.429,29.551 17.205,29.775 16.929,29.775 C16.652,29.775 16.429,29.551 16.429,29.275 L16.429,12.131 C16.429,11.951 16.525,11.785 16.681,11.695 C16.837,11.608 17.029,11.609 17.183,11.699 C17.251,11.74 24.061,15.647 32.919,11.674 C33.073,11.604 33.252,11.617 33.396,11.711 C33.538,11.803 33.624,11.961 33.624,12.131 L33.624,33.424 C33.624,33.699 33.401,33.924 33.126,33.924 L25.501,33.953 L25.501,39.879 C25.501,40.156 25.277,40.379 25.001,40.379" fill="#DBA66B"/>
  </g>
</svg>
