<?xml version="1.0" encoding="UTF-8"?>
<!DOCTYPE svg PUBLIC "-//W3C//DTD SVG 1.1//EN" "http://www.w3.org/Graphics/SVG/1.1/DTD/svg11.dtd">
<svg version="1.1" xmlns="http://www.w3.org/2000/svg" xmlns:xlink="http://www.w3.org/1999/xlink" x="0" y="0" width="50.001" height="50" viewBox="0, 0, 50.001, 50">
  <g id="Layer_1">
    <path d="M49.999,25 C49.999,38.807 38.806,50 24.999,50 C11.192,50 0,38.807 0,25 C0,11.193 11.192,0 24.999,0 C38.806,0 49.999,11.193 49.999,25" fill="#76CADD"/>
    <path d="M50.001,25 C50.001,38.811 38.802,50 25.001,50 C11.192,50 0.002,38.811 0.002,25 C0.002,24.83 0.002,24.67 0.013,24.5 C0.272,38.081 11.362,49 25.001,49 C38.632,49 49.731,38.081 49.991,24.5 C50.001,24.67 50.001,24.83 50.001,25" fill="#79ACBA"/>
    <path d="M29.865,30.703 C29.865,35.612 25.886,39.588 20.979,39.588 C16.072,39.588 12.094,35.612 12.094,30.703 C12.094,25.795 20.979,17.576 20.979,17.576 C20.979,17.576 29.865,25.795 29.865,30.703" fill="#E74C3C"/>
    <path d="M37.905,16.916 C37.905,20.096 35.327,22.674 32.148,22.674 C28.968,22.674 26.391,20.096 26.391,16.916 C26.391,13.736 32.148,8.412 32.148,8.412 C32.148,8.412 37.905,13.736 37.905,16.916" fill="#E74C3C"/>
    <path d="M29.87,31.704 C29.87,36.614 25.89,40.584 20.98,40.584 C16.07,40.584 12.09,36.614 12.09,31.704 C12.09,31.585 12.1,31.454 12.11,31.324 C12.43,35.944 16.28,39.584 20.98,39.584 C25.68,39.584 29.53,35.944 29.85,31.324 C29.86,31.454 29.87,31.585 29.87,31.704" fill="#79ACBA"/>
    <path d="M37.91,17.914 C37.91,21.095 35.33,23.675 32.15,23.675 C28.97,23.675 26.39,21.095 26.39,17.914 C26.39,17.784 26.4,17.654 26.42,17.515 C26.72,20.414 29.17,22.675 32.15,22.675 C35.13,22.675 37.58,20.414 37.88,17.515 C37.9,17.654 37.91,17.784 37.91,17.914" fill="#79ACBA"/>
    <path d="M49.99,25.5 C50.002,25.18 49.999,25.333 50,25.038 L50,24.996 C49.556,10.585 39.191,0.717 25,0 C11.19,0 0,11.189 0,25 C0.002,25.333 -0.001,25.167 0.01,25.5 C0.713,11.305 11.012,1.698 25,1 C39.202,1.427 49.024,11.524 49.99,25.5 z" fill="#F1F2F2" opacity="0.3"/>
  </g>
</svg>
