<?xml version="1.0" encoding="UTF-8"?>
<!DOCTYPE svg PUBLIC "-//W3C//DTD SVG 1.1//EN" "http://www.w3.org/Graphics/SVG/1.1/DTD/svg11.dtd">
<svg version="1.1" xmlns="http://www.w3.org/2000/svg" xmlns:xlink="http://www.w3.org/1999/xlink" x="0" y="0" width="50.001" height="50" viewBox="0, 0, 50.001, 50">
  <g id="Layer_1">
    <path d="M50.001,25 C50.001,38.807 38.808,50 25.001,50 C11.192,50 0,38.807 0,25 C0,11.193 11.192,0 25.001,0 C38.808,0 50.001,11.193 50.001,25" fill="#DDAA5F"/>
    <path d="M50.001,25 C50.001,38.811 38.812,50 25.001,50 C11.19,50 0,38.811 0,25 C0,24.83 0,24.67 0.01,24.5 C0.271,38.08 11.36,49 25.001,49 C38.64,49 49.731,38.08 49.991,24.5 C50.001,24.67 50.001,24.83 50.001,25" fill="#B78D4D"/>
    <path d="M21.232,35.393 C21.232,35.604 21.404,35.776 21.615,35.776 L22.806,35.776 C23.017,35.776 23.189,35.604 23.189,35.393 L23.234,34.436 C23.302,33.022 23.355,31.614 23.394,30.206 L23.447,28.094 C23.424,27.666 23.424,27.192 23.287,26.709 C23.24,26.473 23.141,26.243 23.034,26.006 C22.943,25.77 22.796,25.555 22.644,25.34 C22.353,24.913 21.948,24.577 21.55,24.301 C21.136,24.041 20.701,23.842 20.281,23.711 C19.851,23.573 19.43,23.489 19.009,23.436 C18.604,23.391 18.26,23.368 17.801,23.383 C17.258,23.383 16.707,23.42 16.157,23.504 C15.613,23.582 15.062,23.704 14.519,23.934 L14.519,25.463 C15.062,25.694 15.613,25.807 16.157,25.891 C16.707,25.969 17.258,26.014 17.801,26.014 L17.847,26.014 L17.909,26.006 C18.1,25.998 18.436,26.006 18.705,26.036 C18.979,26.067 19.254,26.114 19.5,26.198 C19.745,26.266 19.959,26.366 20.15,26.481 C20.318,26.602 20.472,26.717 20.578,26.87 C20.64,26.94 20.701,27.008 20.732,27.108 C20.778,27.192 20.824,27.276 20.846,27.391 C20.923,27.582 20.923,27.827 20.954,28.094 L21.007,30.206 C21.045,31.614 21.099,33.022 21.168,34.436 z" fill="#EAC696"/>
    <path d="M28.77,35.393 C28.77,35.604 28.599,35.776 28.388,35.776 L27.196,35.776 C26.984,35.776 26.814,35.604 26.814,35.393 L26.769,34.436 C26.701,33.022 26.646,31.614 26.609,30.206 L26.554,28.094 C26.578,27.666 26.578,27.192 26.715,26.709 C26.761,26.473 26.861,26.243 26.968,26.006 C27.06,25.77 27.206,25.555 27.359,25.34 C27.648,24.913 28.054,24.577 28.453,24.301 C28.865,24.041 29.301,23.842 29.722,23.711 C30.15,23.573 30.572,23.489 30.992,23.436 C31.398,23.391 31.742,23.368 32.201,23.383 C32.744,23.383 33.294,23.42 33.845,23.504 C34.388,23.582 34.939,23.704 35.482,23.934 L35.482,25.463 C34.939,25.694 34.388,25.807 33.845,25.891 C33.294,25.969 32.744,26.014 32.201,26.014 L32.155,26.014 L32.093,26.006 C31.902,25.998 31.566,26.006 31.297,26.036 C31.023,26.067 30.748,26.114 30.501,26.198 C30.257,26.266 30.043,26.366 29.852,26.481 C29.683,26.602 29.531,26.717 29.423,26.87 C29.363,26.94 29.301,27.008 29.271,27.108 C29.224,27.192 29.179,27.276 29.156,27.391 C29.08,27.582 29.08,27.827 29.048,28.094 L28.996,30.206 C28.957,31.614 28.904,33.022 28.835,34.436 z" fill="#EAC696"/>
    <path d="M23.446,29.143 L23.393,31.252 C23.352,32.659 23.3,34.067 23.237,35.485 L23.184,36.438 C23.184,36.649 23.016,36.827 22.805,36.827 L21.609,36.827 C21.399,36.827 21.231,36.649 21.231,36.438 L21.169,35.485 C21.094,34.067 21.042,32.659 21.01,31.252 L20.948,29.143 C20.926,28.879 20.926,28.627 20.842,28.44 C20.821,28.323 20.78,28.239 20.727,28.155 C20.696,28.061 20.643,27.987 20.58,27.924 C20.475,27.766 20.317,27.651 20.149,27.536 C19.961,27.42 19.74,27.315 19.499,27.252 C19.258,27.168 18.984,27.116 18.7,27.084 C18.438,27.053 18.102,27.053 17.913,27.053 L17.849,27.063 L17.798,27.063 C17.261,27.063 16.706,27.02 16.16,26.936 C15.614,26.854 15.057,26.737 14.521,26.516 L14.521,25.467 C15.057,25.688 15.614,25.803 16.16,25.887 C16.706,25.971 17.261,26.012 17.798,26.012 L17.849,26.012 L17.913,26.002 C18.102,26.002 18.438,26.002 18.7,26.034 C18.984,26.065 19.258,26.118 19.499,26.202 C19.74,26.266 19.961,26.37 20.149,26.485 C20.317,26.6 20.475,26.717 20.58,26.873 C20.643,26.936 20.696,27.01 20.727,27.106 C20.78,27.19 20.821,27.274 20.842,27.389 C20.926,27.579 20.926,27.831 20.948,28.092 L21.01,30.204 C21.042,31.61 21.094,33.016 21.169,34.434 L21.231,35.389 C21.231,35.598 21.399,35.778 21.609,35.778 L22.805,35.778 C23.016,35.778 23.184,35.598 23.184,35.389 L23.237,34.434 C23.3,33.016 23.352,31.61 23.393,30.204 L23.425,28.733 C23.436,28.879 23.436,29.016 23.446,29.143" fill="#B78D4D"/>
    <path d="M18.491,24.9 C18.48,24.754 18.48,24.617 18.48,24.47 C18.48,21.445 19.435,18.716 19.603,16.752 C19.813,18.611 18.627,21.55 18.491,24.9" fill="#B55858"/>
    <path d="M35.48,25.467 L35.48,26.516 C34.945,26.737 34.387,26.854 33.841,26.936 C33.295,27.02 32.74,27.063 32.204,27.063 L32.152,27.063 L32.087,27.053 C31.9,27.053 31.563,27.053 31.3,27.084 C31.017,27.115 30.744,27.168 30.503,27.252 C30.261,27.315 30.041,27.42 29.852,27.535 C29.683,27.651 29.527,27.766 29.421,27.924 C29.358,27.987 29.306,28.061 29.275,28.155 C29.222,28.238 29.179,28.322 29.159,28.44 C29.075,28.627 29.075,28.879 29.043,29.143 L28.992,31.252 C28.959,32.658 28.908,34.067 28.834,35.485 L28.77,36.438 C28.77,36.649 28.603,36.826 28.392,36.826 L27.195,36.826 C26.986,36.826 26.818,36.649 26.818,36.438 L26.765,35.485 C26.703,34.067 26.65,32.658 26.607,31.252 L26.554,29.143 C26.566,29.016 26.566,28.879 26.576,28.733 L26.607,30.203 C26.65,31.61 26.703,33.016 26.765,34.434 L26.818,35.389 C26.818,35.598 26.986,35.778 27.195,35.778 L28.392,35.778 C28.603,35.778 28.77,35.598 28.77,35.389 L28.834,34.434 C28.908,33.016 28.959,31.61 28.992,30.203 L29.043,28.092 C29.075,27.83 29.075,27.578 29.159,27.389 C29.179,27.274 29.222,27.19 29.275,27.106 C29.306,27.01 29.358,26.936 29.421,26.873 C29.527,26.717 29.683,26.6 29.852,26.485 C30.041,26.369 30.261,26.266 30.503,26.201 C30.744,26.117 31.017,26.065 31.3,26.033 C31.563,26.002 31.9,26.002 32.087,26.002 L32.152,26.012 L32.204,26.012 C32.74,26.012 33.295,25.971 33.841,25.887 C34.387,25.803 34.945,25.688 35.48,25.467" fill="#B78D4D"/>
    <path d="M31.511,24.9 C31.374,21.55 30.187,18.611 30.398,16.752 C30.566,18.716 31.521,21.445 31.521,24.47 C31.521,24.617 31.521,24.754 31.511,24.9" fill="#B55858"/>
    <path d="M19.604,33.226 C19.436,31.261 18.481,28.533 18.481,25.519 C18.481,25.372 18.481,25.236 18.492,25.089 C18.627,28.427 19.814,31.367 19.604,33.226" fill="#B55858"/>
    <path d="M31.521,25.519 C31.521,28.533 30.566,31.261 30.398,33.226 C30.187,31.367 31.375,28.427 31.511,25.089 C31.521,25.236 31.521,25.373 31.521,25.519" fill="#B55858"/>
    <path d="M18.479,24.465 C18.479,30.457 22.219,35.315 16.227,35.315 C10.236,35.315 6.606,30.457 6.606,24.465 C6.606,18.473 10.236,13.615 16.227,13.615 C22.219,13.615 18.479,18.473 18.479,24.465" fill="#E74C3C"/>
    <path d="M31.522,24.465 C31.522,30.457 27.782,35.315 33.774,35.315 C39.765,35.315 43.396,30.457 43.396,24.465 C43.396,18.473 39.765,13.615 33.774,13.615 C27.782,13.615 31.522,18.473 31.522,24.465" fill="#E74C3C"/>
    <path d="M16.223,36.365 C10.239,36.365 6.606,31.504 6.606,25.519 C6.606,25.351 6.606,25.183 6.617,25.025 C6.836,30.748 10.427,35.316 16.223,35.316 C18.617,35.316 19.457,34.539 19.604,33.226 C19.772,35.168 19.195,36.365 16.223,36.365" fill="#B78D4D"/>
    <path d="M43.396,25.52 C43.396,31.504 39.763,36.366 33.779,36.366 C30.808,36.366 30.23,35.168 30.398,33.227 C30.544,34.54 31.384,35.317 33.779,35.317 C39.574,35.317 43.166,30.749 43.386,25.026 C43.396,25.184 43.396,25.352 43.396,25.52" fill="#B78D4D"/>
    <path d="M49.99,25.5 C50.002,25.179 49.999,25.333 50.001,25.036 L50.001,24.996 C49.557,10.586 39.19,0.716 25.001,0 C11.19,0 0,11.191 0,25 C0.002,25.333 -0.002,25.167 0.01,25.5 C0.712,11.304 11.012,1.697 25.001,1 C39.202,1.427 49.024,11.525 49.99,25.5 z" fill="#F1F2F2" opacity="0.3"/>
  </g>
</svg>
