<?xml version="1.0" encoding="UTF-8"?>
<!DOCTYPE svg PUBLIC "-//W3C//DTD SVG 1.1//EN" "http://www.w3.org/Graphics/SVG/1.1/DTD/svg11.dtd">
<svg version="1.1" xmlns="http://www.w3.org/2000/svg" xmlns:xlink="http://www.w3.org/1999/xlink" x="0" y="0" width="50.001" height="50" viewBox="0, 0, 50.001, 50">
  <g id="Layer_1">
    <path d="M50.001,25 C50.001,38.807 38.808,50 25.001,50 C11.192,50 0,38.807 0,25 C0,11.191 11.192,0 25.001,0 C38.808,0 50.001,11.191 50.001,25" fill="#AF7AC4"/>
    <path d="M25.001,13.93 C30.356,13.93 34.711,18.287 34.711,23.64 C34.711,28.994 30.356,33.351 25.001,33.351 C19.647,33.351 15.29,28.994 15.29,23.64 C15.29,18.287 19.647,13.93 25.001,13.93" fill="#D1D3D4"/>
    <path d="M25.001,16.778 C28.785,16.778 31.862,19.857 31.862,23.639 C31.862,27.423 28.785,30.502 25.001,30.502 C21.217,30.502 18.139,27.423 18.139,23.639 C18.139,19.857 21.217,16.778 25.001,16.778" fill="#8C8E90"/>
    <path d="M50.001,25 C50.001,38.809 38.812,50 25.001,50 C11.19,50 0,38.809 0,25 C0,24.83 0,24.67 0.01,24.5 C0.271,38.08 11.36,49 25.001,49 C38.64,49 49.731,38.08 49.991,24.5 C50.001,24.67 50.001,24.83 50.001,25" fill="#906698"/>
    <path d="M49.99,25.5 C50.002,25.179 49.999,25.333 50.001,25.036 L50.001,24.996 C49.557,10.585 39.191,0.717 25.001,0 C11.19,0 0,11.189 0,25 C0,25.17 0,25.33 0.01,25.5 C0.271,11.92 11.36,1 25.001,1 C38.64,1 49.73,11.92 49.99,25.5 z" fill="#F1F2F2" opacity="0.3"/>
    <path d="M25.001,9.207 C17.029,9.207 10.568,15.669 10.568,23.64 C10.568,31.611 17.029,38.072 25.001,38.072 C32.972,38.072 39.433,31.611 39.433,23.64 C39.433,15.669 32.972,9.207 25.001,9.207 M25.001,12.785 C30.985,12.785 35.855,17.654 35.855,23.64 C35.855,29.625 30.985,34.494 25.001,34.494 C19.016,34.494 14.147,29.625 14.147,23.64 C14.147,17.654 19.016,12.785 25.001,12.785" fill="#FFFFFF"/>
    <path d="M25.001,10.252 C17.606,10.252 11.612,16.247 11.612,23.64 C11.612,31.034 17.606,37.027 25.001,37.027 C32.395,37.027 38.389,31.034 38.389,23.64 C38.389,16.247 32.395,10.252 25.001,10.252 M25.001,14.561 C30.008,14.561 34.081,18.635 34.081,23.64 C34.081,28.647 30.008,32.72 25.001,32.72 C19.995,32.72 15.921,28.647 15.921,23.64 C15.921,18.635 19.995,14.561 25.001,14.561" fill="#E6E7E8"/>
    <path d="M22.868,28.728 L28.132,28.728" fill-opacity="0" stroke="#EAC696" stroke-width="2" stroke-linecap="round"/>
    <path d="M27.181,26.973 C27.181,28.176 26.204,29.153 25.001,29.153 C23.796,29.153 22.821,28.176 22.821,26.973 C22.821,25.768 23.796,24.792 25.001,24.792 C26.204,24.792 27.181,25.768 27.181,26.973" fill="#8B5E3C"/>
    <path d="M29.495,29.393 L29.495,39.592 C29.495,39.703 29.405,39.793 29.294,39.793 L20.704,39.793 C20.595,39.793 20.504,39.703 20.504,39.592 L20.504,29.393 C20.774,29.243 21.085,29.153 21.425,29.153 L28.575,29.153 C28.915,29.153 29.224,29.243 29.495,29.393" fill="#76CADD"/>
    <path d="M39.425,24.245 C39.165,30.385 35.085,35.525 29.495,37.355 L29.495,38.355 C35.265,36.465 39.435,31.045 39.435,24.635 C39.435,24.505 39.435,24.375 39.425,24.245 M29.295,39.795 L20.705,39.795 C20.595,39.795 20.505,39.705 20.505,39.595 L20.505,40.595 C20.505,40.705 20.595,40.795 20.705,40.795 L29.295,40.795 C29.405,40.795 29.495,40.705 29.495,40.595 L29.495,39.595 C29.495,39.705 29.405,39.795 29.295,39.795 M10.575,24.245 C10.565,24.375 10.565,24.505 10.565,24.635 C10.565,31.045 14.735,36.465 20.505,38.355 L20.505,37.355 C14.915,35.525 10.835,30.385 10.575,24.245" fill="#906698"/>
    <path d="M30.484,31.062 C30.484,31.782 30.085,32.412 29.495,32.732 C29.224,32.882 28.915,32.972 28.575,32.972 L21.424,32.972 C21.085,32.972 20.774,32.882 20.504,32.732 C19.914,32.412 19.514,31.782 19.514,31.062 C19.514,30.532 19.734,30.062 20.074,29.712 C20.204,29.591 20.344,29.483 20.504,29.392 C20.774,29.243 21.085,29.153 21.424,29.153 L28.575,29.153 C28.915,29.153 29.224,29.243 29.495,29.392 C30.085,29.712 30.484,30.341 30.484,31.062" fill="#FFFFFF"/>
  </g>
</svg>
