<?xml version="1.0" encoding="UTF-8"?>
<!DOCTYPE svg PUBLIC "-//W3C//DTD SVG 1.1//EN" "http://www.w3.org/Graphics/SVG/1.1/DTD/svg11.dtd">
<svg version="1.1" xmlns="http://www.w3.org/2000/svg" xmlns:xlink="http://www.w3.org/1999/xlink" x="0" y="0" width="50.002" height="50" viewBox="0, 0, 50.002, 50">
  <g id="Layer_1">
    <path d="M50.002,25 C50.002,38.807 38.81,50 25.002,50 C11.195,50 0.002,38.807 0.002,25 C0.002,11.193 11.195,0 25.002,0 C38.81,0 50.002,11.193 50.002,25" fill="#34495E"/>
    <path d="M50,25 C50,38.809 38.811,50 25,50 C11.19,50 0,38.809 0,25 C0,24.83 0,24.67 0.01,24.5 C0.271,38.08 11.36,49 25,49 C38.64,49 49.73,38.08 49.99,24.5 C50,24.67 50,24.83 50,25" fill="#253749"/>
    <path d="M23.311,36.33 C24.016,35.643 24.457,34.684 24.457,33.621 C24.457,32.383 23.853,31.291 22.932,30.601 C23.873,29.562 24.452,28.187 24.452,26.674 C24.452,25.355 24.009,24.141 23.272,23.16 C23.998,22.471 24.457,21.5 24.457,20.42 C24.457,19.301 23.961,18.303 23.188,17.611 C23.961,16.918 24.457,15.922 24.457,14.801 C24.457,13.959 24.173,13.189 23.709,12.56 C24.14,12.127 24.407,11.531 24.407,10.871 C24.407,9.547 23.332,8.473 22.007,8.473 C21.002,8.473 20.144,9.092 19.787,9.971 C19.57,9.93 19.35,9.902 19.122,9.902 C17.031,9.902 15.335,11.598 15.335,13.687 C15.335,13.758 15.352,13.822 15.356,13.891 C13.838,14.383 12.734,15.791 12.734,17.475 C12.734,17.959 12.833,18.418 12.998,18.844 C11.598,19.654 10.644,21.152 10.644,22.889 C10.644,24.182 11.167,25.35 12.011,26.199 C11.167,27.047 10.644,28.217 10.644,29.508 C10.644,31.361 11.726,32.945 13.284,33.709 C13.129,34.174 13.025,34.664 13.025,35.182 C13.025,37.773 15.124,39.873 17.716,39.873 C18.133,39.873 18.529,39.803 18.913,39.701 C19.328,40.795 20.378,41.576 21.619,41.576 C23.22,41.576 24.519,40.279 24.519,38.676 C24.519,37.709 24.04,36.857 23.311,36.33" fill="#F9CFCD"/>
    <path d="M26.689,36.33 C25.984,35.643 25.543,34.684 25.543,33.621 C25.543,32.383 26.147,31.291 27.069,30.601 C26.127,29.562 25.549,28.187 25.549,26.674 C25.549,25.355 25.991,24.141 26.728,23.16 C26.002,22.471 25.543,21.5 25.543,20.42 C25.543,19.301 26.04,18.303 26.812,17.611 C26.04,16.918 25.543,15.922 25.543,14.801 C25.543,13.959 25.828,13.189 26.292,12.56 C25.861,12.127 25.594,11.531 25.594,10.871 C25.594,9.547 26.668,8.473 27.994,8.473 C28.999,8.473 29.857,9.092 30.213,9.971 C30.43,9.93 30.651,9.902 30.879,9.902 C32.97,9.902 34.665,11.598 34.665,13.687 C34.665,13.758 34.648,13.822 34.644,13.891 C36.163,14.383 37.267,15.791 37.267,17.475 C37.267,17.959 37.168,18.418 37.002,18.844 C38.403,19.654 39.356,21.152 39.356,22.889 C39.356,24.182 38.834,25.35 37.99,26.199 C38.834,27.047 39.356,28.217 39.356,29.508 C39.356,31.361 38.274,32.945 36.716,33.709 C36.872,34.174 36.976,34.664 36.976,35.182 C36.976,37.773 34.876,39.873 32.285,39.873 C31.868,39.873 31.472,39.803 31.087,39.701 C30.672,40.795 29.623,41.576 28.382,41.576 C26.78,41.576 25.482,40.279 25.482,38.676 C25.482,37.709 25.96,36.857 26.689,36.33" fill="#F9CFCD"/>
    <path d="M11.6,26.678 C10.992,25.889 10.64,24.901 10.64,23.836 C10.64,23.676 10.65,23.514 10.669,23.362 C10.774,24.465 11.268,25.453 12.009,26.203 C11.857,26.356 11.724,26.506 11.6,26.678" fill="#253749"/>
    <path d="M12.788,18.99 C12.75,18.808 12.73,18.619 12.73,18.429 C12.73,18.258 12.74,18.088 12.768,17.926 C12.807,18.248 12.883,18.553 12.997,18.847 C12.931,18.885 12.854,18.933 12.788,18.99" fill="#253749"/>
    <path d="M13.073,34.547 C11.628,33.748 10.639,32.229 10.639,30.461 C10.639,30.309 10.649,30.156 10.669,30.014 C10.84,31.649 11.866,33.008 13.282,33.711 C13.196,33.986 13.121,34.262 13.073,34.547" fill="#253749"/>
    <path d="M24.04,13.098 C23.945,12.909 23.831,12.737 23.707,12.567 C24.031,12.233 24.269,11.815 24.363,11.35 C24.392,11.5 24.411,11.662 24.411,11.825 C24.411,12.289 24.269,12.727 24.04,13.098" fill="#253749"/>
    <path d="M24.43,34.1 C24.45,34.252 24.458,34.414 24.458,34.577 C24.458,35.383 24.202,36.125 23.765,36.743 C23.632,36.59 23.48,36.457 23.309,36.334 C23.908,35.745 24.316,34.965 24.43,34.1" fill="#253749"/>
    <path d="M23.271,23.162 C23.898,22.572 24.316,21.775 24.43,20.881 C24.45,21.033 24.458,21.205 24.458,21.365 C24.458,22.25 24.155,23.066 23.632,23.703 C23.528,23.514 23.404,23.334 23.271,23.162" fill="#253749"/>
    <path d="M23.365,30.992 C23.242,30.849 23.09,30.717 22.928,30.603 C23.774,29.662 24.325,28.465 24.429,27.135 C24.439,27.295 24.449,27.467 24.449,27.629 C24.449,28.883 24.05,30.043 23.365,30.992" fill="#253749"/>
    <path d="M23.632,18.088 C23.499,17.916 23.347,17.754 23.185,17.611 C23.851,17.014 24.316,16.195 24.43,15.274 C24.449,15.436 24.458,15.588 24.458,15.75 C24.458,16.633 24.154,17.442 23.632,18.088" fill="#253749"/>
    <path d="M24.516,39.631 C24.516,41.229 23.223,42.529 21.618,42.529 C20.381,42.529 19.327,41.74 18.909,40.649 C18.529,40.752 18.129,40.82 17.721,40.82 C15.126,40.82 13.026,38.729 13.026,36.135 C13.026,35.973 13.036,35.82 13.054,35.668 C13.291,38.035 15.287,39.869 17.721,39.869 C18.129,39.869 18.529,39.803 18.909,39.699 C19.327,40.791 20.381,41.58 21.618,41.58 C23.062,41.58 24.249,40.526 24.478,39.147 C24.506,39.309 24.516,39.471 24.516,39.631" fill="#253749"/>
    <path d="M25.96,13.088 C25.732,12.717 25.599,12.289 25.599,11.824 C25.599,11.662 25.618,11.5 25.647,11.35 C25.741,11.815 25.97,12.233 26.293,12.567 C26.169,12.727 26.064,12.908 25.96,13.088" fill="#253749"/>
    <path d="M26.235,36.742 C25.798,36.125 25.542,35.383 25.542,34.576 C25.542,34.414 25.55,34.252 25.57,34.099 C25.684,34.965 26.092,35.744 26.691,36.334 C26.52,36.457 26.369,36.59 26.235,36.742" fill="#253749"/>
    <path d="M26.369,23.703 C25.846,23.066 25.542,22.25 25.542,21.365 C25.542,21.205 25.551,21.033 25.57,20.881 C25.684,21.775 26.102,22.572 26.729,23.162 C26.597,23.334 26.473,23.514 26.369,23.703" fill="#253749"/>
    <path d="M26.369,18.088 C25.846,17.442 25.542,16.633 25.542,15.75 C25.542,15.588 25.551,15.436 25.57,15.274 C25.684,16.195 26.15,17.014 26.815,17.611 C26.653,17.754 26.502,17.916 26.369,18.088" fill="#253749"/>
    <path d="M25.57,27.135 C25.674,28.465 26.226,29.662 27.072,30.604 C26.91,30.717 26.757,30.85 26.634,30.992 C25.95,30.043 25.55,28.883 25.55,27.629 C25.55,27.467 25.56,27.295 25.57,27.135" fill="#253749"/>
    <path d="M36.946,35.668 C36.965,35.82 36.974,35.973 36.974,36.135 C36.974,38.729 34.874,40.82 32.289,40.82 C31.871,40.82 31.472,40.752 31.092,40.648 C30.674,41.74 29.619,42.529 28.383,42.529 C26.777,42.529 25.484,41.229 25.484,39.631 C25.484,39.471 25.494,39.309 25.522,39.147 C25.751,40.525 26.939,41.58 28.383,41.58 C29.619,41.58 30.674,40.791 31.092,39.699 C31.472,39.803 31.871,39.869 32.289,39.869 C34.713,39.869 36.709,38.035 36.946,35.668" fill="#253749"/>
    <path d="M38.4,26.678 C38.276,26.506 38.143,26.356 37.992,26.203 C38.732,25.453 39.226,24.465 39.331,23.362 C39.35,23.514 39.36,23.676 39.36,23.836 C39.36,24.901 39.008,25.889 38.4,26.678" fill="#253749"/>
    <path d="M39.331,30.014 C39.351,30.157 39.36,30.309 39.36,30.461 C39.36,32.229 38.372,33.748 36.927,34.547 C36.88,34.262 36.804,33.987 36.718,33.711 C38.134,33.008 39.16,31.649 39.331,30.014" fill="#253749"/>
    <path d="M49.992,25.5 C50.002,25.33 50.002,25.17 50.002,25 C49.559,10.595 39.2,0.717 25.012,0.001 L24.992,0.001 C10.584,0.445 0.718,10.814 0.002,25 C0.002,25.17 0.002,25.33 0.012,25.5 C0.273,11.92 11.362,1 25.002,1 C38.642,1 49.732,11.92 49.992,25.5 z" fill="#F1F2F2" opacity="0.3"/>
  </g>
</svg>
