<?xml version="1.0" encoding="UTF-8"?>
<!DOCTYPE svg PUBLIC "-//W3C//DTD SVG 1.1//EN" "http://www.w3.org/Graphics/SVG/1.1/DTD/svg11.dtd">
<svg version="1.1" xmlns="http://www.w3.org/2000/svg" xmlns:xlink="http://www.w3.org/1999/xlink" x="0" y="0" width="50.003" height="50" viewBox="0, 0, 50.003, 50">
  <g id="Layer_1">
    <path d="M50.001,25 C50.001,38.806 38.808,50 25.001,50 C11.194,50 0.002,38.806 0.002,25 C0.002,11.193 11.194,0 25.001,0 C38.808,0 50.001,11.193 50.001,25" fill="#E74C3C"/>
    <path d="M50.003,25 C50.003,38.81 38.804,50 25.003,50 C11.194,50 0.004,38.81 0.004,25 C0.004,24.83 0.004,24.67 0.015,24.5 C0.274,38.08 11.364,49 25.003,49 C38.634,49 49.733,38.08 49.993,24.5 C50.003,24.67 50.003,24.83 50.003,25" fill="#BE3D2F"/>
    <path d="M49.99,25.5 C50.002,25.179 49.999,25.334 50.001,25.036 L50.001,24.996 C49.557,10.593 39.195,0.717 25.009,0.001 L24.993,0.001 C10.584,0.445 0.716,10.813 0,25 C0,25.17 0,25.33 0.01,25.5 C0.271,11.92 11.36,1 25.001,1 C38.64,1 49.73,11.92 49.99,25.5 z" fill="#F1F2F2" opacity="0.3"/>
    <path d="M39.672,24.5 C39.672,35.158 35.663,39.166 25.006,39.166 C14.347,39.166 10.339,35.158 10.339,24.5 C10.339,13.842 14.347,9.833 25.006,9.833 C35.663,9.833 39.672,13.842 39.672,24.5" fill="#75C1AE"/>
    <path d="M32.111,32.517 L28.169,32.517 L28.169,25.663 L21.865,25.663 L21.865,32.517 L17.9,32.517 L17.9,15.486 L21.865,15.486 L21.865,22.621 L28.169,22.621 L28.169,15.486 L32.111,15.486 z" fill="#FFFFFF"/>
    <path d="M39.676,25.496 C39.676,36.156 35.666,40.166 25.006,40.166 C14.346,40.166 10.336,36.156 10.336,25.496 C10.336,25.326 10.336,25.156 10.346,24.996 C10.466,35.285 14.516,39.166 25.006,39.166 C35.496,39.166 39.546,35.285 39.666,24.996 C39.676,25.156 39.676,25.326 39.676,25.496" fill="#BE3D2F"/>
    <path d="M17.905,33.513 L21.865,33.513 L21.865,32.513 L17.905,32.513 z M17.905,32.513 M21.864,26.664 L28.174,26.664 L28.174,25.664 L21.864,25.664 z M21.864,25.664 M28.174,33.513 L32.114,33.513 L32.114,32.513 L28.174,32.513 z" fill="#231F20"/>
  </g>
</svg>
