<?xml version="1.0" encoding="UTF-8"?>
<!DOCTYPE svg PUBLIC "-//W3C//DTD SVG 1.1//EN" "http://www.w3.org/Graphics/SVG/1.1/DTD/svg11.dtd">
<svg version="1.1" xmlns="http://www.w3.org/2000/svg" xmlns:xlink="http://www.w3.org/1999/xlink" x="0" y="0" width="50.002" height="50" viewBox="0, 0, 50.002, 50">
  <g id="Layer_1">
    <path d="M50.002,25 C50.002,38.807 38.809,50 25.002,50 C11.193,50 0,38.807 0,25 C0,11.192 11.193,0 25.002,0 C38.809,0 50.002,11.192 50.002,25" fill="#E74C3C"/>
    <path d="M49.99,25.5 C50.004,25.178 50,25.333 50.002,25.033 L50.002,24.996 C49.558,10.586 39.191,0.717 25.002,0 C11.191,0 0,11.19 0,25 C0.002,25.333 -0.002,25.167 0.01,25.5 C0.713,11.304 11.013,1.698 25.002,1 C39.203,1.427 49.024,11.525 49.99,25.5 z" fill="#F1F2F2" opacity="0.3"/>
    <path d="M38.34,35.701 L11.346,35.701 L11.346,14.301 L38.34,14.301 z" fill="#34495E"/>
    <path d="M38.34,37.2 L11.34,37.2 C10.521,37.2 9.84,36.53 9.84,35.7 L9.84,36.7 C9.84,37.53 10.521,38.2 11.34,38.2 L38.34,38.2 C39.17,38.2 39.84,37.53 39.84,36.7 L39.84,35.7 C39.84,36.53 39.17,37.2 38.34,37.2" fill="#BE3D2F"/>
    <path d="M19.215,11.326 L15.465,11.326 L15.465,12.801 L19.215,12.801 z" fill="#34495E"/>
    <path d="M36.84,16.789 L12.856,16.789 L12.856,15.789 L36.84,15.789 z" fill="#231F20" opacity="0.5"/>
    <path d="M12.846,34.201 L36.84,34.201 L36.84,15.801 L12.846,15.801 z M38.34,37.201 L11.346,37.201 C10.517,37.201 9.846,36.53 9.846,35.701 L9.846,14.3 C9.846,13.471 10.517,12.8 11.346,12.8 L38.34,12.8 C39.168,12.8 39.84,13.471 39.84,14.3 L39.84,35.701 C39.84,36.53 39.168,37.201 38.34,37.201" fill="#E6E7E8"/>
    <path d="M50.002,25 C50.002,38.81 38.813,50 25.002,50 C11.191,50 0,38.81 0,25 C0,24.83 0,24.67 0.01,24.5 C0.272,38.08 11.361,49 25.002,49 C38.641,49 49.732,38.08 49.992,24.5 C50.002,24.67 50.002,24.83 50.002,25" fill="#BE3D2F"/>
    <path d="M24.998,30.907 C24.172,30.907 23.498,30.394 23.498,29.759 C23.498,29.333 23.951,28.988 23.951,28.988 C24.115,28.864 24.34,28.901 24.449,29.078 C24.449,29.078 24.736,29.534 24.998,29.534 C25.264,29.534 25.553,29.078 25.553,29.078 C25.66,28.901 25.885,28.864 26.045,28.988 C26.045,28.988 26.502,29.333 26.502,29.759 C26.502,30.394 25.828,30.907 24.998,30.907 M27.883,26.673 C25.953,26.673 26.215,28.344 24.998,28.344 C23.783,28.344 24.049,26.673 22.119,26.673 C20.902,26.673 20.578,27.846 20.578,28.532 C20.578,28.786 20.641,29.063 20.746,29.35 C20.812,29.336 20.881,29.333 20.947,29.333 C21.482,29.333 21.949,29.69 22.088,30.208 C22.172,30.514 22.129,30.832 21.973,31.108 C21.957,31.136 21.943,31.161 21.92,31.183 C22.484,31.804 23.102,32.249 23.498,32.249 C24.332,32.249 24.287,31.348 24.998,31.348 C25.713,31.348 25.664,32.249 26.502,32.249 C26.842,32.249 27.344,31.921 27.842,31.43 C27.732,31.344 27.639,31.236 27.564,31.108 C27.408,30.832 27.363,30.514 27.445,30.208 C27.584,29.69 28.055,29.333 28.59,29.333 C28.693,29.333 28.795,29.343 28.896,29.373 C29.002,29.399 29.102,29.444 29.191,29.497 C29.338,29.16 29.424,28.827 29.424,28.532 C29.424,27.846 29.098,26.673 27.883,26.673" fill="#77E5ED"/>
    <path d="M20.748,19.423 L15.684,19.423 C15.408,19.423 15.184,19.2 15.184,18.923 C15.184,18.648 15.408,18.423 15.684,18.423 L20.748,18.423 C21.025,18.423 21.248,18.648 21.248,18.923 C21.248,19.2 21.025,19.423 20.748,19.423" fill="#77E5ED"/>
    <path d="M34.318,19.423 L29.252,19.423 C28.976,19.423 28.752,19.2 28.752,18.923 C28.752,18.648 28.976,18.423 29.252,18.423 L34.318,18.423 C34.595,18.423 34.818,18.648 34.818,18.923 C34.818,19.2 34.595,19.423 34.318,19.423" fill="#77E5ED"/>
    <path d="M25,27.681 C24.725,27.681 24.5,27.458 24.5,27.181 L24.5,24.683 C24.5,24.406 24.725,24.183 25,24.183 C25.277,24.183 25.5,24.406 25.5,24.683 L25.5,27.181 C25.5,27.458 25.277,27.681 25,27.681" fill="#77E5ED"/>
    <path d="M27.633,24.042 L25.662,24.042 C25.385,24.042 25.162,23.818 25.162,23.542 C25.162,23.266 25.385,23.042 25.662,23.042 L27.633,23.042 C27.908,23.042 28.133,23.266 28.133,23.542 C28.133,23.818 27.908,24.042 27.633,24.042" fill="#77E5ED"/>
    <path d="M28.203,22.5 L25.662,22.5 C25.385,22.5 25.162,22.276 25.162,22 C25.162,21.724 25.385,21.5 25.662,21.5 L28.203,21.5 C28.48,21.5 28.703,21.724 28.703,22 C28.703,22.276 28.48,22.5 28.203,22.5" fill="#77E5ED"/>
    <path d="M27.994,20.958 L25.662,20.958 C25.385,20.958 25.162,20.734 25.162,20.458 C25.162,20.182 25.385,19.958 25.662,19.958 L27.994,19.958 C28.271,19.958 28.494,20.182 28.494,20.458 C28.494,20.734 28.271,20.958 27.994,20.958" fill="#77E5ED"/>
    <path d="M27.633,19.416 L25.662,19.416 C25.385,19.416 25.162,19.192 25.162,18.916 C25.162,18.64 25.385,18.416 25.662,18.416 L27.633,18.416 C27.908,18.416 28.133,18.64 28.133,18.916 C28.133,19.192 27.908,19.416 27.633,19.416" fill="#77E5ED"/>
    <path d="M24.34,24.042 L22.369,24.042 C22.094,24.042 21.869,23.818 21.869,23.542 C21.869,23.266 22.094,23.042 22.369,23.042 L24.34,23.042 C24.617,23.042 24.84,23.266 24.84,23.542 C24.84,23.818 24.617,24.042 24.34,24.042" fill="#77E5ED"/>
    <path d="M24.34,22.5 L21.799,22.5 C21.522,22.5 21.299,22.276 21.299,22 C21.299,21.724 21.522,21.5 21.799,21.5 L24.34,21.5 C24.617,21.5 24.84,21.724 24.84,22 C24.84,22.276 24.617,22.5 24.34,22.5" fill="#77E5ED"/>
    <path d="M24.34,20.958 L22.008,20.958 C21.731,20.958 21.508,20.734 21.508,20.458 C21.508,20.182 21.731,19.958 22.008,19.958 L24.34,19.958 C24.617,19.958 24.84,20.182 24.84,20.458 C24.84,20.734 24.617,20.958 24.34,20.958" fill="#77E5ED"/>
    <path d="M24.34,19.416 L22.369,19.416 C22.094,19.416 21.869,19.192 21.869,18.916 C21.869,18.64 22.094,18.416 22.369,18.416 L24.34,18.416 C24.617,18.416 24.84,18.64 24.84,18.916 C24.84,19.192 24.617,19.416 24.34,19.416" fill="#77E5ED"/>
  </g>
</svg>
