<?xml version="1.0" encoding="UTF-8"?>
<!DOCTYPE svg PUBLIC "-//W3C//DTD SVG 1.1//EN" "http://www.w3.org/Graphics/SVG/1.1/DTD/svg11.dtd">
<svg version="1.1" xmlns="http://www.w3.org/2000/svg" xmlns:xlink="http://www.w3.org/1999/xlink" x="0" y="0" width="50.002" height="50" viewBox="0, 0, 50.002, 50">
  <g id="Layer_1">
    <path d="M50,25 C50,38.807 38.807,50 25,50 C11.193,50 0.001,38.807 0.001,25 C0.001,11.193 11.193,0 25,0 C38.807,0 50,11.193 50,25" fill="#76CADD"/>
    <path d="M50.002,25 C50.002,38.811 38.803,50 25.002,50 C11.193,50 0.003,38.811 0.003,25 C0.003,24.83 0.003,24.67 0.014,24.5 C0.273,38.08 11.363,49 25.002,49 C38.633,49 49.732,38.08 49.992,24.5 C50.002,24.67 50.002,24.83 50.002,25" fill="#79ACBA"/>
    <path d="M26.16,9.42 L26.16,8.42 C26.16,8.141 25.939,7.92 25.66,7.92 L23.17,7.92 C22.889,7.92 22.67,8.141 22.67,8.42 C22.78,16.43 25.74,16.201 25.74,22.08 C25.74,26.27 22.75,26.67 21.58,26.67 C20.099,26.67 18.32,25.5 16.16,25.5 C14.07,25.5 9.251,26.51 9.09,35.748 L9.08,35.75 L9.08,35.76 C9.08,35.77 9.08,35.779 9.09,35.801 C9.11,36.061 9.32,36.25 9.58,36.25 L12.11,36.25 C12.34,36.25 12.53,36.1 12.59,35.9 C12.599,35.852 12.609,35.197 12.61,35.135 C12.749,32.119 13.529,29 16.16,29 C20.01,29 21.41,36 27.96,36 C35.21,36 38.78,32 38.78,25.381 C38.78,11.631 26.16,19.33 26.16,9.42" fill="#F9CFCD"/>
    <path d="M38.78,25.381 C38.78,32 35.21,36 27.96,36 C21.41,36 20.009,29 16.16,29 C13.53,29 12.75,32.121 12.609,35.131 C12.609,35.201 12.599,35.852 12.59,35.901 C12.53,36.102 12.34,36.25 12.109,36.25 L9.58,36.25 C9.32,36.25 9.109,36.061 9.09,35.801 C9.08,35.781 9.08,35.772 9.08,35.76 L9.08,35.75 L9.09,35.75 C9.25,26.51 14.07,25.5 16.16,25.5 C18.32,25.5 20.099,26.67 21.58,26.67 C22.689,26.67 25.46,26.311 25.719,22.651 L38.58,22.651 C38.71,23.451 38.78,24.361 38.78,25.381" fill="#EAC696"/>
    <path d="M25.729,22.461 C25.53,17.211 22.78,17.141 22.669,9.42 C22.669,9.371 22.679,9.32 22.7,9.27 C22.99,16.42 25.74,16.42 25.74,22.08 C25.74,22.211 25.74,22.34 25.729,22.461" fill="#79ACBA"/>
    <path d="M38.78,26.381 C38.78,33 35.21,37 27.96,37 C21.41,37 20.009,30 16.16,30 C13.53,30 12.75,33.121 12.609,36.131 C12.609,36.201 12.599,36.852 12.59,36.901 C12.53,37.102 12.34,37.25 12.109,37.25 L9.58,37.25 C9.32,37.25 9.109,37.061 9.09,36.801 C9.08,36.781 9.08,36.772 9.08,36.76 L9.08,36.75 L9.09,36.75 C9.099,36.461 9.099,36.182 9.12,35.91 C9.179,36.111 9.359,36.25 9.58,36.25 L12.109,36.25 C12.34,36.25 12.53,36.102 12.59,35.901 C12.599,35.852 12.609,35.201 12.609,35.131 C12.75,32.121 13.53,29 16.16,29 C20.009,29 21.41,36 27.96,36 C34.979,36 38.55,32.25 38.769,25.99 C38.78,26.121 38.78,26.25 38.78,26.381" fill="#79ACBA"/>
    <path d="M49.99,25.5 C50,25.33 50,25.17 50,25 C49.557,10.596 39.197,0.717 25.01,0.001 L24.99,0.001 C10.588,0.445 0.716,10.812 0,24.994 L0,25.063 C0.001,25.333 -0.001,25.188 0.01,25.5 C0.271,11.92 11.36,1 25,1 C38.64,1 49.73,11.92 49.99,25.5 z" fill="#F1F2F2" opacity="0.3"/>
  </g>
</svg>
