<?xml version="1.0" encoding="UTF-8"?>
<!DOCTYPE svg PUBLIC "-//W3C//DTD SVG 1.1//EN" "http://www.w3.org/Graphics/SVG/1.1/DTD/svg11.dtd">
<svg version="1.1" xmlns="http://www.w3.org/2000/svg" xmlns:xlink="http://www.w3.org/1999/xlink" x="0" y="0" width="50.001" height="49.999" viewBox="0, 0, 50.001, 49.999">
  <g id="Layer_1">
    <path d="M50.001,25 C50.001,38.806 38.808,49.999 25.001,49.999 C11.192,49.999 0,38.806 0,25 C0,11.191 11.192,0 25.001,0 C38.808,0 50.001,11.191 50.001,25" fill="#76CADD"/>
    <path d="M50.001,25 C50.001,38.81 38.812,49.999 25.001,49.999 C11.19,49.999 0,38.81 0,25 C0,24.83 0,24.67 0.01,24.5 C0.271,38.079 11.36,48.999 25.001,48.999 C38.64,48.999 49.731,38.079 49.991,24.5 C50.001,24.67 50.001,24.83 50.001,25" fill="#79ACBA"/>
    <path d="M49.99,25.499 C50.002,25.179 49.999,25.333 50.001,25.036 L50.001,24.996 C49.557,10.587 39.192,0.717 25.003,0 L24.999,0 C10.587,0.444 0.716,10.808 0,25 C0,25.17 0,25.33 0.01,25.499 C0.271,11.92 11.36,1 25.001,1 C38.64,1 49.73,11.92 49.99,25.499 z" fill="#F1F2F2" opacity="0.3"/>
    <path d="M34.605,19.846 C31.606,24.241 26.56,27.128 20.839,27.128 C15.117,27.128 10.063,24.241 7.064,19.846 C10.063,15.442 15.117,12.554 20.839,12.554 C26.56,12.554 31.606,15.442 34.605,19.846" fill="#FFFFFF"/>
    <path d="M26.934,19.842 C26.934,23.209 24.206,25.946 20.839,25.946 C17.464,25.946 14.735,23.209 14.735,19.842 C14.735,16.475 17.464,13.739 20.839,13.739 C21.977,13.739 23.043,14.05 23.952,14.599 L23.886,14.599 C22.699,14.599 21.732,15.549 21.699,16.729 L21.699,16.794 C21.699,17.998 22.674,18.982 23.886,18.982 L23.944,18.982 C25.131,18.949 26.082,17.984 26.082,16.794 L26.082,16.737 C26.623,17.648 26.934,18.703 26.934,19.842" fill="#C49A6C"/>
    <path d="M24.066,19.842 C24.066,21.627 22.624,23.079 20.839,23.079 C19.053,23.079 17.603,21.627 17.603,19.842 C17.603,18.057 19.053,16.607 20.839,16.607 C21.141,16.607 21.428,16.648 21.699,16.729 L21.699,16.794 C21.699,17.998 22.673,18.982 23.886,18.982 L23.944,18.982 C24.025,19.252 24.066,19.548 24.066,19.842" fill="#34495E"/>
    <path d="M34.602,20.66 C31.603,25.06 26.557,27.944 20.839,27.944 C15.121,27.944 10.066,25.06 7.067,20.66 C7.166,20.52 7.256,20.382 7.371,20.251 C10.386,24.421 15.301,27.125 20.839,27.125 C26.377,27.125 31.284,24.421 34.299,20.251 C34.414,20.382 34.503,20.52 34.602,20.66" fill="#79ACBA"/>
    <path d="M19.341,22.692 C16.59,25.443 16.59,29.919 19.341,32.671 C22.092,35.421 26.569,35.421 29.32,32.671 C32.071,29.919 32.071,25.443 29.32,22.692 C26.569,19.939 22.092,19.939 19.341,22.692 M30.785,34.135 C27.226,37.696 21.435,37.696 17.875,34.135 C14.316,30.577 14.316,24.785 17.875,21.225 C21.435,17.666 27.226,17.666 30.785,21.225 C34.345,24.785 34.345,30.577 30.785,34.135" fill="#34495E"/>
    <path d="M38.115,40 L36.649,41.466 L29.32,34.136 L30.785,32.671 z" fill="#34495E"/>
    <path d="M33.002,34.153 C32.921,34.072 32.79,34.072 32.709,34.153 L30.803,36.058 C30.722,36.14 30.722,36.27 30.803,36.351 L36.747,42.297 C36.828,42.378 36.959,42.378 37.041,42.297 L38.946,40.391 C39.027,40.309 39.027,40.178 38.946,40.097 z" fill="#34495E"/>
    <path d="M32.782,24.233 C32.762,24.253 32.732,24.273 32.702,24.283 C32.432,24.493 32.162,24.693 31.882,24.883 C31.592,25.083 31.302,25.273 31.012,25.443 L31.012,25.453 C30.832,25.563 30.652,25.663 30.462,25.773 C30.282,25.883 30.092,25.983 29.912,26.073 C29.822,26.123 29.742,26.173 29.652,26.203 C29.392,26.343 29.122,26.473 28.852,26.593 C28.782,26.633 28.702,26.663 28.632,26.693 C28.372,26.813 28.102,26.913 27.842,27.023 C27.492,27.153 27.152,27.273 26.812,27.383 C26.492,27.483 26.172,27.583 25.852,27.663 C25.302,27.813 24.742,27.933 24.182,28.023 C23.492,28.143 22.802,28.233 22.092,28.273 C21.682,28.303 21.262,28.313 20.842,28.313 C20.422,28.313 20.002,28.303 19.592,28.273 C18.882,28.233 18.192,28.143 17.502,28.023 C17.432,28.013 17.362,28.003 17.292,27.993 C16.582,27.863 15.882,27.693 15.202,27.483 C15.222,26.553 15.382,25.623 15.682,24.733 C16.072,23.613 16.682,22.543 17.522,21.603 C17.632,21.473 17.752,21.343 17.872,21.223 C19.442,19.653 21.442,18.783 23.492,18.593 C24.092,18.533 24.692,18.543 25.292,18.603 C26.202,18.703 27.112,18.933 27.962,19.303 C28.992,19.743 29.942,20.383 30.782,21.223 C31.662,22.103 32.332,23.133 32.772,24.223 C32.782,24.223 32.782,24.233 32.782,24.233" fill="#FFFFFF"/>
    <path d="M27.762,21.513 C26.992,24.622 24.192,26.933 20.842,26.933 C19.622,26.933 18.482,26.633 17.472,26.093 C17.712,25.013 18.222,23.973 18.992,23.082 C19.092,22.952 19.212,22.823 19.342,22.693 C20.762,21.273 22.642,20.582 24.512,20.643 C25.632,20.662 26.752,20.952 27.762,21.513" fill="#C49A6C"/>
    <path d="M24.622,19.773 C24.622,20.073 24.592,20.363 24.512,20.643 C24.122,22.313 22.632,23.563 20.842,23.563 C20.172,23.563 19.542,23.383 18.992,23.083 C18.372,22.733 17.862,22.223 17.522,21.603 C17.632,21.473 17.752,21.343 17.872,21.223 C19.442,19.653 21.442,18.783 23.492,18.593 C23.772,18.703 24.082,18.763 24.412,18.763 L24.482,18.763 C24.572,19.083 24.622,19.423 24.622,19.773" fill="#34495E"/>
    <path d="M33.042,24.983 C32.462,25.453 31.862,25.883 31.232,26.263 C28.222,28.173 24.662,29.273 20.842,29.273 C19.672,29.273 18.522,29.173 17.402,28.973 C16.662,28.843 15.942,28.673 15.232,28.453 C15.212,28.133 15.202,27.813 15.202,27.483 C15.882,27.693 16.582,27.863 17.292,27.993 C17.362,28.003 17.432,28.013 17.502,28.023 C18.192,28.143 18.882,28.233 19.592,28.273 C20.002,28.303 20.422,28.313 20.842,28.313 C21.262,28.313 21.682,28.303 22.092,28.273 C22.802,28.233 23.492,28.143 24.182,28.023 C24.742,27.933 25.302,27.813 25.852,27.663 C26.172,27.583 26.492,27.483 26.812,27.383 C27.152,27.273 27.492,27.153 27.842,27.023 C28.102,26.913 28.372,26.813 28.632,26.693 C28.702,26.663 28.782,26.633 28.852,26.593 C29.122,26.473 29.392,26.343 29.652,26.203 C29.742,26.173 29.822,26.123 29.912,26.073 C30.092,25.983 30.282,25.883 30.462,25.773 C30.652,25.663 30.832,25.563 31.012,25.453 L31.012,25.443 C31.302,25.273 31.592,25.083 31.882,24.883 C32.162,24.693 32.432,24.493 32.702,24.283 C32.722,24.273 32.752,24.253 32.772,24.223 C32.782,24.223 32.782,24.233 32.782,24.233 C32.882,24.483 32.972,24.733 33.042,24.983" fill="#79ACBA"/>
    <path d="M29.322,32.673 C26.572,35.423 22.092,35.423 19.342,32.673 C18.302,31.622 17.652,30.332 17.402,28.973 C17.342,28.652 17.302,28.322 17.292,27.992 C17.262,27.353 17.312,26.713 17.472,26.093 C17.712,25.013 18.222,23.973 18.992,23.082 C19.092,22.952 19.212,22.822 19.342,22.693 C20.762,21.273 22.642,20.582 24.512,20.643 C25.632,20.662 26.752,20.952 27.762,21.513 C28.322,21.822 28.852,22.213 29.322,22.693 C30.122,23.492 30.682,24.433 31.012,25.443 L31.012,25.452 C31.112,25.723 31.182,25.992 31.232,26.263 C31.702,28.513 31.062,30.933 29.322,32.673 M33.042,24.983 C32.972,24.733 32.882,24.483 32.782,24.233 C32.782,24.233 32.782,24.223 32.772,24.223 C32.332,23.133 31.662,22.103 30.782,21.223 C29.942,20.383 28.992,19.742 27.962,19.303 C27.112,18.933 26.202,18.702 25.292,18.603 C24.692,18.542 24.092,18.532 23.492,18.593 C21.442,18.782 19.442,19.652 17.872,21.223 C17.752,21.343 17.632,21.473 17.522,21.603 C16.682,22.542 16.072,23.612 15.682,24.733 C15.382,25.622 15.222,26.553 15.202,27.483 C15.202,27.813 15.212,28.133 15.232,28.452 C15.412,30.523 16.292,32.553 17.872,34.133 C21.432,37.693 27.222,37.693 30.782,34.133 C33.252,31.662 34.012,28.112 33.042,24.983" fill="#34495E"/>
    <path d="M27.061,29.169 C28.576,28.554 27.992,28.938 28.915,28.186 C29.801,27.299 30.127,26.067 29.888,24.92 C29.862,24.783 29.827,24.645 29.776,24.507 L29.776,24.502 C29.608,23.989 29.323,23.51 28.915,23.102 C28.676,22.858 28.406,22.659 28.121,22.501 C27.606,22.216 27.036,22.068 26.465,22.058 C25.513,22.028 24.556,22.379 23.832,23.102 C23.766,23.168 23.705,23.235 23.654,23.3 C23.262,23.754 23.002,24.285 22.88,24.833 C22.799,25.15 22.773,25.476 22.789,25.801 C22.793,25.969 22.813,26.137 22.844,26.3 C22.972,26.993 23.303,27.65 23.832,28.186 C24.911,29.216 25.671,29.169 27.061,29.169 z" fill="#FFFFFF"/>
    <path d="M38.942,41.103 L38.592,40.743 L37.042,42.292 C36.962,42.383 36.832,42.383 36.752,42.292 L30.802,36.353 C30.722,36.273 30.722,36.143 30.802,36.063 L31.022,35.843 L30.002,34.823 C26.422,37.673 21.182,37.443 17.872,34.133 C16.292,32.553 15.412,30.523 15.232,28.453 C15.222,28.343 15.222,28.243 15.222,28.133 C15.212,28.252 15.202,28.363 15.202,28.483 C15.202,28.813 15.212,29.133 15.232,29.453 C15.412,31.523 16.292,33.553 17.872,35.133 C21.182,38.443 26.422,38.673 30.002,35.823 L31.022,36.843 L30.802,37.063 C30.722,37.143 30.722,37.273 30.802,37.353 L36.752,43.292 C36.832,43.383 36.962,43.383 37.042,43.292 L38.942,41.393 C39.032,41.313 39.032,41.183 38.942,41.103" fill="#79ACBA"/>
    <path d="M33.422,28.082 C33.342,29.952 32.692,31.812 31.462,33.353 L31.882,33.772 C33.032,32.062 33.552,30.053 33.422,28.082" fill="#79ACBA"/>
    <path d="M31.362,28.263 C31.412,27.593 31.372,26.923 31.232,26.263 C31.182,25.992 31.112,25.723 31.012,25.452 L31.012,25.443 C30.682,24.433 30.122,23.492 29.322,22.693 C28.852,22.213 28.322,21.823 27.762,21.513 C26.752,20.952 25.632,20.662 24.512,20.643 C22.642,20.582 20.762,21.273 19.342,22.693 C19.212,22.823 19.092,22.952 18.992,23.082 C18.222,23.973 17.712,25.013 17.472,26.093 C17.312,26.713 17.262,27.353 17.292,27.992 C17.292,28.042 17.292,28.082 17.302,28.133 C17.332,27.783 17.382,27.433 17.472,27.093 C17.712,26.013 18.222,24.973 18.992,24.082 C19.092,23.952 19.212,23.823 19.342,23.693 C20.762,22.273 22.642,21.582 24.512,21.643 C25.632,21.662 26.752,21.952 27.762,22.513 C28.322,22.823 28.852,23.213 29.322,23.693 C30.122,24.492 30.682,25.433 31.012,26.443 L31.012,26.452 C31.112,26.723 31.182,26.992 31.232,27.263 C31.302,27.593 31.342,27.923 31.362,28.263 z" fill="#231F20" opacity="0.5"/>
  </g>
</svg>
