<?xml version="1.0" encoding="UTF-8"?>
<!DOCTYPE svg PUBLIC "-//W3C//DTD SVG 1.1//EN" "http://www.w3.org/Graphics/SVG/1.1/DTD/svg11.dtd">
<svg version="1.1" xmlns="http://www.w3.org/2000/svg" xmlns:xlink="http://www.w3.org/1999/xlink" x="0" y="0" width="50.001" height="50" viewBox="0, 0, 50.001, 50">
  <g id="Layer_1">
    <path d="M50.001,25 C50.001,38.807 38.808,50 25.001,50 C11.192,50 0,38.807 0,25 C0,11.192 11.192,0 25.001,0 C38.808,0 50.001,11.192 50.001,25" fill="#AF7AC4"/>
    <path d="M25,18.154 C28.025,18.154 30.486,20.615 30.486,23.64 C30.486,26.666 28.025,29.127 25,29.127 C21.976,29.127 19.514,26.666 19.514,23.64 C19.514,20.615 21.976,18.154 25,18.154" fill="#86919C"/>
    <path d="M50.001,25 C50.001,38.81 38.812,50 25.001,50 C11.19,50 0,38.81 0,25 C0,24.83 0,24.67 0.01,24.5 C0.271,38.08 11.36,49 25.001,49 C38.64,49 49.731,38.08 49.991,24.5 C50.001,24.67 50.001,24.83 50.001,25" fill="#906698"/>
    <path d="M49.99,25.5 C50.002,25.179 49.999,25.333 50.001,25.036 L50.001,24.996 C49.56,10.632 39.22,0.718 25.056,0.003 L24.946,0.003 C10.558,0.454 0.714,10.845 0,25 C0,25.17 0,25.33 0.01,25.5 C0.271,11.92 11.36,1 25.001,1 C38.64,1 49.73,11.92 49.99,25.5 z" fill="#F1F2F2" opacity="0.3"/>
    <path d="M25,9.208 C17.029,9.208 10.568,15.67 10.568,23.641 C10.568,31.611 17.029,38.073 25,38.073 C32.972,38.073 39.433,31.611 39.433,23.641 C39.433,15.67 32.972,9.208 25,9.208 M25,12.787 C30.986,12.787 35.854,17.656 35.854,23.641 C35.854,29.625 30.986,34.494 25,34.494 C19.015,34.494 14.146,29.625 14.146,23.641 C14.146,17.656 19.015,12.787 25,12.787" fill="#FFFFFF"/>
    <path d="M25,12.19 C18.677,12.19 13.55,17.316 13.55,23.64 C13.55,29.964 18.677,35.091 25,35.091 C31.324,35.091 36.451,29.964 36.451,23.64 C36.451,17.316 31.324,12.19 25,12.19 M25,18.154 C28.025,18.154 30.486,20.615 30.486,23.64 C30.486,26.666 28.025,29.127 25,29.127 C21.976,29.127 19.514,26.666 19.514,23.64 C19.514,20.615 21.976,18.154 25,18.154" fill="#E6E7E8"/>
    <path d="M22.869,28.729 L28.133,28.729" fill-opacity="0" stroke="#EAC696" stroke-width="2" stroke-linecap="round"/>
    <path d="M27.181,26.973 C27.181,28.177 26.205,29.153 25.001,29.153 C23.797,29.153 22.821,28.177 22.821,26.973 C22.821,25.769 23.797,24.793 25.001,24.793 C26.205,24.793 27.181,25.769 27.181,26.973" fill="#8B5E3C"/>
    <path d="M29.495,29.393 L29.495,39.593 C29.495,39.703 29.405,39.793 29.295,39.793 L20.705,39.793 C20.595,39.793 20.505,39.703 20.505,39.593 L20.505,29.393 C20.775,29.243 21.085,29.153 21.425,29.153 L28.575,29.153 C28.915,29.153 29.225,29.243 29.495,29.393" fill="#76CADD"/>
    <path d="M39.425,24.246 C39.165,30.386 35.085,35.526 29.495,37.356 L29.495,38.356 C35.265,36.466 39.435,31.046 39.435,24.636 C39.435,24.506 39.435,24.376 39.425,24.246 M29.295,39.796 L20.705,39.796 C20.595,39.796 20.505,39.706 20.505,39.596 L20.505,40.596 C20.505,40.706 20.595,40.796 20.705,40.796 L29.295,40.796 C29.405,40.796 29.495,40.706 29.495,40.596 L29.495,39.596 C29.495,39.706 29.405,39.796 29.295,39.796 M10.575,24.246 C10.565,24.376 10.565,24.506 10.565,24.636 C10.565,31.046 14.735,36.466 20.505,38.356 L20.505,37.356 C14.915,35.526 10.835,30.386 10.575,24.246" fill="#906698"/>
    <path d="M30.484,31.063 C30.484,31.783 30.084,32.413 29.494,32.733 C29.224,32.883 28.914,32.973 28.574,32.973 L21.424,32.973 C21.084,32.973 20.774,32.883 20.504,32.733 C19.914,32.413 19.514,31.783 19.514,31.063 C19.514,30.533 19.734,30.063 20.074,29.713 C20.204,29.593 20.344,29.483 20.504,29.393 C20.774,29.243 21.084,29.153 21.424,29.153 L28.574,29.153 C28.914,29.153 29.224,29.243 29.494,29.393 C30.084,29.713 30.484,30.343 30.484,31.063" fill="#FFFFFF"/>
    <path d="M30.487,31.064 C30.487,32.12 29.631,32.976 28.575,32.976 L21.426,32.976 C20.37,32.976 19.514,32.12 19.514,31.064 C19.514,30.008 20.37,29.152 21.426,29.152 L28.575,29.152 C29.631,29.152 30.487,30.008 30.487,31.064" fill="#FFFFFF"/>
    <path d="M29.495,33.933 L29.495,32.483 L20.505,32.483 L20.505,33.933 L29.495,33.933 z" fill="#231F20" opacity="0.5"/>
  </g>
</svg>
