<?xml version="1.0" encoding="UTF-8"?>
<!DOCTYPE svg PUBLIC "-//W3C//DTD SVG 1.1//EN" "http://www.w3.org/Graphics/SVG/1.1/DTD/svg11.dtd">
<svg version="1.1" xmlns="http://www.w3.org/2000/svg" xmlns:xlink="http://www.w3.org/1999/xlink" x="0" y="0" width="50.001" height="50" viewBox="0, 0, 50.001, 50">
  <g id="Layer_1">
    <path d="M0,25 C0,38.807 11.193,50 25,50 C38.809,50 50.001,38.807 50.001,25 C50.001,11.192 38.809,0 25,0 C11.193,0 0,11.192 0,25" fill="#75C1AE"/>
    <path d="M0,25 C0,38.81 11.189,50 25,50 C38.811,50 50.001,38.81 50.001,25 C50.001,24.83 50.001,24.67 49.991,24.5 C49.73,38.08 38.641,49 25,49 C11.361,49 0.27,38.08 0.01,24.5 C0,24.67 0,24.83 0,25" fill="#61A191"/>
    <path d="M49.991,25.5 C50.002,25.186 49.999,25.333 50.001,25.058 L50.001,24.994 C49.556,10.584 39.189,0.716 25,0 C11.19,0 0,11.19 0,25 C0.002,25.333 -0.002,25.167 0.011,25.5 C0.712,11.305 11.012,1.698 25,1 C39.202,1.427 49.024,11.524 49.991,25.5 z" fill="#F1F2F2" opacity="0.3"/>
    <path d="M13.262,16.138 L13.495,16.138 C14.949,16.138 16.806,17.121 17.626,18.328 L21.069,23.422 C21.884,24.623 22.551,26.802 22.551,28.256 L22.551,39.042 L27.449,39.042 L27.449,28.256 C27.449,26.802 28.116,24.623 28.93,23.422 L32.379,18.328 C33.045,17.338 34.41,16.503 35.679,16.233 L35.679,15.768 C33.67,15.102 29.136,13.758 25.1,13.758 C19.72,13.758 13.262,16.138 13.262,16.138" fill="#A03D35"/>
    <path d="M36.737,17.461 C37.27,17.461 37.773,17.136 37.973,16.607 C38.233,15.926 37.89,15.161 37.207,14.902 C36.942,14.801 30.657,12.436 25.1,12.436 C19.55,12.436 13.078,14.797 12.805,14.897 C12.12,15.149 11.77,15.91 12.022,16.595 C12.274,17.279 13.034,17.631 13.719,17.379 C13.782,17.356 20.028,15.08 25.1,15.08 C30.176,15.08 36.207,17.352 36.267,17.374 C36.422,17.433 36.581,17.461 36.737,17.461" fill="#FFC2B8"/>
    <path d="M4.592,19.104 C4.592,16.936 7.469,14.816 9.617,14.816 L13.032,14.816 C14.228,14.393 20.039,12.436 25.1,12.436 C29.216,12.436 33.756,13.737 36.098,14.514 C36.493,14.645 36.783,14.749 36.971,14.816 L40.383,14.816 C42.53,14.816 45.408,16.936 45.408,19.104 C45.408,21.173 42.976,23.391 41.264,23.391 L40.254,23.391 C39.677,24.369 38.527,25.044 37.186,25.044 C35.271,25.044 33.718,23.682 33.718,22.002 C33.718,20.322 35.271,18.959 37.186,18.959 C38.589,18.959 39.791,19.695 40.337,20.747 L41.218,20.749 C41.71,20.657 42.763,19.608 42.763,19.11 C42.711,18.62 41.283,17.461 40.383,17.461 L36.504,17.461 C35.487,17.461 34.042,18.228 33.472,19.07 L30.027,24.161 C29.358,25.149 28.772,27.063 28.772,28.255 L28.772,39.041 C28.772,39.772 28.18,40.364 27.449,40.364 C26.719,40.364 26.127,39.772 26.127,39.041 L26.127,28.255 C26.127,26.545 26.878,24.096 27.837,22.679 L31.281,17.587 C31.62,17.086 32.086,16.632 32.613,16.235 C30.411,15.645 27.65,15.081 25.1,15.081 C22.516,15.081 19.632,15.67 17.411,16.253 C17.928,16.647 18.384,17.094 18.718,17.588 L22.163,22.678 C23.122,24.096 23.873,26.545 23.873,28.255 L23.873,39.041 C23.873,39.772 23.281,40.364 22.55,40.364 C21.82,40.364 21.228,39.772 21.228,39.041 L21.228,28.255 C21.228,27.063 20.641,25.149 19.973,24.161 L16.528,19.071 C15.958,18.228 14.513,17.461 13.496,17.461 L9.617,17.461 C8.717,17.461 7.289,18.62 7.237,19.104 C7.237,19.575 8.145,20.506 8.631,20.705 C9.187,19.676 10.372,18.959 11.756,18.959 C13.671,18.959 15.223,20.322 15.223,22.002 C15.223,23.682 13.671,25.044 11.756,25.044 C10.412,25.044 9.26,24.368 8.685,23.387 C6.976,23.344 4.592,21.153 4.592,19.104" fill="#F9CFCD"/>
    <path d="M33.773,22.505 C33.743,22.665 33.723,22.835 33.723,23.005 C33.723,24.686 35.273,26.045 37.183,26.045 C38.523,26.045 39.673,25.365 40.253,24.395 L41.263,24.395 C42.973,24.395 45.413,22.175 45.413,20.106 C45.413,19.936 45.393,19.766 45.363,19.606 C45.023,21.516 42.833,23.395 41.263,23.395 L40.253,23.395 C39.673,24.365 38.523,25.045 37.183,25.045 C35.463,25.045 34.043,23.945 33.773,22.505" fill="#61A191"/>
    <path d="M28.773,29.255 C28.773,28.065 29.363,26.145 30.023,25.165 L33.473,20.065 C34.043,19.225 35.483,18.465 36.503,18.465 L40.383,18.465 C41.073,18.465 42.073,19.135 42.513,19.675 C42.663,19.465 42.763,19.255 42.763,19.106 C42.713,18.615 41.283,17.465 40.383,17.465 L36.503,17.465 C35.483,17.465 34.043,18.225 33.473,19.065 L30.023,24.165 C29.363,25.145 28.773,27.065 28.773,28.255 z" fill="#61A191"/>
    <path d="M21.233,39.045 L21.233,40.045 C21.233,40.775 21.823,41.365 22.553,41.365 C23.283,41.365 23.873,40.775 23.873,40.045 L26.123,40.045 C26.133,40.775 26.723,41.365 27.453,41.365 C28.183,41.365 28.773,40.775 28.773,40.045 L28.773,39.045 C28.773,39.775 28.183,40.365 27.453,40.365 C26.723,40.365 26.133,39.775 26.123,39.045 L23.873,39.045 C23.873,39.775 23.283,40.365 22.553,40.365 C21.823,40.365 21.233,39.775 21.233,39.045" fill="#61A191"/>
    <path d="M13.493,18.465 C14.513,18.465 15.963,19.225 16.533,20.065 L19.973,25.165 C20.643,26.145 21.233,28.065 21.233,29.255 L21.233,28.255 C21.233,27.065 20.643,25.145 19.973,24.165 L16.533,19.065 C15.963,18.225 14.513,17.465 13.493,17.465 L9.613,17.465 C8.713,17.465 7.293,18.615 7.233,19.106 C7.233,19.266 7.333,19.465 7.483,19.675 C7.933,19.135 8.923,18.465 9.613,18.465 z" fill="#61A191"/>
    <path d="M4.593,20.105 C4.593,22.154 6.973,24.344 8.683,24.384 C9.263,25.365 10.413,26.044 11.753,26.044 C13.673,26.044 15.223,24.685 15.223,23.004 C15.223,22.834 15.203,22.665 15.173,22.504 C14.903,23.945 13.473,25.044 11.753,25.044 C10.413,25.044 9.263,24.365 8.683,23.384 C7.113,23.344 4.973,21.495 4.643,19.605 C4.613,19.765 4.593,19.935 4.593,20.105" fill="#61A191"/>
  </g>
</svg>
