<?xml version="1.0" encoding="UTF-8"?>
<!DOCTYPE svg PUBLIC "-//W3C//DTD SVG 1.1//EN" "http://www.w3.org/Graphics/SVG/1.1/DTD/svg11.dtd">
<svg version="1.1" xmlns="http://www.w3.org/2000/svg" xmlns:xlink="http://www.w3.org/1999/xlink" x="0" y="0" width="50.001" height="50.002" viewBox="0, 0, 50.001, 50.002">
  <g id="Layer_1">
    <path d="M49.999,25.001 C49.999,38.809 38.806,50.002 24.999,50.002 C11.192,50.002 0,38.809 0,25.001 C0,11.194 11.192,0.001 24.999,0.001 C38.806,0.001 49.999,11.194 49.999,25.001" fill="#76CADD"/>
    <path d="M50.001,25.001 C50.001,38.813 38.802,50.002 25.001,50.002 C11.192,50.002 0.002,38.813 0.002,25.001 C0.002,24.831 0.002,24.671 0.013,24.501 C0.272,38.082 11.362,49.002 25.001,49.002 C38.632,49.002 49.731,38.082 49.991,24.501 C50.001,24.671 50.001,24.831 50.001,25.001" fill="#79ACBA"/>
    <path d="M26.866,30.704 C26.866,35.613 22.887,39.59 17.98,39.59 C13.073,39.59 9.095,35.613 9.095,30.704 C9.095,25.796 17.98,17.577 17.98,17.577 C17.98,17.577 26.866,25.796 26.866,30.704" fill="#E74C3C"/>
    <path d="M26.871,31.706 C26.871,36.615 22.891,40.586 17.981,40.586 C13.071,40.586 9.091,36.615 9.091,31.706 C9.091,31.587 9.101,31.456 9.111,31.325 C9.431,35.945 13.281,39.586 17.981,39.586 C22.681,39.586 26.531,35.945 26.851,31.325 C26.861,31.456 26.871,31.587 26.871,31.706" fill="#79ACBA"/>
    <path d="M29.461,14.227 C29.17,14.332 28.849,14.184 28.744,13.892 L25.986,6.315 C25.879,6.024 26.03,5.704 26.32,5.599 C26.611,5.494 26.931,5.643 27.037,5.933 L29.795,13.511 C29.9,13.801 29.752,14.122 29.461,14.227" fill="#F1F2F2"/>
    <path d="M38.172,38.16 C37.881,38.267 37.561,38.117 37.455,37.825 L34.696,30.249 C34.59,29.957 34.74,29.639 35.031,29.532 C35.322,29.427 35.642,29.576 35.748,29.866 L38.506,37.444 C38.612,37.734 38.463,38.056 38.172,38.16" fill="#F1F2F2"/>
    <path d="M37.808,29.116 L32.638,30.998 L27.197,16.048 L32.366,14.166 z" fill="#F1F2F2"/>
    <path d="M35.324,22.292 L30.154,24.174 L27.197,16.048 L32.366,14.166 z" fill="#E74C3C"/>
    <path d="M40.268,37.397 L36.075,38.923 C35.785,39.03 35.464,38.879 35.358,38.588 C35.253,38.298 35.402,37.978 35.692,37.872 L39.886,36.345 C40.176,36.241 40.497,36.389 40.602,36.68 C40.708,36.97 40.559,37.293 40.268,37.397" fill="#F1F2F2"/>
    <path d="M38.313,29.63 L32.58,31.717 C32.24,31.84 31.864,31.665 31.741,31.325 C31.616,30.985 31.792,30.609 32.132,30.487 L37.866,28.4 C38.205,28.276 38.581,28.45 38.705,28.791 C38.829,29.13 38.653,29.505 38.313,29.63" fill="#F1F2F2"/>
    <path d="M28.854,17.329 L31.483,16.373" fill="#34495E"/>
    <path d="M31.673,16.899 L29.045,17.855 L28.662,16.803 L31.291,15.847 z" fill="#2C3E50"/>
    <path d="M29.635,19.476 L32.264,18.52" fill="#34495E"/>
    <path d="M32.456,19.046 L29.827,20.002 L29.444,18.951 L32.073,17.994 z" fill="#2C3E50"/>
    <path d="M30.417,21.624 L33.045,20.667" fill="#34495E"/>
    <path d="M33.237,21.193 L30.609,22.149 L30.225,21.098 L32.854,20.142 z" fill="#2C3E50"/>
    <path d="M31.199,23.771 L33.827,22.815" fill="#34495E"/>
    <path d="M34.019,23.339 L31.39,24.297 L31.007,23.246 L33.637,22.289 z" fill="#2C3E50"/>
    <path d="M31.98,25.919 L34.609,24.961" fill="#34495E"/>
    <path d="M34.8,25.488 L32.172,26.444 L31.789,25.392 L34.417,24.436 z" fill="#2C3E50"/>
    <path d="M32.762,28.066 L35.39,27.11" fill="#34495E"/>
    <path d="M35.581,27.634 L32.953,28.592 L32.57,27.541 L35.199,26.583 z" fill="#2C3E50"/>
    <path d="M31.468,14.492 L28.094,15.721 L27.425,13.88 L30.799,12.651 z" fill="#E74C3C"/>
    <path d="M49.99,25.5 C50.001,25.179 49.998,25.333 50,25.038 L50,24.996 C49.556,10.586 39.191,0.716 25.002,0 L24.998,0 C10.587,0.444 0.716,10.808 0,25 C0,25.17 0,25.33 0.01,25.5 C0.271,11.92 11.36,1 25,1 C38.64,1 49.73,11.92 49.99,25.5 z" fill="#F1F2F2" opacity="0.3"/>
    <path d="M32.096,30.508 L30.156,25.178 L27.196,17.048 L27.516,16.928 L30.156,24.178 L32.416,30.388 L32.136,30.487 C32.126,30.498 32.106,30.498 32.096,30.508" fill="#79ACBA"/>
    <path d="M36.946,37.418 L34.916,31.868 L32.576,32.718 C32.236,32.838 31.866,32.668 31.736,32.328 C31.646,32.058 31.736,31.768 31.936,31.607 C32.106,31.748 32.346,31.798 32.576,31.718 L34.916,30.868 L37.266,37.298 z" fill="#79ACBA"/>
    <path d="M36.296,31.357 L35.976,30.477 L38.316,29.628 C38.386,29.607 38.456,29.567 38.506,29.517 C38.596,29.578 38.666,29.668 38.706,29.788 C38.826,30.128 38.656,30.507 38.316,30.628 z" fill="#79ACBA"/>
    <path d="M40.267,38.397 L36.077,39.927 C35.787,40.027 35.467,39.877 35.357,39.587 C35.267,39.317 35.387,39.017 35.647,38.897 L35.657,38.897 C35.777,38.967 35.937,38.977 36.077,38.927 L40.267,37.397 C40.287,37.387 40.297,37.387 40.317,37.368 C40.447,37.418 40.547,37.527 40.607,37.677 C40.707,37.967 40.557,38.297 40.267,38.397" fill="#79ACBA"/>
    <path d="M28.267,13.578 L25.987,7.317 C25.907,7.098 25.967,6.857 26.137,6.718 L28.587,13.458 z" fill="#79ACBA"/>
    <path d="M28.096,15.718 L27.776,15.838 L27.426,14.878 L27.746,14.758 z" fill="#79ACBA"/>
  </g>
</svg>
