<?xml version="1.0" encoding="UTF-8"?>
<!DOCTYPE svg PUBLIC "-//W3C//DTD SVG 1.1//EN" "http://www.w3.org/Graphics/SVG/1.1/DTD/svg11.dtd">
<svg version="1.1" xmlns="http://www.w3.org/2000/svg" xmlns:xlink="http://www.w3.org/1999/xlink" x="0" y="0" width="50.002" height="50" viewBox="0, 0, 50.002, 50">
  <g id="Layer_1">
    <path d="M50.002,25 C50.002,38.807 38.809,50 25.002,50 C11.194,50 0.002,38.807 0.002,25 C0.002,11.193 11.194,0 25.002,0 C38.809,0 50.002,11.193 50.002,25" fill="#34495E"/>
    <path d="M26.994,14.609 C26.994,14.884 26.77,15.109 26.494,15.109 L24.75,15.109 C24.473,15.109 24.25,14.884 24.25,14.609 L24.25,14.297 C24.25,14.019 24.473,13.797 24.75,13.797 L26.494,13.797 C26.77,13.797 26.994,14.019 26.994,14.297 z" fill="#253749"/>
    <path d="M26.994,13.016 C26.994,13.291 26.77,13.516 26.494,13.516 L24.75,13.516 C24.473,13.516 24.25,13.291 24.25,13.016 L24.25,12.704 C24.25,12.426 24.473,12.204 24.75,12.204 L26.494,12.204 C26.77,12.204 26.994,12.426 26.994,12.704 z" fill="#253749"/>
    <path d="M26.994,11.422 C26.994,11.697 26.77,11.922 26.494,11.922 L24.75,11.922 C24.473,11.922 24.25,11.697 24.25,11.422 L24.25,11.11 C24.25,10.832 24.473,10.61 24.75,10.61 L26.494,10.61 C26.77,10.61 26.994,10.832 26.994,11.11 z" fill="#253749"/>
    <path d="M26.994,9.828 C26.994,10.103 26.77,10.328 26.494,10.328 L24.75,10.328 C24.473,10.328 24.25,10.103 24.25,9.828 L24.25,9.516 C24.25,9.238 24.473,9.016 24.75,9.016 L26.494,9.016 C26.77,9.016 26.994,9.238 26.994,9.516 z" fill="#253749"/>
    <path d="M26.994,8.234 C26.994,8.509 26.77,8.734 26.494,8.734 L24.75,8.734 C24.473,8.734 24.25,8.509 24.25,8.234 L24.25,7.922 C24.25,7.644 24.473,7.422 24.75,7.422 L26.494,7.422 C26.77,7.422 26.994,7.644 26.994,7.922 z" fill="#253749"/>
    <path d="M26.994,6.641 C26.994,6.916 26.77,7.141 26.494,7.141 L24.75,7.141 C24.473,7.141 24.25,6.916 24.25,6.641 L24.25,6.329 C24.25,6.051 24.473,5.829 24.75,5.829 L26.494,5.829 C26.77,5.829 26.994,6.051 26.994,6.329 z" fill="#253749"/>
    <path d="M50,25 C50,38.809 38.81,50 25,50 C11.189,50 0,38.809 0,25 C0,24.83 0,24.67 0.01,24.5 C0.27,38.08 11.359,49 25,49 C38.64,49 49.729,38.08 49.989,24.5 C50,24.67 50,24.83 50,25" fill="#253749"/>
    <path d="M49.992,25.5 C50.002,25.33 50.002,25.17 50.002,25 C49.559,10.594 39.199,0.717 25.01,0 L24.994,0 C10.59,0.444 0.718,10.809 0.002,24.994 L0.002,25.063 C0.004,25.333 0.001,25.188 0.012,25.5 C0.273,11.92 11.362,1 25.002,1 C38.642,1 49.732,11.92 49.992,25.5 z" fill="#F1F2F2" opacity="0.3"/>
    <path d="M29.269,24.359 C28.649,24.359 28.149,23.859 28.149,23.24 C28.149,22.629 28.649,22.119 29.269,22.119 C29.888,22.119 30.378,22.629 30.378,23.24 C30.378,23.859 29.888,24.359 29.269,24.359 M25.619,22.119 C23.409,22.119 21.609,20.75 21.609,19.048 C21.609,17.91 22.819,16.99 22.819,16.99 C23.258,16.66 23.859,16.759 24.149,17.23 C24.149,17.23 24.918,18.449 25.619,18.449 C26.329,18.449 27.098,17.23 27.098,17.23 C27.388,16.759 27.989,16.66 28.418,16.99 C28.418,16.99 29.638,17.91 29.638,19.048 C29.638,20.75 27.838,22.119 25.619,22.119 M21.979,24.359 C21.359,24.359 20.859,23.859 20.859,23.24 C20.859,22.629 21.359,22.119 21.979,22.119 C22.588,22.119 23.098,22.629 23.098,23.24 C23.098,23.859 22.588,24.359 21.979,24.359 M33.329,10.798 C28.168,10.798 28.869,15.269 25.619,15.269 C22.369,15.269 23.079,10.798 17.918,10.798 C14.668,10.798 13.798,13.939 13.798,15.769 C13.798,16.449 13.968,17.189 14.248,17.959 C14.428,17.92 14.609,17.91 14.789,17.91 C16.218,17.91 17.468,18.869 17.838,20.25 C18.059,21.07 17.949,21.92 17.529,22.66 C17.489,22.73 17.449,22.798 17.388,22.859 C18.899,24.519 20.548,25.709 21.609,25.709 C23.838,25.709 23.718,23.298 25.619,23.298 C27.529,23.298 27.399,25.709 29.638,25.709 C30.548,25.709 31.888,24.83 33.218,23.519 C32.928,23.289 32.678,23 32.479,22.66 C32.059,21.92 31.939,21.07 32.159,20.25 C32.529,18.869 33.789,17.91 35.218,17.91 C35.498,17.91 35.769,17.939 36.039,18.019 C36.319,18.089 36.588,18.209 36.829,18.349 C37.218,17.449 37.449,16.558 37.449,15.769 C37.449,13.939 36.579,10.798 33.329,10.798" fill="#EAC696"/>
    <path d="M26.994,13.609 C26.994,13.884 26.77,14.109 26.494,14.109 L24.75,14.109 C24.473,14.109 24.25,13.884 24.25,13.609 L24.25,13.297 C24.25,13.019 24.473,12.797 24.75,12.797 L26.494,12.797 C26.77,12.797 26.994,13.019 26.994,13.297 z" fill="#EAC696"/>
    <path d="M26.994,12.016 C26.994,12.291 26.77,12.516 26.494,12.516 L24.75,12.516 C24.473,12.516 24.25,12.291 24.25,12.016 L24.25,11.704 C24.25,11.426 24.473,11.204 24.75,11.204 L26.494,11.204 C26.77,11.204 26.994,11.426 26.994,11.704 z" fill="#EAC696"/>
    <path d="M26.994,10.422 C26.994,10.697 26.77,10.922 26.494,10.922 L24.75,10.922 C24.473,10.922 24.25,10.697 24.25,10.422 L24.25,10.11 C24.25,9.832 24.473,9.61 24.75,9.61 L26.494,9.61 C26.77,9.61 26.994,9.832 26.994,10.11 z" fill="#EAC696"/>
    <path d="M26.994,8.828 C26.994,9.103 26.77,9.328 26.494,9.328 L24.75,9.328 C24.473,9.328 24.25,9.103 24.25,8.828 L24.25,8.516 C24.25,8.238 24.473,8.016 24.75,8.016 L26.494,8.016 C26.77,8.016 26.994,8.238 26.994,8.516 z" fill="#EAC696"/>
    <path d="M26.994,7.234 C26.994,7.509 26.77,7.734 26.494,7.734 L24.75,7.734 C24.473,7.734 24.25,7.509 24.25,7.234 L24.25,6.922 C24.25,6.644 24.473,6.422 24.75,6.422 L26.494,6.422 C26.77,6.422 26.994,6.644 26.994,6.922 z" fill="#EAC696"/>
    <path d="M26.994,5.641 C26.994,5.916 26.77,6.141 26.494,6.141 L24.75,6.141 C24.473,6.141 24.25,5.916 24.25,5.641 L24.25,5.329 C24.25,5.051 24.473,4.829 24.75,4.829 L26.494,4.829 C26.77,4.829 26.994,5.051 26.994,5.329 z" fill="#EAC696"/>
    <path d="M17.838,20.25 C17.468,18.869 16.218,17.91 14.788,17.91 C14.609,17.91 14.428,17.92 14.248,17.959 C14.028,17.35 13.878,16.76 13.828,16.209 C13.809,16.41 13.798,16.59 13.798,16.77 C13.798,17.449 13.968,18.189 14.248,18.959 C14.428,18.92 14.609,18.91 14.788,18.91 C16.218,18.91 17.468,19.869 17.838,21.25 C17.868,21.359 17.888,21.469 17.899,21.58 C17.979,21.139 17.958,20.689 17.838,20.25 M21.979,22.119 C21.359,22.119 20.859,22.629 20.859,23.24 C20.859,23.42 20.899,23.6 20.979,23.75 C21.158,23.379 21.538,23.119 21.979,23.119 C22.408,23.119 22.798,23.379 22.979,23.75 C23.059,23.6 23.098,23.42 23.098,23.24 C23.098,22.629 22.588,22.119 21.979,22.119 M28.418,16.99 C27.988,16.66 27.388,16.76 27.098,17.23 C27.098,17.23 26.328,18.449 25.618,18.449 C24.918,18.449 24.149,17.23 24.149,17.23 C23.859,16.76 23.258,16.66 22.818,16.99 C22.818,16.99 21.609,17.91 21.609,19.049 C21.609,19.24 21.628,19.42 21.668,19.59 C21.918,18.67 22.818,17.99 22.818,17.99 C23.258,17.66 23.859,17.76 24.149,18.23 C24.149,18.23 24.918,19.449 25.618,19.449 C26.328,19.449 27.098,18.23 27.098,18.23 C27.388,17.76 27.988,17.66 28.418,17.99 C28.418,17.99 29.328,18.67 29.578,19.59 C29.618,19.42 29.638,19.24 29.638,19.049 C29.638,17.91 28.418,16.99 28.418,16.99 M29.269,22.119 C28.649,22.119 28.149,22.629 28.149,23.24 C28.149,23.42 28.189,23.6 28.269,23.75 C28.448,23.379 28.828,23.119 29.269,23.119 C29.708,23.119 30.088,23.379 30.258,23.75 C30.338,23.6 30.378,23.42 30.378,23.24 C30.378,22.629 29.888,22.119 29.269,22.119 M32.708,24 C31.559,25.039 30.428,25.709 29.638,25.709 C27.399,25.709 27.528,23.299 25.618,23.299 C23.718,23.299 23.838,25.709 21.609,25.709 C20.628,25.709 19.138,24.689 17.729,23.219 C17.678,23.369 17.609,23.52 17.528,23.66 C17.488,23.73 17.448,23.799 17.388,23.859 C18.899,25.52 20.548,26.709 21.609,26.709 C23.838,26.709 23.718,24.299 25.618,24.299 C27.528,24.299 27.399,26.709 29.638,26.709 C30.548,26.709 31.888,25.83 33.218,24.52 C33.028,24.369 32.859,24.199 32.708,24 M37.428,16.219 C37.359,16.889 37.149,17.619 36.828,18.35 C36.588,18.209 36.318,18.09 36.038,18.02 C35.769,17.939 35.498,17.91 35.218,17.91 C33.788,17.91 32.528,18.869 32.158,20.25 C32.038,20.689 32.019,21.139 32.098,21.57 C32.109,21.459 32.128,21.359 32.158,21.25 C32.528,19.869 33.788,18.91 35.218,18.91 C35.318,18.91 35.408,18.91 35.498,18.93 C35.678,18.939 35.859,18.969 36.038,19.02 C36.318,19.09 36.588,19.209 36.828,19.35 C37.218,18.449 37.448,17.559 37.448,16.77 C37.448,16.6 37.439,16.41 37.428,16.219" fill="#253749"/>
    <path d="M16.388,39.57 L12.279,24.209 C11.519,24.42 10.739,23.968 10.538,23.209 C10.458,22.92 10.479,22.619 10.588,22.349 C10.838,23.019 11.569,23.41 12.279,23.209 L16.628,39.468 C16.548,39.49 16.468,39.519 16.388,39.57" fill="#253749"/>
    <path d="M15.228,24.189 L14.967,23.23 C15.097,23.218 15.217,23.199 15.347,23.169 C16.148,22.949 16.717,22.308 16.887,21.548 C17.167,22.699 16.488,23.859 15.347,24.169 C15.308,24.179 15.268,24.189 15.228,24.189" fill="#253749"/>
    <path d="M20.338,42.309 C20.059,42.059 19.698,41.92 19.309,41.92 C19.019,41.92 18.738,42 18.498,42.139 C18.458,42.12 18.428,42.08 18.399,42.039 C18.388,42.11 18.378,42.17 18.359,42.231 L18.359,42.241 C18.078,42.43 17.868,42.7 17.769,43.03 C17.649,43.11 17.508,43.17 17.368,43.209 C16.609,43.411 15.828,42.959 15.628,42.209 C15.548,41.911 15.568,41.61 15.678,41.35 C15.928,42.01 16.658,42.401 17.368,42.209 C17.928,42.059 18.318,41.59 18.399,41.039 C18.738,41.481 19.318,41.69 19.878,41.539 C20.338,41.411 20.678,41.08 20.828,40.67 C20.848,40.709 20.868,40.76 20.878,40.799 C21.038,41.389 20.809,41.981 20.338,42.309" fill="#253749"/>
    <path d="M20.928,44.549 C20.928,45.44 20.199,46.17 19.309,46.17 C18.408,46.17 17.678,45.44 17.678,44.549 C17.678,44.369 17.708,44.199 17.769,44.049 C17.968,44.699 18.588,45.17 19.309,45.17 C20.029,45.17 20.638,44.699 20.838,44.049 C20.899,44.199 20.928,44.369 20.928,44.549" fill="#253749"/>
    <path d="M34.378,42.209 C34.168,42.959 33.399,43.41 32.638,43.209 C32.488,43.17 32.348,43.1 32.218,43.02 C32.118,42.699 31.918,42.42 31.649,42.24 L31.649,42.23 C31.628,42.17 31.618,42.109 31.608,42.039 C31.578,42.08 31.548,42.119 31.508,42.139 C31.269,42 30.998,41.92 30.698,41.92 C30.298,41.92 29.939,42.059 29.658,42.309 C29.198,41.98 28.968,41.389 29.118,40.799 C29.128,40.76 29.149,40.709 29.168,40.67 C29.318,41.08 29.668,41.41 30.128,41.539 C30.689,41.689 31.269,41.48 31.608,41.039 C31.678,41.59 32.078,42.059 32.638,42.209 C33.348,42.4 34.078,42.01 34.328,41.34 C34.439,41.609 34.458,41.91 34.378,42.209" fill="#253749"/>
    <path d="M33.118,21.559 C33.288,22.321 33.858,22.95 34.658,23.17 C34.778,23.2 34.908,23.219 35.028,23.231 L34.768,24.19 C34.728,24.19 34.698,24.18 34.658,24.17 C33.518,23.86 32.838,22.7 33.118,21.559" fill="#253749"/>
    <path d="M39.468,23.209 C39.258,23.969 38.489,24.42 37.729,24.209 L33.609,39.57 C33.529,39.52 33.448,39.49 33.368,39.469 L37.729,23.209 C38.439,23.41 39.158,23.02 39.418,22.35 C39.529,22.619 39.548,22.92 39.468,23.209" fill="#253749"/>
    <path d="M32.318,44.549 C32.318,45.44 31.597,46.17 30.698,46.17 C29.797,46.17 29.078,45.44 29.078,44.549 C29.078,44.369 29.108,44.199 29.168,44.049 C29.368,43.389 29.978,42.92 30.698,42.92 C31.418,42.92 32.028,43.389 32.228,44.049 C32.288,44.199 32.318,44.369 32.318,44.549" fill="#253749"/>
    <path d="M15.345,23.166 C16.501,22.855 17.187,21.668 16.877,20.514 C16.567,19.357 15.379,18.672 14.224,18.982 C13.401,19.201 12.824,19.871 12.668,20.654 C12.344,20.447 11.941,20.369 11.541,20.477 C10.785,20.678 10.336,21.455 10.539,22.211 C10.741,22.967 11.519,23.416 12.275,23.213 L16.631,39.473 C15.875,39.676 15.427,40.453 15.629,41.209 C15.831,41.963 16.609,42.412 17.365,42.211 C17.929,42.059 18.322,41.588 18.4,41.045 C18.74,41.477 19.315,41.687 19.879,41.537 C20.635,41.334 21.084,40.557 20.881,39.801 C20.679,39.045 19.903,38.596 19.147,38.799 L14.973,23.227 C15.097,23.215 15.221,23.199 15.345,23.166" fill="#EAC696"/>
    <path d="M20.93,43.547 C20.93,44.443 20.202,45.172 19.306,45.172 C18.409,45.172 17.681,44.443 17.681,43.547 C17.681,42.651 18.409,41.922 19.306,41.922 C20.202,41.922 20.93,42.651 20.93,43.547" fill="#EAC696"/>
    <path d="M34.658,23.166 C33.502,22.855 32.816,21.668 33.126,20.514 C33.436,19.357 34.624,18.672 35.779,18.982 C36.602,19.201 37.179,19.871 37.335,20.654 C37.659,20.447 38.062,20.369 38.462,20.477 C39.218,20.678 39.667,21.455 39.464,22.211 C39.262,22.967 38.484,23.416 37.728,23.213 L33.372,39.473 C34.128,39.676 34.576,40.453 34.374,41.209 C34.172,41.963 33.394,42.412 32.638,42.211 C32.074,42.059 31.681,41.588 31.603,41.045 C31.263,41.477 30.688,41.687 30.124,41.537 C29.368,41.334 28.919,40.557 29.122,39.801 C29.324,39.045 30.1,38.596 30.856,38.799 L35.03,23.227 C34.906,23.215 34.782,23.199 34.658,23.166" fill="#EAC696"/>
    <path d="M29.073,43.547 C29.073,44.443 29.801,45.172 30.698,45.172 C31.595,45.172 32.323,44.443 32.323,43.547 C32.323,42.651 31.595,41.922 30.698,41.922 C29.801,41.922 29.073,42.651 29.073,43.547" fill="#EAC696"/>
  </g>
</svg>
