<?xml version="1.0" encoding="UTF-8"?>
<!DOCTYPE svg PUBLIC "-//W3C//DTD SVG 1.1//EN" "http://www.w3.org/Graphics/SVG/1.1/DTD/svg11.dtd">
<svg version="1.1" xmlns="http://www.w3.org/2000/svg" xmlns:xlink="http://www.w3.org/1999/xlink" x="0" y="0" width="50.001" height="50" viewBox="0, 0, 50.001, 50">
  <g id="Layer_1">
    <path d="M50.001,25 C50.001,38.807 38.808,50 25.001,50 C11.193,50 0.001,38.807 0.001,25 C0.001,11.193 11.193,0 25.001,0 C38.808,0 50.001,11.193 50.001,25" fill="#75C1AE"/>
    <path d="M50,25 C50,38.81 38.811,50 25,50 C11.19,50 0,38.81 0,25 C0,24.83 0,24.67 0.011,24.5 C0.271,38.08 11.36,49 25,49 C38.641,49 49.73,38.08 49.99,24.5 C50,24.67 50,24.83 50,25" fill="#61A191"/>
    <path d="M49.99,25.5 C50.001,25.186 49.998,25.333 50,25.058 L50,24.994 C49.559,10.631 39.218,0.718 25.056,0.003 L24.945,0.003 C10.557,0.454 0.714,10.846 0,25 C0,25.17 0,25.33 0.01,25.5 C0.271,11.92 11.36,1 25,1 C38.64,1 49.73,11.92 49.99,25.5 z" fill="#F1F2F2" opacity="0.3"/>
    <path d="M39.668,25 C39.668,35.658 35.659,39.667 25.001,39.667 C14.343,39.667 10.335,35.658 10.335,25 C10.335,14.342 14.343,10.333 25.001,10.333 C35.659,10.333 39.668,14.342 39.668,25" fill="#E74C3C"/>
    <path d="M29.658,21.646 C28.941,21.646 28.354,21.059 28.354,20.341 L28.354,16.24 C28.354,15.524 27.768,14.938 27.051,14.938 L22.949,14.938 C22.232,14.938 21.645,15.524 21.645,16.24 L21.645,20.341 C21.645,21.059 21.059,21.646 20.342,21.646 L16.241,21.646 C15.523,21.646 14.937,22.232 14.937,22.949 L14.937,27.051 C14.937,27.768 15.523,28.354 16.241,28.354 L20.342,28.354 C21.059,28.354 21.645,28.941 21.645,29.659 L21.645,33.759 C21.645,34.477 22.232,35.062 22.949,35.062 L27.051,35.062 C27.768,35.062 28.354,34.477 28.354,33.759 L28.354,29.659 C28.354,28.941 28.941,28.354 29.658,28.354 L33.759,28.354 C34.476,28.354 35.063,27.768 35.063,27.051 L35.063,22.949 C35.063,22.232 34.476,21.646 33.759,21.646 z" fill="#FFFFFF"/>
    <path d="M39.665,26.005 C39.665,36.655 35.655,40.665 25.005,40.665 C14.345,40.665 10.335,36.655 10.335,26.005 C10.335,25.835 10.335,25.665 10.345,25.505 C10.465,35.785 14.515,39.665 25.005,39.665 C35.485,39.665 39.535,35.785 39.655,25.505 C39.665,25.665 39.665,25.835 39.665,26.005" fill="#61A191"/>
    <path d="M21.645,30.655 C21.645,29.945 21.055,29.355 20.345,29.355 L16.245,29.355 C15.525,29.355 14.935,28.765 14.935,28.055 L14.935,27.055 C14.935,27.765 15.525,28.355 16.245,28.355 L20.345,28.355 C21.055,28.355 21.645,28.945 21.645,29.655 z" fill="#BE3D2F"/>
    <path d="M28.355,33.755 L28.355,34.755 C28.355,35.475 27.765,36.065 27.055,36.065 L22.945,36.065 C22.235,36.065 21.645,35.475 21.645,34.755 L21.645,33.755 C21.645,34.475 22.235,35.065 22.945,35.065 L27.055,35.065 C27.765,35.065 28.355,34.475 28.355,33.755" fill="#BE3D2F"/>
    <path d="M35.065,27.055 L35.065,28.055 C35.065,28.765 34.475,29.355 33.755,29.355 L29.655,29.355 C28.945,29.355 28.355,29.945 28.355,30.655 L28.355,29.655 C28.355,28.945 28.945,28.355 29.655,28.355 L33.755,28.355 C34.475,28.355 35.065,27.765 35.065,27.055" fill="#BE3D2F"/>
  </g>
</svg>
